<?xml version="1.0" encoding="UTF-8" standalone="no"?>
<!DOCTYPE svg PUBLIC "-//W3C//DTD SVG 1.1//EN"
 "http://www.w3.org/Graphics/SVG/1.1/DTD/svg11.dtd">
<!-- Generated by graphviz version 2.40.1 (20161225.0304)
 -->
<!-- Title: dependencies Pages: 1 -->
<svg width="5528pt" height="349pt"
 viewBox="0.00 0.00 5528.00 349.00" xmlns="http://www.w3.org/2000/svg" xmlns:xlink="http://www.w3.org/1999/xlink">
<g id="graph0" class="graph" transform="scale(1 1) rotate(0) translate(4 345)">
<title>dependencies</title>
<polygon fill="#ffffff" stroke="transparent" points="-4,4 -4,-345 5524,-345 5524,4 -4,4"/>
<text text-anchor="start" x="2739.0091" y="-42.4" font-family="sans-serif" font-weight="bold" font-size="14.00" fill="#000000">Legend</text>
<polygon fill="#ffffb3" stroke="transparent" points="2526,-10 2526,-30 2546,-30 2546,-10 2526,-10"/>
<text text-anchor="start" x="2549.629" y="-15.4" font-family="sans-serif" font-size="14.00" fill="#000000"> &#160;Declarations</text>
<polygon fill="#8dd3c7" stroke="transparent" points="2639,-10 2639,-30 2659,-30 2659,-10 2639,-10"/>
<text text-anchor="start" x="2662.7251" y="-15.4" font-family="sans-serif" font-size="14.00" fill="#000000"> &#160;Module</text>
<polygon fill="#80b1d3" stroke="transparent" points="2725,-10 2725,-30 2745,-30 2745,-10 2725,-10"/>
<text text-anchor="start" x="2748.7812" y="-15.4" font-family="sans-serif" font-size="14.00" fill="#000000"> &#160;Bootstrap</text>
<polygon fill="#fdb462" stroke="transparent" points="2822,-10 2822,-30 2842,-30 2842,-10 2822,-10"/>
<text text-anchor="start" x="2845.6732" y="-15.4" font-family="sans-serif" font-size="14.00" fill="#000000"> &#160;Providers</text>
<polygon fill="#fb8072" stroke="transparent" points="2918,-10 2918,-30 2938,-30 2938,-10 2918,-10"/>
<text text-anchor="start" x="2941.7258" y="-15.4" font-family="sans-serif" font-size="14.00" fill="#000000"> &#160;Exports</text>
<g id="clust1" class="cluster">
<title>cluster_DirectivesModule</title>
<polygon fill="none" stroke="#000000" stroke-dasharray="1,5" points="8,-70 8,-333 5512,-333 5512,-70 8,-70"/>
</g>
<g id="clust2" class="cluster">
<title>cluster_DirectivesModule_declarations</title>
<polygon fill="none" stroke="#000000" points="1724,-143 1724,-195 3372,-195 3372,-143 1724,-143"/>
</g>
<g id="clust3" class="cluster">
<title>cluster_DirectivesModule_EmailValidator_providers</title>
<polygon fill="none" stroke="#000000" points="4918,-78 4918,-130 5504,-130 5504,-78 4918,-78"/>
</g>
<g id="clust4" class="cluster">
<title>cluster_DirectivesModule_MatchValidator_providers</title>
<polygon fill="none" stroke="#000000" points="4320,-78 4320,-130 4910,-130 4910,-78 4320,-78"/>
</g>
<g id="clust5" class="cluster">
<title>cluster_DirectivesModule_SlugValidator_providers</title>
<polygon fill="none" stroke="#000000" points="3736,-78 3736,-130 4312,-130 4312,-78 3736,-78"/>
</g>
<g id="clust6" class="cluster">
<title>cluster_DirectivesModule_DomainValidator_providers</title>
<polygon fill="none" stroke="#000000" points="3126,-78 3126,-130 3728,-130 3728,-78 3126,-78"/>
</g>
<g id="clust7" class="cluster">
<title>cluster_DirectivesModule_URIValidator_providers</title>
<polygon fill="none" stroke="#000000" points="2544,-78 2544,-130 3118,-130 3118,-78 2544,-78"/>
</g>
<g id="clust8" class="cluster">
<title>cluster_DirectivesModule_FragmentValidator_providers</title>
<polygon fill="none" stroke="#000000" points="1922,-78 1922,-130 2536,-130 2536,-78 1922,-78"/>
</g>
<g id="clust9" class="cluster">
<title>cluster_DirectivesModule_URIFragmentValidator_providers</title>
<polygon fill="none" stroke="#000000" points="1266,-78 1266,-130 1914,-130 1914,-78 1266,-78"/>
</g>
<g id="clust12" class="cluster">
<title>cluster_DirectivesModule_RequiredIfValidator_providers</title>
<polygon fill="none" stroke="#000000" points="634,-78 634,-130 1258,-130 1258,-78 634,-78"/>
</g>
<g id="clust13" class="cluster">
<title>cluster_DirectivesModule_RequiredDirective_providers</title>
<polygon fill="none" stroke="#000000" points="16,-78 16,-130 626,-130 626,-78 16,-78"/>
</g>
<g id="clust15" class="cluster">
<title>cluster_DirectivesModule_imports</title>
<polygon fill="none" stroke="#000000" points="1588,-143 1588,-195 1716,-195 1716,-143 1588,-143"/>
</g>
<g id="clust16" class="cluster">
<title>cluster_DirectivesModule_exports</title>
<polygon fill="none" stroke="#000000" points="1625,-273 1625,-325 3317,-325 3317,-273 1625,-273"/>
</g>
<!-- EmailValidator -->
<g id="node1" class="node">
<title>EmailValidator</title>
<polygon fill="#ffffb3" stroke="#000000" points="3364.3077,-187 3261.6923,-187 3261.6923,-151 3364.3077,-151 3364.3077,-187"/>
<text text-anchor="middle" x="3313" y="-164.8" font-family="Times,serif" font-size="14.00" fill="#000000">EmailValidator</text>
</g>
<!-- DirectivesModule -->
<g id="node13" class="node">
<title>DirectivesModule</title>
<polygon fill="#8dd3c7" stroke="#000000" points="2610.5772,-252 2607.5772,-256 2586.5772,-256 2583.5772,-252 2493.4228,-252 2493.4228,-216 2610.5772,-216 2610.5772,-252"/>
<text text-anchor="middle" x="2552" y="-229.8" font-family="Times,serif" font-size="14.00" fill="#000000">DirectivesModule</text>
</g>
<!-- EmailValidator&#45;&gt;DirectivesModule -->
<g id="edge1" class="edge">
<title>EmailValidator&#45;&gt;DirectivesModule</title>
<path fill="none" stroke="#000000" d="M3285.375,-187.1061C3285.375,-206.3391 3285.375,-234 3285.375,-234 3285.375,-234 2620.7755,-234 2620.7755,-234"/>
<polygon fill="#000000" stroke="#000000" points="2620.7755,-230.5001 2610.7755,-234 2620.7754,-237.5001 2620.7755,-230.5001"/>
</g>
<!-- MatchValidator -->
<g id="node2" class="node">
<title>MatchValidator</title>
<polygon fill="#ffffb3" stroke="#000000" points="3244.1332,-187 3139.8668,-187 3139.8668,-151 3244.1332,-151 3244.1332,-187"/>
<text text-anchor="middle" x="3192" y="-164.8" font-family="Times,serif" font-size="14.00" fill="#000000">MatchValidator</text>
</g>
<!-- MatchValidator&#45;&gt;DirectivesModule -->
<g id="edge3" class="edge">
<title>MatchValidator&#45;&gt;DirectivesModule</title>
<path fill="none" stroke="#000000" d="M3162.375,-187.2667C3162.375,-205.5552 3162.375,-231 3162.375,-231 3162.375,-231 2620.8024,-231 2620.8024,-231"/>
<polygon fill="#000000" stroke="#000000" points="2620.8024,-227.5001 2610.8024,-231 2620.8023,-234.5001 2620.8024,-227.5001"/>
</g>
<!-- SlugValidator -->
<g id="node3" class="node">
<title>SlugValidator</title>
<polygon fill="#ffffb3" stroke="#000000" points="3121.0425,-187 3026.9575,-187 3026.9575,-151 3121.0425,-151 3121.0425,-187"/>
<text text-anchor="middle" x="3074" y="-164.8" font-family="Times,serif" font-size="14.00" fill="#000000">SlugValidator</text>
</g>
<!-- SlugValidator&#45;&gt;DirectivesModule -->
<g id="edge5" class="edge">
<title>SlugValidator&#45;&gt;DirectivesModule</title>
<path fill="none" stroke="#000000" d="M3042.7323,-187.0225C3042.7323,-204.3734 3042.7323,-228 3042.7323,-228 3042.7323,-228 2620.7063,-228 2620.7063,-228"/>
<polygon fill="#000000" stroke="#000000" points="2620.7064,-224.5001 2610.7063,-228 2620.7063,-231.5001 2620.7064,-224.5001"/>
</g>
<!-- DomainValidator -->
<g id="node4" class="node">
<title>DomainValidator</title>
<polygon fill="#ffffb3" stroke="#000000" points="3008.9706,-187 2895.0294,-187 2895.0294,-151 3008.9706,-151 3008.9706,-187"/>
<text text-anchor="middle" x="2952" y="-164.8" font-family="Times,serif" font-size="14.00" fill="#000000">DomainValidator</text>
</g>
<!-- DomainValidator&#45;&gt;DirectivesModule -->
<g id="edge7" class="edge">
<title>DomainValidator&#45;&gt;DirectivesModule</title>
<path fill="none" stroke="#000000" d="M2909.0177,-187.027C2909.0177,-203.3976 2909.0177,-225 2909.0177,-225 2909.0177,-225 2620.5544,-225 2620.5544,-225"/>
<polygon fill="#000000" stroke="#000000" points="2620.5545,-221.5001 2610.5544,-225 2620.5544,-228.5001 2620.5545,-221.5001"/>
</g>
<!-- URIValidator -->
<g id="node5" class="node">
<title>URIValidator</title>
<polygon fill="#ffffb3" stroke="#000000" points="2877.472,-187 2784.528,-187 2784.528,-151 2877.472,-151 2877.472,-187"/>
<text text-anchor="middle" x="2831" y="-164.8" font-family="Times,serif" font-size="14.00" fill="#000000">URIValidator</text>
</g>
<!-- URIValidator&#45;&gt;DirectivesModule -->
<g id="edge9" class="edge">
<title>URIValidator&#45;&gt;DirectivesModule</title>
<path fill="none" stroke="#000000" d="M2795.875,-187.2396C2795.875,-202.5706 2795.875,-222 2795.875,-222 2795.875,-222 2620.7245,-222 2620.7245,-222"/>
<polygon fill="#000000" stroke="#000000" points="2620.7245,-218.5001 2610.7245,-222 2620.7244,-225.5001 2620.7245,-218.5001"/>
</g>
<!-- FragmentValidator -->
<g id="node6" class="node">
<title>FragmentValidator</title>
<polygon fill="#ffffb3" stroke="#000000" points="2766.0227,-187 2643.9773,-187 2643.9773,-151 2766.0227,-151 2766.0227,-187"/>
<text text-anchor="middle" x="2705" y="-164.8" font-family="Times,serif" font-size="14.00" fill="#000000">FragmentValidator</text>
</g>
<!-- FragmentValidator&#45;&gt;DirectivesModule -->
<g id="edge11" class="edge">
<title>FragmentValidator&#45;&gt;DirectivesModule</title>
<path fill="none" stroke="#000000" d="M2668.375,-187.0511C2668.375,-201.373 2668.375,-219 2668.375,-219 2668.375,-219 2620.8694,-219 2620.8694,-219"/>
<polygon fill="#000000" stroke="#000000" points="2620.8694,-215.5001 2610.8694,-219 2620.8693,-222.5001 2620.8694,-215.5001"/>
</g>
<!-- URIFragmentValidator -->
<g id="node7" class="node">
<title>URIFragmentValidator</title>
<polygon fill="#ffffb3" stroke="#000000" points="2625.1261,-187 2478.8739,-187 2478.8739,-151 2625.1261,-151 2625.1261,-187"/>
<text text-anchor="middle" x="2552" y="-164.8" font-family="Times,serif" font-size="14.00" fill="#000000">URIFragmentValidator</text>
</g>
<!-- URIFragmentValidator&#45;&gt;DirectivesModule -->
<g id="edge13" class="edge">
<title>URIFragmentValidator&#45;&gt;DirectivesModule</title>
<path fill="none" stroke="#000000" d="M2552,-187.1061C2552,-187.1061 2552,-205.991 2552,-205.991"/>
<polygon fill="#000000" stroke="#000000" points="2548.5001,-205.9909 2552,-215.991 2555.5001,-205.991 2548.5001,-205.9909"/>
</g>
<!-- HighlightDirective -->
<g id="node8" class="node">
<title>HighlightDirective</title>
<polygon fill="#ffffb3" stroke="#000000" points="2460.7521,-187 2339.2479,-187 2339.2479,-151 2460.7521,-151 2460.7521,-187"/>
<text text-anchor="middle" x="2400" y="-164.8" font-family="Times,serif" font-size="14.00" fill="#000000">HighlightDirective</text>
</g>
<!-- HighlightDirective&#45;&gt;DirectivesModule -->
<g id="edge15" class="edge">
<title>HighlightDirective&#45;&gt;DirectivesModule</title>
<path fill="none" stroke="#000000" d="M2429.9065,-187.0511C2429.9065,-201.373 2429.9065,-219 2429.9065,-219 2429.9065,-219 2483.4565,-219 2483.4565,-219"/>
<polygon fill="#000000" stroke="#000000" points="2483.4566,-222.5001 2493.4565,-219 2483.4565,-215.5001 2483.4566,-222.5001"/>
</g>
<!-- InputValidationDirective -->
<g id="node9" class="node">
<title>InputValidationDirective</title>
<polygon fill="#ffffb3" stroke="#000000" points="2321.2324,-187 2164.7676,-187 2164.7676,-151 2321.2324,-151 2321.2324,-187"/>
<text text-anchor="middle" x="2243" y="-164.8" font-family="Times,serif" font-size="14.00" fill="#000000">InputValidationDirective</text>
</g>
<!-- InputValidationDirective&#45;&gt;DirectivesModule -->
<g id="edge16" class="edge">
<title>InputValidationDirective&#45;&gt;DirectivesModule</title>
<path fill="none" stroke="#000000" d="M2288.3701,-187.2396C2288.3701,-202.5706 2288.3701,-222 2288.3701,-222 2288.3701,-222 2483.1644,-222 2483.1644,-222"/>
<polygon fill="#000000" stroke="#000000" points="2483.1645,-225.5001 2493.1644,-222 2483.1644,-218.5001 2483.1645,-225.5001"/>
</g>
<!-- RequiredIfValidator -->
<g id="node10" class="node">
<title>RequiredIfValidator</title>
<polygon fill="#ffffb3" stroke="#000000" points="2146.5073,-187 2017.4927,-187 2017.4927,-151 2146.5073,-151 2146.5073,-187"/>
<text text-anchor="middle" x="2082" y="-164.8" font-family="Times,serif" font-size="14.00" fill="#000000">RequiredIfValidator</text>
</g>
<!-- RequiredIfValidator&#45;&gt;DirectivesModule -->
<g id="edge17" class="edge">
<title>RequiredIfValidator&#45;&gt;DirectivesModule</title>
<path fill="none" stroke="#000000" d="M2111.8186,-187.027C2111.8186,-203.3976 2111.8186,-225 2111.8186,-225 2111.8186,-225 2483.0919,-225 2483.0919,-225"/>
<polygon fill="#000000" stroke="#000000" points="2483.092,-228.5001 2493.0919,-225 2483.0919,-221.5001 2483.092,-228.5001"/>
</g>
<!-- RequiredDirective -->
<g id="node11" class="node">
<title>RequiredDirective</title>
<polygon fill="#ffffb3" stroke="#000000" points="1999.9005,-187 1880.0995,-187 1880.0995,-151 1999.9005,-151 1999.9005,-187"/>
<text text-anchor="middle" x="1940" y="-164.8" font-family="Times,serif" font-size="14.00" fill="#000000">RequiredDirective</text>
</g>
<!-- RequiredDirective&#45;&gt;DirectivesModule -->
<g id="edge19" class="edge">
<title>RequiredDirective&#45;&gt;DirectivesModule</title>
<path fill="none" stroke="#000000" d="M1962.5984,-187.0225C1962.5984,-204.3734 1962.5984,-228 1962.5984,-228 1962.5984,-228 2483.3311,-228 2483.3311,-228"/>
<polygon fill="#000000" stroke="#000000" points="2483.3311,-231.5001 2493.3311,-228 2483.3311,-224.5001 2483.3311,-231.5001"/>
</g>
<!-- GrayedOutDirective -->
<g id="node12" class="node">
<title>GrayedOutDirective</title>
<polygon fill="#ffffb3" stroke="#000000" points="1862.2767,-187 1731.7233,-187 1731.7233,-151 1862.2767,-151 1862.2767,-187"/>
<text text-anchor="middle" x="1797" y="-164.8" font-family="Times,serif" font-size="14.00" fill="#000000">GrayedOutDirective</text>
</g>
<!-- GrayedOutDirective&#45;&gt;DirectivesModule -->
<g id="edge21" class="edge">
<title>GrayedOutDirective&#45;&gt;DirectivesModule</title>
<path fill="none" stroke="#000000" d="M1823.3442,-187.2667C1823.3442,-205.5552 1823.3442,-231 1823.3442,-231 1823.3442,-231 2483.2958,-231 2483.2958,-231"/>
<polygon fill="#000000" stroke="#000000" points="2483.2959,-234.5001 2493.2958,-231 2483.2958,-227.5001 2483.2959,-234.5001"/>
</g>
<!-- EmailValidator  -->
<g id="node24" class="node">
<title>EmailValidator </title>
<polygon fill="#fb8072" stroke="#000000" points="3308.8074,-317 3203.1926,-317 3203.1926,-281 3308.8074,-281 3308.8074,-317"/>
<text text-anchor="middle" x="3256" y="-294.8" font-family="Times,serif" font-size="14.00" fill="#000000">EmailValidator </text>
</g>
<!-- DirectivesModule&#45;&gt;EmailValidator  -->
<g id="edge23" class="edge">
<title>DirectivesModule&#45;&gt;EmailValidator </title>
<path fill="none" stroke="#000000" stroke-dasharray="5,2" d="M2610.7273,-237C2774.3932,-237 3223.7064,-237 3223.7064,-237 3223.7064,-237 3223.7064,-270.7333 3223.7064,-270.7333"/>
<polygon fill="#000000" stroke="#000000" points="3220.2064,-270.7333 3223.7064,-280.7333 3227.2064,-270.7333 3220.2064,-270.7333"/>
</g>
<!-- MatchValidator  -->
<g id="node25" class="node">
<title>MatchValidator </title>
<polygon fill="#fb8072" stroke="#000000" points="3185.1327,-317 3076.8673,-317 3076.8673,-281 3185.1327,-281 3185.1327,-317"/>
<text text-anchor="middle" x="3131" y="-294.8" font-family="Times,serif" font-size="14.00" fill="#000000">MatchValidator </text>
</g>
<!-- DirectivesModule&#45;&gt;MatchValidator  -->
<g id="edge24" class="edge">
<title>DirectivesModule&#45;&gt;MatchValidator </title>
<path fill="none" stroke="#000000" stroke-dasharray="5,2" d="M2610.5495,-240C2751.687,-240 3099.1022,-240 3099.1022,-240 3099.1022,-240 3099.1022,-270.9775 3099.1022,-270.9775"/>
<polygon fill="#000000" stroke="#000000" points="3095.6023,-270.9774 3099.1022,-280.9775 3102.6023,-270.9775 3095.6023,-270.9774"/>
</g>
<!-- DomainValidator  -->
<g id="node26" class="node">
<title>DomainValidator </title>
<polygon fill="#fb8072" stroke="#000000" points="3058.9715,-317 2941.0285,-317 2941.0285,-281 3058.9715,-281 3058.9715,-317"/>
<text text-anchor="middle" x="3000" y="-294.8" font-family="Times,serif" font-size="14.00" fill="#000000">DomainValidator </text>
</g>
<!-- DirectivesModule&#45;&gt;DomainValidator  -->
<g id="edge25" class="edge">
<title>DirectivesModule&#45;&gt;DomainValidator </title>
<path fill="none" stroke="#000000" stroke-dasharray="5,2" d="M2610.8337,-243C2727.0969,-243 2975.125,-243 2975.125,-243 2975.125,-243 2975.125,-270.973 2975.125,-270.973"/>
<polygon fill="#000000" stroke="#000000" points="2971.6251,-270.973 2975.125,-280.973 2978.6251,-270.973 2971.6251,-270.973"/>
</g>
<!-- SlugValidator  -->
<g id="node27" class="node">
<title>SlugValidator </title>
<polygon fill="#fb8072" stroke="#000000" points="2923.0414,-317 2824.9586,-317 2824.9586,-281 2923.0414,-281 2923.0414,-317"/>
<text text-anchor="middle" x="2874" y="-294.8" font-family="Times,serif" font-size="14.00" fill="#000000">SlugValidator </text>
</g>
<!-- DirectivesModule&#45;&gt;SlugValidator  -->
<g id="edge26" class="edge">
<title>DirectivesModule&#45;&gt;SlugValidator </title>
<path fill="none" stroke="#000000" stroke-dasharray="5,2" d="M2610.7617,-246C2697.9062,-246 2851.2327,-246 2851.2327,-246 2851.2327,-246 2851.2327,-270.7604 2851.2327,-270.7604"/>
<polygon fill="#000000" stroke="#000000" points="2847.7327,-270.7604 2851.2327,-280.7604 2854.7327,-270.7604 2847.7327,-270.7604"/>
</g>
<!-- URIValidator  -->
<g id="node28" class="node">
<title>URIValidator </title>
<polygon fill="#fb8072" stroke="#000000" points="2807.4732,-317 2710.5268,-317 2710.5268,-281 2807.4732,-281 2807.4732,-317"/>
<text text-anchor="middle" x="2759" y="-294.8" font-family="Times,serif" font-size="14.00" fill="#000000">URIValidator </text>
</g>
<!-- DirectivesModule&#45;&gt;URIValidator  -->
<g id="edge27" class="edge">
<title>DirectivesModule&#45;&gt;URIValidator </title>
<path fill="none" stroke="#000000" stroke-dasharray="5,2" d="M2610.7577,-249C2665.4282,-249 2738.5125,-249 2738.5125,-249 2738.5125,-249 2738.5125,-270.9489 2738.5125,-270.9489"/>
<polygon fill="#000000" stroke="#000000" points="2735.0125,-270.9488 2738.5125,-280.9489 2742.0125,-270.9489 2735.0125,-270.9488"/>
</g>
<!-- FragmentValidator  -->
<g id="node29" class="node">
<title>FragmentValidator </title>
<polygon fill="#fb8072" stroke="#000000" points="2693.0218,-317 2566.9782,-317 2566.9782,-281 2693.0218,-281 2693.0218,-317"/>
<text text-anchor="middle" x="2630" y="-294.8" font-family="Times,serif" font-size="14.00" fill="#000000">FragmentValidator </text>
</g>
<!-- DirectivesModule&#45;&gt;FragmentValidator  -->
<g id="edge28" class="edge">
<title>DirectivesModule&#45;&gt;FragmentValidator </title>
<path fill="none" stroke="#000000" stroke-dasharray="5,2" d="M2588.7639,-252.1061C2588.7639,-252.1061 2588.7639,-270.991 2588.7639,-270.991"/>
<polygon fill="#000000" stroke="#000000" points="2585.2639,-270.9909 2588.7639,-280.991 2592.2639,-270.991 2585.2639,-270.9909"/>
</g>
<!-- URIFragmentValidator  -->
<g id="node30" class="node">
<title>URIFragmentValidator </title>
<polygon fill="#fb8072" stroke="#000000" points="2549.1257,-317 2398.8743,-317 2398.8743,-281 2549.1257,-281 2549.1257,-317"/>
<text text-anchor="middle" x="2474" y="-294.8" font-family="Times,serif" font-size="14.00" fill="#000000">URIFragmentValidator </text>
</g>
<!-- DirectivesModule&#45;&gt;URIFragmentValidator  -->
<g id="edge29" class="edge">
<title>DirectivesModule&#45;&gt;URIFragmentValidator </title>
<path fill="none" stroke="#000000" stroke-dasharray="5,2" d="M2521.2621,-252.1061C2521.2621,-252.1061 2521.2621,-270.991 2521.2621,-270.991"/>
<polygon fill="#000000" stroke="#000000" points="2517.7622,-270.9909 2521.2621,-280.991 2524.7622,-270.991 2517.7622,-270.9909"/>
</g>
<!-- HighlightDirective  -->
<g id="node31" class="node">
<title>HighlightDirective </title>
<polygon fill="#fb8072" stroke="#000000" points="2380.7521,-317 2255.2479,-317 2255.2479,-281 2380.7521,-281 2380.7521,-317"/>
<text text-anchor="middle" x="2318" y="-294.8" font-family="Times,serif" font-size="14.00" fill="#000000">HighlightDirective </text>
</g>
<!-- DirectivesModule&#45;&gt;HighlightDirective  -->
<g id="edge30" class="edge">
<title>DirectivesModule&#45;&gt;HighlightDirective </title>
<path fill="none" stroke="#000000" stroke-dasharray="5,2" d="M2493.3122,-249C2436.8118,-249 2359.875,-249 2359.875,-249 2359.875,-249 2359.875,-270.9489 2359.875,-270.9489"/>
<polygon fill="#000000" stroke="#000000" points="2356.3751,-270.9488 2359.875,-280.9489 2363.3751,-270.9489 2356.3751,-270.9488"/>
</g>
<!-- InputValidationDirective  -->
<g id="node32" class="node">
<title>InputValidationDirective </title>
<polygon fill="#fb8072" stroke="#000000" points="2237.2324,-317 2076.7676,-317 2076.7676,-281 2237.2324,-281 2237.2324,-317"/>
<text text-anchor="middle" x="2157" y="-294.8" font-family="Times,serif" font-size="14.00" fill="#000000">InputValidationDirective </text>
</g>
<!-- DirectivesModule&#45;&gt;InputValidationDirective  -->
<g id="edge31" class="edge">
<title>DirectivesModule&#45;&gt;InputValidationDirective </title>
<path fill="none" stroke="#000000" stroke-dasharray="5,2" d="M2493.2296,-246C2393.2729,-246 2200.875,-246 2200.875,-246 2200.875,-246 2200.875,-270.7604 2200.875,-270.7604"/>
<polygon fill="#000000" stroke="#000000" points="2197.3751,-270.7604 2200.875,-280.7604 2204.3751,-270.7604 2197.3751,-270.7604"/>
</g>
<!-- RequiredIfValidator  -->
<g id="node33" class="node">
<title>RequiredIfValidator </title>
<polygon fill="#fb8072" stroke="#000000" points="2058.5064,-317 1925.4936,-317 1925.4936,-281 2058.5064,-281 2058.5064,-317"/>
<text text-anchor="middle" x="1992" y="-294.8" font-family="Times,serif" font-size="14.00" fill="#000000">RequiredIfValidator </text>
</g>
<!-- DirectivesModule&#45;&gt;RequiredIfValidator  -->
<g id="edge32" class="edge">
<title>DirectivesModule&#45;&gt;RequiredIfValidator </title>
<path fill="none" stroke="#000000" stroke-dasharray="5,2" d="M2493.0233,-243C2357.9793,-243 2037.875,-243 2037.875,-243 2037.875,-243 2037.875,-270.973 2037.875,-270.973"/>
<polygon fill="#000000" stroke="#000000" points="2034.3751,-270.973 2037.875,-280.973 2041.3751,-270.973 2034.3751,-270.973"/>
</g>
<!-- RequiredDirective  -->
<g id="node34" class="node">
<title>RequiredDirective </title>
<polygon fill="#fb8072" stroke="#000000" points="1907.3998,-317 1784.6002,-317 1784.6002,-281 1907.3998,-281 1907.3998,-317"/>
<text text-anchor="middle" x="1846" y="-294.8" font-family="Times,serif" font-size="14.00" fill="#000000">RequiredDirective </text>
</g>
<!-- DirectivesModule&#45;&gt;RequiredDirective  -->
<g id="edge33" class="edge">
<title>DirectivesModule&#45;&gt;RequiredDirective </title>
<path fill="none" stroke="#000000" stroke-dasharray="5,2" d="M2493.3065,-240C2332.0034,-240 1893.875,-240 1893.875,-240 1893.875,-240 1893.875,-270.9775 1893.875,-270.9775"/>
<polygon fill="#000000" stroke="#000000" points="1890.3751,-270.9774 1893.875,-280.9775 1897.3751,-270.9775 1890.3751,-270.9774"/>
</g>
<!-- GrayedOutDirective  -->
<g id="node35" class="node">
<title>GrayedOutDirective </title>
<polygon fill="#fb8072" stroke="#000000" points="1766.7766,-317 1633.2234,-317 1633.2234,-281 1766.7766,-281 1766.7766,-317"/>
<text text-anchor="middle" x="1700" y="-294.8" font-family="Times,serif" font-size="14.00" fill="#000000">GrayedOutDirective </text>
</g>
<!-- DirectivesModule&#45;&gt;GrayedOutDirective  -->
<g id="edge34" class="edge">
<title>DirectivesModule&#45;&gt;GrayedOutDirective </title>
<path fill="none" stroke="#000000" stroke-dasharray="5,2" d="M2493.3063,-237C2308.2786,-237 1749.375,-237 1749.375,-237 1749.375,-237 1749.375,-270.7333 1749.375,-270.7333"/>
<polygon fill="#000000" stroke="#000000" points="1745.8751,-270.7333 1749.375,-280.7333 1752.8751,-270.7333 1745.8751,-270.7333"/>
</g>
<!-- { provide: NG_VALIDATORS, useExisting: EmailValidator, multi: &#160;} -->
<g id="node14" class="node">
<title>{ provide: NG_VALIDATORS, useExisting: EmailValidator, multi: &#160;}</title>
<ellipse fill="#fdb462" stroke="#000000" cx="5211" cy="-104" rx="285.0409" ry="18"/>
<text text-anchor="middle" x="5211" y="-99.8" font-family="Times,serif" font-size="14.00" fill="#000000">{ provide: NG_VALIDATORS, useExisting: EmailValidator, multi: &#160;}</text>
</g>
<!-- { provide: NG_VALIDATORS, useExisting: EmailValidator, multi: &#160;}&#45;&gt;EmailValidator -->
<g id="edge2" class="edge">
<title>{ provide: NG_VALIDATORS, useExisting: EmailValidator, multi: &#160;}&#45;&gt;EmailValidator</title>
<path fill="none" stroke="#000000" d="M5211,-122.1061C5211,-141.3391 5211,-169 5211,-169 5211,-169 3374.258,-169 3374.258,-169"/>
<polygon fill="#000000" stroke="#000000" points="3374.258,-165.5001 3364.258,-169 3374.258,-172.5001 3374.258,-165.5001"/>
</g>
<!-- { provide: NG_VALIDATORS, useExisting: MatchValidator, multi: &#160;} -->
<g id="node15" class="node">
<title>{ provide: NG_VALIDATORS, useExisting: MatchValidator, multi: &#160;}</title>
<ellipse fill="#fdb462" stroke="#000000" cx="4615" cy="-104" rx="286.749" ry="18"/>
<text text-anchor="middle" x="4615" y="-99.8" font-family="Times,serif" font-size="14.00" fill="#000000">{ provide: NG_VALIDATORS, useExisting: MatchValidator, multi: &#160;}</text>
</g>
<!-- { provide: NG_VALIDATORS, useExisting: MatchValidator, multi: &#160;}&#45;&gt;MatchValidator -->
<g id="edge4" class="edge">
<title>{ provide: NG_VALIDATORS, useExisting: MatchValidator, multi: &#160;}&#45;&gt;MatchValidator</title>
<path fill="none" stroke="#000000" d="M4615,-122.1505C4615,-134.2708 4615,-148 4615,-148 4615,-148 3209.4388,-148 3209.4388,-148 3209.4388,-148 3209.4388,-148.292 3209.4388,-148.292"/>
<polygon fill="#000000" stroke="#000000" points="3205.9391,-140.9198 3209.4388,-150.92 3212.9391,-140.9201 3205.9391,-140.9198"/>
</g>
<!-- { provide: NG_VALIDATORS, useExisting: SlugValidator, multi: &#160;} -->
<g id="node16" class="node">
<title>{ provide: NG_VALIDATORS, useExisting: SlugValidator, multi: &#160;}</title>
<ellipse fill="#fdb462" stroke="#000000" cx="4024" cy="-104" rx="279.8276" ry="18"/>
<text text-anchor="middle" x="4024" y="-99.8" font-family="Times,serif" font-size="14.00" fill="#000000">{ provide: NG_VALIDATORS, useExisting: SlugValidator, multi: &#160;}</text>
</g>
<!-- { provide: NG_VALIDATORS, useExisting: SlugValidator, multi: &#160;}&#45;&gt;SlugValidator -->
<g id="edge6" class="edge">
<title>{ provide: NG_VALIDATORS, useExisting: SlugValidator, multi: &#160;}&#45;&gt;SlugValidator</title>
<path fill="none" stroke="#000000" d="M4024,-122.1274C4024,-132.7109 4024,-144 4024,-144 4024,-144 3115.4259,-144 3115.4259,-144 3115.4259,-144 3115.4259,-144.6831 3115.4259,-144.6831"/>
<polygon fill="#000000" stroke="#000000" points="3111.9261,-140.8313 3115.4259,-150.8314 3118.9261,-140.8314 3111.9261,-140.8313"/>
</g>
<!-- { provide: NG_VALIDATORS, useExisting: DomainValidator, multi: &#160;} -->
<g id="node17" class="node">
<title>{ provide: NG_VALIDATORS, useExisting: DomainValidator, multi: &#160;}</title>
<ellipse fill="#fdb462" stroke="#000000" cx="3427" cy="-104" rx="293.1313" ry="18"/>
<text text-anchor="middle" x="3427" y="-99.8" font-family="Times,serif" font-size="14.00" fill="#000000">{ provide: NG_VALIDATORS, useExisting: DomainValidator, multi: &#160;}</text>
</g>
<!-- { provide: NG_VALIDATORS, useExisting: DomainValidator, multi: &#160;}&#45;&gt;DomainValidator -->
<g id="edge8" class="edge">
<title>{ provide: NG_VALIDATORS, useExisting: DomainValidator, multi: &#160;}&#45;&gt;DomainValidator</title>
<path fill="none" stroke="#000000" d="M3174.5612,-113.3367C3174.5612,-124.2976 3174.5612,-141 3174.5612,-141 3174.5612,-141 2952,-141 2952,-141 2952,-141 2952,-141.9793 2952,-141.9793"/>
<polygon fill="#000000" stroke="#000000" points="2948.5001,-140.793 2952,-150.793 2955.5001,-140.7931 2948.5001,-140.793"/>
</g>
<!-- { provide: NG_VALIDATORS, useExisting: URIValidator, multi: &#160;} -->
<g id="node18" class="node">
<title>{ provide: NG_VALIDATORS, useExisting: URIValidator, multi: &#160;}</title>
<ellipse fill="#fdb462" stroke="#000000" cx="2831" cy="-104" rx="278.6624" ry="18"/>
<text text-anchor="middle" x="2831" y="-99.8" font-family="Times,serif" font-size="14.00" fill="#000000">{ provide: NG_VALIDATORS, useExisting: URIValidator, multi: &#160;}</text>
</g>
<!-- { provide: NG_VALIDATORS, useExisting: URIValidator, multi: &#160;}&#45;&gt;URIValidator -->
<g id="edge10" class="edge">
<title>{ provide: NG_VALIDATORS, useExisting: URIValidator, multi: &#160;}&#45;&gt;URIValidator</title>
<path fill="none" stroke="#000000" d="M2831,-122.1061C2831,-122.1061 2831,-140.991 2831,-140.991"/>
<polygon fill="#000000" stroke="#000000" points="2827.5001,-140.9909 2831,-150.991 2834.5001,-140.991 2827.5001,-140.9909"/>
</g>
<!-- { provide: NG_VALIDATORS, useExisting: FragmentValidator, multi: &#160;} -->
<g id="node19" class="node">
<title>{ provide: NG_VALIDATORS, useExisting: FragmentValidator, multi: &#160;}</title>
<ellipse fill="#fdb462" stroke="#000000" cx="2229" cy="-104" rx="298.9282" ry="18"/>
<text text-anchor="middle" x="2229" y="-99.8" font-family="Times,serif" font-size="14.00" fill="#000000">{ provide: NG_VALIDATORS, useExisting: FragmentValidator, multi: &#160;}</text>
</g>
<!-- { provide: NG_VALIDATORS, useExisting: FragmentValidator, multi: &#160;}&#45;&gt;FragmentValidator -->
<g id="edge12" class="edge">
<title>{ provide: NG_VALIDATORS, useExisting: FragmentValidator, multi: &#160;}&#45;&gt;FragmentValidator</title>
<path fill="none" stroke="#000000" d="M2511.5385,-110.0116C2511.5385,-116.5254 2511.5385,-126 2511.5385,-126 2511.5385,-126 2705,-126 2705,-126 2705,-126 2705,-140.5146 2705,-140.5146"/>
<polygon fill="#000000" stroke="#000000" points="2701.5001,-140.5145 2705,-150.5146 2708.5001,-140.5146 2701.5001,-140.5145"/>
</g>
<!-- { provide: NG_VALIDATORS, useExisting: URIFragmentValidator, multi: &#160;} -->
<g id="node20" class="node">
<title>{ provide: NG_VALIDATORS, useExisting: URIFragmentValidator, multi: &#160;}</title>
<ellipse fill="#fdb462" stroke="#000000" cx="1590" cy="-104" rx="315.681" ry="18"/>
<text text-anchor="middle" x="1590" y="-99.8" font-family="Times,serif" font-size="14.00" fill="#000000">{ provide: NG_VALIDATORS, useExisting: URIFragmentValidator, multi: &#160;}</text>
</g>
<!-- { provide: NG_VALIDATORS, useExisting: URIFragmentValidator, multi: &#160;}&#45;&gt;URIFragmentValidator -->
<g id="edge14" class="edge">
<title>{ provide: NG_VALIDATORS, useExisting: URIFragmentValidator, multi: &#160;}&#45;&gt;URIFragmentValidator</title>
<path fill="none" stroke="#000000" d="M1897.1603,-108.5289C1897.1603,-115.978 1897.1603,-130 1897.1603,-130 1897.1603,-130 2495.1128,-130 2495.1128,-130 2495.1128,-130 2495.1128,-140.8701 2495.1128,-140.8701"/>
<polygon fill="#000000" stroke="#000000" points="2491.6129,-140.8701 2495.1128,-150.8701 2498.6129,-140.8701 2491.6129,-140.8701"/>
</g>
<!-- { provide: NG_VALIDATORS, useExisting: RequiredIfValidator, multi: &#160;} -->
<g id="node21" class="node">
<title>{ provide: NG_VALIDATORS, useExisting: RequiredIfValidator, multi: &#160;}</title>
<ellipse fill="#fdb462" stroke="#000000" cx="946" cy="-104" rx="303.5641" ry="18"/>
<text text-anchor="middle" x="946" y="-99.8" font-family="Times,serif" font-size="14.00" fill="#000000">{ provide: NG_VALIDATORS, useExisting: RequiredIfValidator, multi: &#160;}</text>
</g>
<!-- { provide: NG_VALIDATORS, useExisting: RequiredIfValidator, multi: &#160;}&#45;&gt;RequiredIfValidator -->
<g id="edge18" class="edge">
<title>{ provide: NG_VALIDATORS, useExisting: RequiredIfValidator, multi: &#160;}&#45;&gt;RequiredIfValidator</title>
<path fill="none" stroke="#000000" d="M946,-122.2015C946,-128.028 946,-133 946,-133 946,-133 2082,-133 2082,-133 2082,-133 2082,-140.5782 2082,-140.5782"/>
<polygon fill="#000000" stroke="#000000" points="2078.5001,-140.5781 2082,-150.5782 2085.5001,-140.5782 2078.5001,-140.5781"/>
</g>
<!-- { provide: NG_VALIDATORS, useExisting: RequiredDirective, multi: &#160;} -->
<g id="node22" class="node">
<title>{ provide: NG_VALIDATORS, useExisting: RequiredDirective, multi: &#160;}</title>
<ellipse fill="#fdb462" stroke="#000000" cx="321" cy="-104" rx="296.6213" ry="18"/>
<text text-anchor="middle" x="321" y="-99.8" font-family="Times,serif" font-size="14.00" fill="#000000">{ provide: NG_VALIDATORS, useExisting: RequiredDirective, multi: &#160;}</text>
</g>
<!-- { provide: NG_VALIDATORS, useExisting: RequiredDirective, multi: &#160;}&#45;&gt;RequiredDirective -->
<g id="edge20" class="edge">
<title>{ provide: NG_VALIDATORS, useExisting: RequiredDirective, multi: &#160;}&#45;&gt;RequiredDirective</title>
<path fill="none" stroke="#000000" d="M321,-122.0449C321,-129.749 321,-137 321,-137 321,-137 1888.7302,-137 1888.7302,-137 1888.7302,-137 1888.7302,-140.7566 1888.7302,-140.7566"/>
<polygon fill="#000000" stroke="#000000" points="1885.2303,-140.7566 1888.7302,-150.7566 1892.2303,-140.7566 1885.2303,-140.7566"/>
</g>
<!-- CommonModule -->
<g id="node23" class="node">
<title>CommonModule</title>
<polygon fill="#8dd3c7" stroke="#000000" points="1707.6681,-187 1704.6681,-191 1683.6681,-191 1680.6681,-187 1596.3319,-187 1596.3319,-151 1707.6681,-151 1707.6681,-187"/>
<text text-anchor="middle" x="1652" y="-164.8" font-family="Times,serif" font-size="14.00" fill="#000000">CommonModule</text>
</g>
<!-- CommonModule&#45;&gt;DirectivesModule -->
<g id="edge22" class="edge">
<title>CommonModule&#45;&gt;DirectivesModule</title>
<path fill="none" stroke="#000000" d="M1670.4728,-187.1061C1670.4728,-206.3391 1670.4728,-234 1670.4728,-234 1670.4728,-234 2483.1352,-234 2483.1352,-234"/>
<polygon fill="#000000" stroke="#000000" points="2483.1352,-237.5001 2493.1352,-234 2483.1352,-230.5001 2483.1352,-237.5001"/>
</g>
</g>
</svg>
