<?xml version="1.0" encoding="UTF-8" standalone="no"?>
<!DOCTYPE svg PUBLIC "-//W3C//DTD SVG 1.1//EN"
 "http://www.w3.org/Graphics/SVG/1.1/DTD/svg11.dtd">
<!-- Generated by graphviz version 2.40.1 (20161225.0304)
 -->
<!-- Title: dependencies Pages: 1 -->
<svg width="1592pt" height="349pt"
 viewBox="0.00 0.00 1592.00 349.00" xmlns="http://www.w3.org/2000/svg" xmlns:xlink="http://www.w3.org/1999/xlink">
<g id="graph0" class="graph" transform="scale(1 1) rotate(0) translate(4 345)">
<title>dependencies</title>
<polygon fill="#ffffff" stroke="transparent" points="-4,4 -4,-345 1588,-345 1588,4 -4,4"/>
<text text-anchor="start" x="771.0091" y="-42.4" font-family="sans-serif" font-weight="bold" font-size="14.00" fill="#000000">Legend</text>
<polygon fill="#ffffb3" stroke="transparent" points="558,-10 558,-30 578,-30 578,-10 558,-10"/>
<text text-anchor="start" x="581.629" y="-15.4" font-family="sans-serif" font-size="14.00" fill="#000000"> &#160;Declarations</text>
<polygon fill="#8dd3c7" stroke="transparent" points="671,-10 671,-30 691,-30 691,-10 671,-10"/>
<text text-anchor="start" x="694.7251" y="-15.4" font-family="sans-serif" font-size="14.00" fill="#000000"> &#160;Module</text>
<polygon fill="#80b1d3" stroke="transparent" points="757,-10 757,-30 777,-30 777,-10 757,-10"/>
<text text-anchor="start" x="780.7812" y="-15.4" font-family="sans-serif" font-size="14.00" fill="#000000"> &#160;Bootstrap</text>
<polygon fill="#fdb462" stroke="transparent" points="854,-10 854,-30 874,-30 874,-10 854,-10"/>
<text text-anchor="start" x="877.6732" y="-15.4" font-family="sans-serif" font-size="14.00" fill="#000000"> &#160;Providers</text>
<polygon fill="#fb8072" stroke="transparent" points="950,-10 950,-30 970,-30 970,-10 950,-10"/>
<text text-anchor="start" x="973.7258" y="-15.4" font-family="sans-serif" font-size="14.00" fill="#000000"> &#160;Exports</text>
<g id="clust1" class="cluster">
<title>cluster_DirectivesModule</title>
<polygon fill="none" stroke="#000000" stroke-dasharray="1,5" points="8,-70 8,-333 1576,-333 1576,-70 8,-70"/>
</g>
<g id="clust2" class="cluster">
<title>cluster_DirectivesModule_declarations</title>
<polygon fill="none" stroke="#000000" points="35,-143 35,-195 1546,-195 1546,-143 35,-143"/>
</g>
<g id="clust3" class="cluster">
<title>cluster_DirectivesModule_DomainValidator_providers</title>
<polygon fill="none" stroke="#000000" points="490,-78 490,-130 636,-130 636,-78 490,-78"/>
</g>
<g id="clust15" class="cluster">
<title>cluster_DirectivesModule_exports</title>
<polygon fill="none" stroke="#000000" points="16,-273 16,-325 1568,-325 1568,-273 16,-273"/>
</g>
<!-- DomainValidator -->
<g id="node1" class="node">
<title>DomainValidator</title>
<polygon fill="#ffffb3" stroke="#000000" points="1537.9706,-187 1424.0294,-187 1424.0294,-151 1537.9706,-151 1537.9706,-187"/>
<text text-anchor="middle" x="1481" y="-164.8" font-family="Times,serif" font-size="14.00" fill="#000000">DomainValidator</text>
</g>
<!-- DirectivesModule -->
<g id="node12" class="node">
<title>DirectivesModule</title>
<polygon fill="#8dd3c7" stroke="#000000" points="838.5772,-252 835.5772,-256 814.5772,-256 811.5772,-252 721.4228,-252 721.4228,-216 838.5772,-216 838.5772,-252"/>
<text text-anchor="middle" x="780" y="-229.8" font-family="Times,serif" font-size="14.00" fill="#000000">DirectivesModule</text>
</g>
<!-- DomainValidator&#45;&gt;DirectivesModule -->
<g id="edge1" class="edge">
<title>DomainValidator&#45;&gt;DirectivesModule</title>
<path fill="none" stroke="#000000" d="M1433.1397,-187.1686C1433.1397,-206.0898 1433.1397,-233 1433.1397,-233 1433.1397,-233 848.8249,-233 848.8249,-233"/>
<polygon fill="#000000" stroke="#000000" points="848.8249,-229.5001 838.8249,-233 848.8248,-236.5001 848.8249,-229.5001"/>
</g>
<!-- EmailValidator -->
<g id="node2" class="node">
<title>EmailValidator</title>
<polygon fill="#ffffb3" stroke="#000000" points="1406.3077,-187 1303.6923,-187 1303.6923,-151 1406.3077,-151 1406.3077,-187"/>
<text text-anchor="middle" x="1355" y="-164.8" font-family="Times,serif" font-size="14.00" fill="#000000">EmailValidator</text>
</g>
<!-- EmailValidator&#45;&gt;DirectivesModule -->
<g id="edge3" class="edge">
<title>EmailValidator&#45;&gt;DirectivesModule</title>
<path fill="none" stroke="#000000" d="M1310.9714,-187.302C1310.9714,-205.2699 1310.9714,-230 1310.9714,-230 1310.9714,-230 848.5968,-230 848.5968,-230"/>
<polygon fill="#000000" stroke="#000000" points="848.5968,-226.5001 838.5968,-230 848.5968,-233.5001 848.5968,-226.5001"/>
</g>
<!-- FragmentValidator -->
<g id="node3" class="node">
<title>FragmentValidator</title>
<polygon fill="#ffffb3" stroke="#000000" points="1286.0227,-187 1163.9773,-187 1163.9773,-151 1286.0227,-151 1286.0227,-187"/>
<text text-anchor="middle" x="1225" y="-164.8" font-family="Times,serif" font-size="14.00" fill="#000000">FragmentValidator</text>
</g>
<!-- FragmentValidator&#45;&gt;DirectivesModule -->
<g id="edge5" class="edge">
<title>FragmentValidator&#45;&gt;DirectivesModule</title>
<path fill="none" stroke="#000000" d="M1168.8641,-187.0352C1168.8641,-203.7344 1168.8641,-226 1168.8641,-226 1168.8641,-226 848.6379,-226 848.6379,-226"/>
<polygon fill="#000000" stroke="#000000" points="848.638,-222.5001 838.6379,-226 848.6379,-229.5001 848.638,-222.5001"/>
</g>
<!-- GrayedOutDirective -->
<g id="node4" class="node">
<title>GrayedOutDirective</title>
<polygon fill="#ffffb3" stroke="#000000" points="1146.2767,-187 1015.7233,-187 1015.7233,-151 1146.2767,-151 1146.2767,-187"/>
<text text-anchor="middle" x="1081" y="-164.8" font-family="Times,serif" font-size="14.00" fill="#000000">GrayedOutDirective</text>
</g>
<!-- GrayedOutDirective&#45;&gt;DirectivesModule -->
<g id="edge7" class="edge">
<title>GrayedOutDirective&#45;&gt;DirectivesModule</title>
<path fill="none" stroke="#000000" d="M1104.7961,-187.2819C1104.7961,-202.9478 1104.7961,-223 1104.7961,-223 1104.7961,-223 848.8181,-223 848.8181,-223"/>
<polygon fill="#000000" stroke="#000000" points="848.8182,-219.5001 838.8181,-223 848.8181,-226.5001 848.8182,-219.5001"/>
</g>
<!-- HighlightDirective -->
<g id="node5" class="node">
<title>HighlightDirective</title>
<polygon fill="#ffffb3" stroke="#000000" points="997.7521,-187 876.2479,-187 876.2479,-151 997.7521,-151 997.7521,-187"/>
<text text-anchor="middle" x="937" y="-164.8" font-family="Times,serif" font-size="14.00" fill="#000000">HighlightDirective</text>
</g>
<!-- HighlightDirective&#45;&gt;DirectivesModule -->
<g id="edge8" class="edge">
<title>HighlightDirective&#45;&gt;DirectivesModule</title>
<path fill="none" stroke="#000000" d="M958.042,-187.1243C958.042,-201.7832 958.042,-220 958.042,-220 958.042,-220 848.791,-220 848.791,-220"/>
<polygon fill="#000000" stroke="#000000" points="848.7911,-216.5001 838.791,-220 848.791,-223.5001 848.7911,-216.5001"/>
</g>
<!-- InputValidationDirective -->
<g id="node6" class="node">
<title>InputValidationDirective</title>
<polygon fill="#ffffb3" stroke="#000000" points="858.2324,-187 701.7676,-187 701.7676,-151 858.2324,-151 858.2324,-187"/>
<text text-anchor="middle" x="780" y="-164.8" font-family="Times,serif" font-size="14.00" fill="#000000">InputValidationDirective</text>
</g>
<!-- InputValidationDirective&#45;&gt;DirectivesModule -->
<g id="edge9" class="edge">
<title>InputValidationDirective&#45;&gt;DirectivesModule</title>
<path fill="none" stroke="#000000" d="M780,-187.1061C780,-187.1061 780,-205.991 780,-205.991"/>
<polygon fill="#000000" stroke="#000000" points="776.5001,-205.9909 780,-215.991 783.5001,-205.991 776.5001,-205.9909"/>
</g>
<!-- MatchValidator -->
<g id="node7" class="node">
<title>MatchValidator</title>
<polygon fill="#ffffb3" stroke="#000000" points="683.1332,-187 578.8668,-187 578.8668,-151 683.1332,-151 683.1332,-187"/>
<text text-anchor="middle" x="631" y="-164.8" font-family="Times,serif" font-size="14.00" fill="#000000">MatchValidator</text>
</g>
<!-- MatchValidator&#45;&gt;DirectivesModule -->
<g id="edge10" class="edge">
<title>MatchValidator&#45;&gt;DirectivesModule</title>
<path fill="none" stroke="#000000" d="M647.6054,-187.1243C647.6054,-201.7832 647.6054,-220 647.6054,-220 647.6054,-220 711.1588,-220 711.1588,-220"/>
<polygon fill="#000000" stroke="#000000" points="711.1588,-223.5001 721.1588,-220 711.1588,-216.5001 711.1588,-223.5001"/>
</g>
<!-- RequiredIfValidator -->
<g id="node8" class="node">
<title>RequiredIfValidator</title>
<polygon fill="#ffffb3" stroke="#000000" points="560.5073,-187 431.4927,-187 431.4927,-151 560.5073,-151 560.5073,-187"/>
<text text-anchor="middle" x="496" y="-164.8" font-family="Times,serif" font-size="14.00" fill="#000000">RequiredIfValidator</text>
</g>
<!-- RequiredIfValidator&#45;&gt;DirectivesModule -->
<g id="edge12" class="edge">
<title>RequiredIfValidator&#45;&gt;DirectivesModule</title>
<path fill="none" stroke="#000000" d="M514.0844,-187.2819C514.0844,-202.9478 514.0844,-223 514.0844,-223 514.0844,-223 711.3145,-223 711.3145,-223"/>
<polygon fill="#000000" stroke="#000000" points="711.3145,-226.5001 721.3145,-223 711.3145,-219.5001 711.3145,-226.5001"/>
</g>
<!-- SlugValidator -->
<g id="node9" class="node">
<title>SlugValidator</title>
<polygon fill="#ffffb3" stroke="#000000" points="413.0425,-187 318.9575,-187 318.9575,-151 413.0425,-151 413.0425,-187"/>
<text text-anchor="middle" x="366" y="-164.8" font-family="Times,serif" font-size="14.00" fill="#000000">SlugValidator</text>
</g>
<!-- SlugValidator&#45;&gt;DirectivesModule -->
<g id="edge14" class="edge">
<title>SlugValidator&#45;&gt;DirectivesModule</title>
<path fill="none" stroke="#000000" d="M408.6457,-187.0352C408.6457,-203.7344 408.6457,-226 408.6457,-226 408.6457,-226 711.1578,-226 711.1578,-226"/>
<polygon fill="#000000" stroke="#000000" points="711.1578,-229.5001 721.1578,-226 711.1578,-222.5001 711.1578,-229.5001"/>
</g>
<!-- URIFragmentValidator -->
<g id="node10" class="node">
<title>URIFragmentValidator</title>
<polygon fill="#ffffb3" stroke="#000000" points="300.1261,-187 153.8739,-187 153.8739,-151 300.1261,-151 300.1261,-187"/>
<text text-anchor="middle" x="227" y="-164.8" font-family="Times,serif" font-size="14.00" fill="#000000">URIFragmentValidator</text>
</g>
<!-- URIFragmentValidator&#45;&gt;DirectivesModule -->
<g id="edge16" class="edge">
<title>URIFragmentValidator&#45;&gt;DirectivesModule</title>
<path fill="none" stroke="#000000" d="M294.1878,-187.302C294.1878,-205.2699 294.1878,-230 294.1878,-230 294.1878,-230 711.3997,-230 711.3997,-230"/>
<polygon fill="#000000" stroke="#000000" points="711.3997,-233.5001 721.3997,-230 711.3997,-226.5001 711.3997,-233.5001"/>
</g>
<!-- URIValidator -->
<g id="node11" class="node">
<title>URIValidator</title>
<polygon fill="#ffffb3" stroke="#000000" points="135.472,-187 42.528,-187 42.528,-151 135.472,-151 135.472,-187"/>
<text text-anchor="middle" x="89" y="-164.8" font-family="Times,serif" font-size="14.00" fill="#000000">URIValidator</text>
</g>
<!-- URIValidator&#45;&gt;DirectivesModule -->
<g id="edge18" class="edge">
<title>URIValidator&#45;&gt;DirectivesModule</title>
<path fill="none" stroke="#000000" d="M127.861,-187.1686C127.861,-206.0898 127.861,-233 127.861,-233 127.861,-233 711.2653,-233 711.2653,-233"/>
<polygon fill="#000000" stroke="#000000" points="711.2653,-236.5001 721.2653,-233 711.2652,-229.5001 711.2653,-236.5001"/>
</g>
<!-- DomainValidator  -->
<g id="node14" class="node">
<title>DomainValidator </title>
<polygon fill="#fb8072" stroke="#000000" points="1559.9715,-317 1442.0285,-317 1442.0285,-281 1559.9715,-281 1559.9715,-317"/>
<text text-anchor="middle" x="1501" y="-294.8" font-family="Times,serif" font-size="14.00" fill="#000000">DomainValidator </text>
</g>
<!-- DirectivesModule&#45;&gt;DomainValidator  -->
<g id="edge20" class="edge">
<title>DirectivesModule&#45;&gt;DomainValidator </title>
<path fill="none" stroke="#000000" stroke-dasharray="5,2" d="M838.7167,-236C1008.8536,-236 1490.125,-236 1490.125,-236 1490.125,-236 1490.125,-270.7778 1490.125,-270.7778"/>
<polygon fill="#000000" stroke="#000000" points="1486.6251,-270.7778 1490.125,-280.7778 1493.6251,-270.7778 1486.6251,-270.7778"/>
</g>
<!-- EmailValidator  -->
<g id="node15" class="node">
<title>EmailValidator </title>
<polygon fill="#fb8072" stroke="#000000" points="1423.8074,-317 1318.1926,-317 1318.1926,-281 1423.8074,-281 1423.8074,-317"/>
<text text-anchor="middle" x="1371" y="-294.8" font-family="Times,serif" font-size="14.00" fill="#000000">EmailValidator </text>
</g>
<!-- DirectivesModule&#45;&gt;EmailValidator  -->
<g id="edge21" class="edge">
<title>DirectivesModule&#45;&gt;EmailValidator </title>
<path fill="none" stroke="#000000" stroke-dasharray="5,2" d="M838.751,-239C986.5574,-239 1362.125,-239 1362.125,-239 1362.125,-239 1362.125,-270.998 1362.125,-270.998"/>
<polygon fill="#000000" stroke="#000000" points="1358.6251,-270.998 1362.125,-280.998 1365.6251,-270.9981 1358.6251,-270.998"/>
</g>
<!-- FragmentValidator  -->
<g id="node16" class="node">
<title>FragmentValidator </title>
<polygon fill="#fb8072" stroke="#000000" points="1300.0218,-317 1173.9782,-317 1173.9782,-281 1300.0218,-281 1300.0218,-317"/>
<text text-anchor="middle" x="1237" y="-294.8" font-family="Times,serif" font-size="14.00" fill="#000000">FragmentValidator </text>
</g>
<!-- DirectivesModule&#45;&gt;FragmentValidator  -->
<g id="edge22" class="edge">
<title>DirectivesModule&#45;&gt;FragmentValidator </title>
<path fill="none" stroke="#000000" stroke-dasharray="5,2" d="M838.846,-243C960.8577,-243 1230.125,-243 1230.125,-243 1230.125,-243 1230.125,-270.973 1230.125,-270.973"/>
<polygon fill="#000000" stroke="#000000" points="1226.6251,-270.973 1230.125,-280.973 1233.6251,-270.973 1226.6251,-270.973"/>
</g>
<!-- GrayedOutDirective  -->
<g id="node17" class="node">
<title>GrayedOutDirective </title>
<polygon fill="#fb8072" stroke="#000000" points="1155.7766,-317 1022.2234,-317 1022.2234,-281 1155.7766,-281 1155.7766,-317"/>
<text text-anchor="middle" x="1089" y="-294.8" font-family="Times,serif" font-size="14.00" fill="#000000">GrayedOutDirective </text>
</g>
<!-- DirectivesModule&#45;&gt;GrayedOutDirective  -->
<g id="edge23" class="edge">
<title>DirectivesModule&#45;&gt;GrayedOutDirective </title>
<path fill="none" stroke="#000000" stroke-dasharray="5,2" d="M838.7318,-246C921.7572,-246 1063.4539,-246 1063.4539,-246 1063.4539,-246 1063.4539,-270.7604 1063.4539,-270.7604"/>
<polygon fill="#000000" stroke="#000000" points="1059.954,-270.7604 1063.4539,-280.7604 1066.954,-270.7604 1059.954,-270.7604"/>
</g>
<!-- HighlightDirective  -->
<g id="node18" class="node">
<title>HighlightDirective </title>
<polygon fill="#fb8072" stroke="#000000" points="1003.7521,-317 878.2479,-317 878.2479,-281 1003.7521,-281 1003.7521,-317"/>
<text text-anchor="middle" x="941" y="-294.8" font-family="Times,serif" font-size="14.00" fill="#000000">HighlightDirective </text>
</g>
<!-- DirectivesModule&#45;&gt;HighlightDirective  -->
<g id="edge24" class="edge">
<title>DirectivesModule&#45;&gt;HighlightDirective </title>
<path fill="none" stroke="#000000" stroke-dasharray="5,2" d="M838.6126,-249C876.2812,-249 918.208,-249 918.208,-249 918.208,-249 918.208,-270.9489 918.208,-270.9489"/>
<polygon fill="#000000" stroke="#000000" points="914.7081,-270.9488 918.208,-280.9489 921.7081,-270.9489 914.7081,-270.9488"/>
</g>
<!-- InputValidationDirective  -->
<g id="node19" class="node">
<title>InputValidationDirective </title>
<polygon fill="#fb8072" stroke="#000000" points="860.2324,-317 699.7676,-317 699.7676,-281 860.2324,-281 860.2324,-317"/>
<text text-anchor="middle" x="780" y="-294.8" font-family="Times,serif" font-size="14.00" fill="#000000">InputValidationDirective </text>
</g>
<!-- DirectivesModule&#45;&gt;InputValidationDirective  -->
<g id="edge25" class="edge">
<title>DirectivesModule&#45;&gt;InputValidationDirective </title>
<path fill="none" stroke="#000000" stroke-dasharray="5,2" d="M780,-252.1061C780,-252.1061 780,-270.991 780,-270.991"/>
<polygon fill="#000000" stroke="#000000" points="776.5001,-270.9909 780,-280.991 783.5001,-270.991 776.5001,-270.9909"/>
</g>
<!-- MatchValidator  -->
<g id="node20" class="node">
<title>MatchValidator </title>
<polygon fill="#fb8072" stroke="#000000" points="682.1327,-317 573.8673,-317 573.8673,-281 682.1327,-281 682.1327,-317"/>
<text text-anchor="middle" x="628" y="-294.8" font-family="Times,serif" font-size="14.00" fill="#000000">MatchValidator </text>
</g>
<!-- DirectivesModule&#45;&gt;MatchValidator  -->
<g id="edge26" class="edge">
<title>DirectivesModule&#45;&gt;MatchValidator </title>
<path fill="none" stroke="#000000" stroke-dasharray="5,2" d="M721.173,-249C673.1343,-249 613.1446,-249 613.1446,-249 613.1446,-249 613.1446,-270.9489 613.1446,-270.9489"/>
<polygon fill="#000000" stroke="#000000" points="609.6447,-270.9488 613.1446,-280.9489 616.6447,-270.9489 609.6447,-270.9488"/>
</g>
<!-- RequiredIfValidator  -->
<g id="node21" class="node">
<title>RequiredIfValidator </title>
<polygon fill="#fb8072" stroke="#000000" points="555.5064,-317 422.4936,-317 422.4936,-281 555.5064,-281 555.5064,-317"/>
<text text-anchor="middle" x="489" y="-294.8" font-family="Times,serif" font-size="14.00" fill="#000000">RequiredIfValidator </text>
</g>
<!-- DirectivesModule&#45;&gt;RequiredIfValidator  -->
<g id="edge27" class="edge">
<title>DirectivesModule&#45;&gt;RequiredIfValidator </title>
<path fill="none" stroke="#000000" stroke-dasharray="5,2" d="M721.1065,-246C631.8668,-246 472.6656,-246 472.6656,-246 472.6656,-246 472.6656,-270.7604 472.6656,-270.7604"/>
<polygon fill="#000000" stroke="#000000" points="469.1657,-270.7604 472.6656,-280.7604 476.1657,-270.7604 469.1657,-270.7604"/>
</g>
<!-- SlugValidator  -->
<g id="node22" class="node">
<title>SlugValidator </title>
<polygon fill="#fb8072" stroke="#000000" points="404.0414,-317 305.9586,-317 305.9586,-281 404.0414,-281 404.0414,-317"/>
<text text-anchor="middle" x="355" y="-294.8" font-family="Times,serif" font-size="14.00" fill="#000000">SlugValidator </text>
</g>
<!-- DirectivesModule&#45;&gt;SlugValidator  -->
<g id="edge28" class="edge">
<title>DirectivesModule&#45;&gt;SlugValidator </title>
<path fill="none" stroke="#000000" stroke-dasharray="5,2" d="M721.3512,-243C606.1397,-243 361.375,-243 361.375,-243 361.375,-243 361.375,-270.973 361.375,-270.973"/>
<polygon fill="#000000" stroke="#000000" points="357.8751,-270.973 361.375,-280.973 364.8751,-270.973 357.8751,-270.973"/>
</g>
<!-- URIFragmentValidator  -->
<g id="node23" class="node">
<title>URIFragmentValidator </title>
<polygon fill="#fb8072" stroke="#000000" points="288.1257,-317 137.8743,-317 137.8743,-281 288.1257,-281 288.1257,-317"/>
<text text-anchor="middle" x="213" y="-294.8" font-family="Times,serif" font-size="14.00" fill="#000000">URIFragmentValidator </text>
</g>
<!-- DirectivesModule&#45;&gt;URIFragmentValidator  -->
<g id="edge29" class="edge">
<title>DirectivesModule&#45;&gt;URIFragmentValidator </title>
<path fill="none" stroke="#000000" stroke-dasharray="5,2" d="M721.2206,-239C577.6674,-239 220.875,-239 220.875,-239 220.875,-239 220.875,-270.998 220.875,-270.998"/>
<polygon fill="#000000" stroke="#000000" points="217.3751,-270.998 220.875,-280.998 224.3751,-270.9981 217.3751,-270.998"/>
</g>
<!-- URIValidator  -->
<g id="node24" class="node">
<title>URIValidator </title>
<polygon fill="#fb8072" stroke="#000000" points="120.4732,-317 23.5268,-317 23.5268,-281 120.4732,-281 120.4732,-317"/>
<text text-anchor="middle" x="72" y="-294.8" font-family="Times,serif" font-size="14.00" fill="#000000">URIValidator </text>
</g>
<!-- DirectivesModule&#45;&gt;URIValidator  -->
<g id="edge30" class="edge">
<title>DirectivesModule&#45;&gt;URIValidator </title>
<path fill="none" stroke="#000000" stroke-dasharray="5,2" d="M721.3378,-236C553.169,-236 81.375,-236 81.375,-236 81.375,-236 81.375,-270.7778 81.375,-270.7778"/>
<polygon fill="#000000" stroke="#000000" points="77.8751,-270.7778 81.375,-280.7778 84.8751,-270.7778 77.8751,-270.7778"/>
</g>
<!-- { : , : , : true } -->
<g id="node13" class="node">
<title>{ : , : , : true }</title>
<ellipse fill="#fdb462" stroke="#000000" cx="563" cy="-104" rx="65.1962" ry="18"/>
<text text-anchor="middle" x="563" y="-99.8" font-family="Times,serif" font-size="14.00" fill="#000000">{ : , : , : true }</text>
</g>
<!-- { : , : , : true }&#45;&gt;DomainValidator -->
<g id="edge2" class="edge">
<title>{ : , : , : true }&#45;&gt;DomainValidator</title>
<path fill="none" stroke="#000000" d="M619.3872,-95C819.1159,-95 1481,-95 1481,-95 1481,-95 1481,-140.7079 1481,-140.7079"/>
<polygon fill="#000000" stroke="#000000" points="1477.5001,-140.7078 1481,-150.7079 1484.5001,-140.7079 1477.5001,-140.7078"/>
</g>
<!-- { : , : , : true }&#45;&gt;EmailValidator -->
<g id="edge4" class="edge">
<title>{ : , : , : true }&#45;&gt;EmailValidator</title>
<path fill="none" stroke="#000000" d="M628.1492,-104C817.6027,-104 1355,-104 1355,-104 1355,-104 1355,-140.8939 1355,-140.8939"/>
<polygon fill="#000000" stroke="#000000" points="1351.5001,-140.8938 1355,-150.8939 1358.5001,-140.8939 1351.5001,-140.8938"/>
</g>
<!-- { : , : , : true }&#45;&gt;FragmentValidator -->
<g id="edge6" class="edge">
<title>{ : , : , : true }&#45;&gt;FragmentValidator</title>
<path fill="none" stroke="#000000" d="M619.4417,-113C779.5319,-113 1225,-113 1225,-113 1225,-113 1225,-140.973 1225,-140.973"/>
<polygon fill="#000000" stroke="#000000" points="1221.5001,-140.973 1225,-150.973 1228.5001,-140.973 1221.5001,-140.973"/>
</g>
<!-- { : , : , : true }&#45;&gt;MatchValidator -->
<g id="edge11" class="edge">
<title>{ : , : , : true }&#45;&gt;MatchValidator</title>
<path fill="none" stroke="#000000" d="M603.3909,-118.4256C603.3909,-118.4256 603.3909,-140.8939 603.3909,-140.8939"/>
<polygon fill="#000000" stroke="#000000" points="599.891,-140.8938 603.3909,-150.8939 606.891,-140.8939 599.891,-140.8938"/>
</g>
<!-- { : , : , : true }&#45;&gt;RequiredIfValidator -->
<g id="edge13" class="edge">
<title>{ : , : , : true }&#45;&gt;RequiredIfValidator</title>
<path fill="none" stroke="#000000" d="M529.3276,-119.7347C529.3276,-119.7347 529.3276,-140.6451 529.3276,-140.6451"/>
<polygon fill="#000000" stroke="#000000" points="525.8277,-140.645 529.3276,-150.6451 532.8277,-140.6451 525.8277,-140.645"/>
</g>
<!-- { : , : , : true }&#45;&gt;SlugValidator -->
<g id="edge15" class="edge">
<title>{ : , : , : true }&#45;&gt;SlugValidator</title>
<path fill="none" stroke="#000000" d="M506.5477,-113C448.3346,-113 366,-113 366,-113 366,-113 366,-140.973 366,-140.973"/>
<polygon fill="#000000" stroke="#000000" points="362.5001,-140.973 366,-150.973 369.5001,-140.973 362.5001,-140.973"/>
</g>
<!-- { : , : , : true }&#45;&gt;URIFragmentValidator -->
<g id="edge17" class="edge">
<title>{ : , : , : true }&#45;&gt;URIFragmentValidator</title>
<path fill="none" stroke="#000000" d="M497.8174,-104C400.1068,-104 227,-104 227,-104 227,-104 227,-140.8939 227,-140.8939"/>
<polygon fill="#000000" stroke="#000000" points="223.5001,-140.8938 227,-150.8939 230.5001,-140.8939 223.5001,-140.8938"/>
</g>
<!-- { : , : , : true }&#45;&gt;URIValidator -->
<g id="edge19" class="edge">
<title>{ : , : , : true }&#45;&gt;URIValidator</title>
<path fill="none" stroke="#000000" d="M506.2953,-95C380.4805,-95 89,-95 89,-95 89,-95 89,-140.7079 89,-140.7079"/>
<polygon fill="#000000" stroke="#000000" points="85.5001,-140.7078 89,-150.7079 92.5001,-140.7079 85.5001,-140.7078"/>
</g>
</g>
</svg>
