<?xml version="1.0" encoding="UTF-8" standalone="no"?>
<!DOCTYPE svg PUBLIC "-//W3C//DTD SVG 1.1//EN"
 "http://www.w3.org/Graphics/SVG/1.1/DTD/svg11.dtd">
<!-- Generated by graphviz version 2.40.1 (20161225.0304)
 -->
<!-- Title: dependencies Pages: 1 -->
<svg width="1160pt" height="284pt"
 viewBox="0.00 0.00 1160.00 284.00" xmlns="http://www.w3.org/2000/svg" xmlns:xlink="http://www.w3.org/1999/xlink">
<g id="graph0" class="graph" transform="scale(1 1) rotate(0) translate(4 280)">
<title>dependencies</title>
<polygon fill="#ffffff" stroke="transparent" points="-4,4 -4,-280 1156,-280 1156,4 -4,4"/>
<text text-anchor="start" x="555.0091" y="-42.4" font-family="sans-serif" font-weight="bold" font-size="14.00" fill="#000000">Legend</text>
<polygon fill="#ffffb3" stroke="transparent" points="342,-10 342,-30 362,-30 362,-10 342,-10"/>
<text text-anchor="start" x="365.629" y="-15.4" font-family="sans-serif" font-size="14.00" fill="#000000"> &#160;Declarations</text>
<polygon fill="#8dd3c7" stroke="transparent" points="455,-10 455,-30 475,-30 475,-10 455,-10"/>
<text text-anchor="start" x="478.7251" y="-15.4" font-family="sans-serif" font-size="14.00" fill="#000000"> &#160;Module</text>
<polygon fill="#80b1d3" stroke="transparent" points="541,-10 541,-30 561,-30 561,-10 541,-10"/>
<text text-anchor="start" x="564.7812" y="-15.4" font-family="sans-serif" font-size="14.00" fill="#000000"> &#160;Bootstrap</text>
<polygon fill="#fdb462" stroke="transparent" points="638,-10 638,-30 658,-30 658,-10 638,-10"/>
<text text-anchor="start" x="661.6732" y="-15.4" font-family="sans-serif" font-size="14.00" fill="#000000"> &#160;Providers</text>
<polygon fill="#fb8072" stroke="transparent" points="734,-10 734,-30 754,-30 754,-10 734,-10"/>
<text text-anchor="start" x="757.7258" y="-15.4" font-family="sans-serif" font-size="14.00" fill="#000000"> &#160;Exports</text>
<g id="clust1" class="cluster">
<title>cluster_DashboardModule</title>
<polygon fill="none" stroke="#000000" stroke-dasharray="1,5" points="8,-70 8,-268 1144,-268 1144,-70 8,-70"/>
</g>
<g id="clust2" class="cluster">
<title>cluster_DashboardModule_declarations</title>
<polygon fill="none" stroke="#000000" points="306,-78 306,-130 1136,-130 1136,-78 306,-78"/>
</g>
<g id="clust8" class="cluster">
<title>cluster_DashboardModule_imports</title>
<polygon fill="none" stroke="#000000" points="184,-78 184,-130 298,-130 298,-78 184,-78"/>
</g>
<g id="clust9" class="cluster">
<title>cluster_DashboardModule_exports</title>
<polygon fill="none" stroke="#000000" points="368,-208 368,-260 632,-260 632,-208 368,-208"/>
</g>
<g id="clust11" class="cluster">
<title>cluster_DashboardModule_providers</title>
<polygon fill="none" stroke="#000000" points="16,-78 16,-130 176,-130 176,-78 16,-78"/>
</g>
<!-- DocumentsWidgetComponent -->
<g id="node1" class="node">
<title>DocumentsWidgetComponent</title>
<polygon fill="#ffffb3" stroke="#000000" points="1128.3046,-122 941.6954,-122 941.6954,-86 1128.3046,-86 1128.3046,-122"/>
<text text-anchor="middle" x="1035" y="-99.8" font-family="Times,serif" font-size="14.00" fill="#000000">DocumentsWidgetComponent</text>
</g>
<!-- DashboardModule -->
<g id="node6" class="node">
<title>DashboardModule</title>
<polygon fill="#8dd3c7" stroke="#000000" points="552.191,-187 549.191,-191 528.191,-191 525.191,-187 431.809,-187 431.809,-151 552.191,-151 552.191,-187"/>
<text text-anchor="middle" x="492" y="-164.8" font-family="Times,serif" font-size="14.00" fill="#000000">DashboardModule</text>
</g>
<!-- DocumentsWidgetComponent&#45;&gt;DashboardModule -->
<g id="edge1" class="edge">
<title>DocumentsWidgetComponent&#45;&gt;DashboardModule</title>
<path fill="none" stroke="#000000" d="M1035,-122.2921C1035,-144.2057 1035,-178 1035,-178 1035,-178 562.1852,-178 562.1852,-178"/>
<polygon fill="#000000" stroke="#000000" points="562.1852,-174.5001 552.1852,-178 562.1852,-181.5001 562.1852,-174.5001"/>
</g>
<!-- InstanceWidgetComponent -->
<g id="node2" class="node">
<title>InstanceWidgetComponent</title>
<polygon fill="#ffffb3" stroke="#000000" points="923.6825,-122 754.3175,-122 754.3175,-86 923.6825,-86 923.6825,-122"/>
<text text-anchor="middle" x="839" y="-99.8" font-family="Times,serif" font-size="14.00" fill="#000000">InstanceWidgetComponent</text>
</g>
<!-- InstanceWidgetComponent&#45;&gt;DashboardModule -->
<g id="edge2" class="edge">
<title>InstanceWidgetComponent&#45;&gt;DashboardModule</title>
<path fill="none" stroke="#000000" d="M839,-122.1061C839,-141.3391 839,-169 839,-169 839,-169 562.4428,-169 562.4428,-169"/>
<polygon fill="#000000" stroke="#000000" points="562.4428,-165.5001 552.4428,-169 562.4428,-172.5001 562.4428,-165.5001"/>
</g>
<!-- TriplesWidgetComponent -->
<g id="node3" class="node">
<title>TriplesWidgetComponent</title>
<polygon fill="#ffffb3" stroke="#000000" points="736.1965,-122 573.8035,-122 573.8035,-86 736.1965,-86 736.1965,-122"/>
<text text-anchor="middle" x="655" y="-99.8" font-family="Times,serif" font-size="14.00" fill="#000000">TriplesWidgetComponent</text>
</g>
<!-- TriplesWidgetComponent&#45;&gt;DashboardModule -->
<g id="edge3" class="edge">
<title>TriplesWidgetComponent&#45;&gt;DashboardModule</title>
<path fill="none" stroke="#000000" d="M598.8228,-122.027C598.8228,-138.3976 598.8228,-160 598.8228,-160 598.8228,-160 562.2795,-160 562.2795,-160"/>
<polygon fill="#000000" stroke="#000000" points="562.2795,-156.5001 552.2795,-160 562.2795,-163.5001 562.2795,-156.5001"/>
</g>
<!-- WidgetsComponent -->
<g id="node4" class="node">
<title>WidgetsComponent</title>
<polygon fill="#ffffb3" stroke="#000000" points="555.9874,-122 428.0126,-122 428.0126,-86 555.9874,-86 555.9874,-122"/>
<text text-anchor="middle" x="492" y="-99.8" font-family="Times,serif" font-size="14.00" fill="#000000">WidgetsComponent</text>
</g>
<!-- WidgetsComponent&#45;&gt;DashboardModule -->
<g id="edge4" class="edge">
<title>WidgetsComponent&#45;&gt;DashboardModule</title>
<path fill="none" stroke="#000000" d="M492,-122.1061C492,-122.1061 492,-140.991 492,-140.991"/>
<polygon fill="#000000" stroke="#000000" points="488.5001,-140.9909 492,-150.991 495.5001,-140.991 488.5001,-140.9909"/>
</g>
<!-- WidgetsMenu -->
<g id="node5" class="node">
<title>WidgetsMenu</title>
<polygon fill="#ffffb3" stroke="#000000" points="409.8147,-122 314.1853,-122 314.1853,-86 409.8147,-86 409.8147,-122"/>
<text text-anchor="middle" x="362" y="-99.8" font-family="Times,serif" font-size="14.00" fill="#000000">WidgetsMenu</text>
</g>
<!-- WidgetsMenu&#45;&gt;DashboardModule -->
<g id="edge5" class="edge">
<title>WidgetsMenu&#45;&gt;DashboardModule</title>
<path fill="none" stroke="#000000" d="M392.625,-122.027C392.625,-138.3976 392.625,-160 392.625,-160 392.625,-160 421.9006,-160 421.9006,-160"/>
<polygon fill="#000000" stroke="#000000" points="421.9007,-163.5001 431.9006,-160 421.9006,-156.5001 421.9007,-163.5001"/>
</g>
<!-- WidgetsComponent  -->
<g id="node8" class="node">
<title>WidgetsComponent </title>
<polygon fill="#fb8072" stroke="#000000" points="623.9883,-252 492.0117,-252 492.0117,-216 623.9883,-216 623.9883,-252"/>
<text text-anchor="middle" x="558" y="-229.8" font-family="Times,serif" font-size="14.00" fill="#000000">WidgetsComponent </text>
</g>
<!-- DashboardModule&#45;&gt;WidgetsComponent  -->
<g id="edge7" class="edge">
<title>DashboardModule&#45;&gt;WidgetsComponent </title>
<path fill="none" stroke="#000000" stroke-dasharray="5,2" d="M522.1759,-187.1061C522.1759,-187.1061 522.1759,-205.991 522.1759,-205.991"/>
<polygon fill="#000000" stroke="#000000" points="518.6759,-205.9909 522.1759,-215.991 525.6759,-205.991 518.6759,-205.9909"/>
</g>
<!-- WidgetsMenu  -->
<g id="node9" class="node">
<title>WidgetsMenu </title>
<polygon fill="#fb8072" stroke="#000000" points="474.3144,-252 375.6856,-252 375.6856,-216 474.3144,-216 474.3144,-252"/>
<text text-anchor="middle" x="425" y="-229.8" font-family="Times,serif" font-size="14.00" fill="#000000">WidgetsMenu </text>
</g>
<!-- DashboardModule&#45;&gt;WidgetsMenu  -->
<g id="edge8" class="edge">
<title>DashboardModule&#45;&gt;WidgetsMenu </title>
<path fill="none" stroke="#000000" stroke-dasharray="5,2" d="M453.1559,-187.1061C453.1559,-187.1061 453.1559,-205.991 453.1559,-205.991"/>
<polygon fill="#000000" stroke="#000000" points="449.6559,-205.9909 453.1559,-215.991 456.6559,-205.991 449.6559,-205.9909"/>
</g>
<!-- SharedModule -->
<g id="node7" class="node">
<title>SharedModule</title>
<polygon fill="#8dd3c7" stroke="#000000" points="290.4231,-122 287.4231,-126 266.4231,-126 263.4231,-122 191.5769,-122 191.5769,-86 290.4231,-86 290.4231,-122"/>
<text text-anchor="middle" x="241" y="-99.8" font-family="Times,serif" font-size="14.00" fill="#000000">SharedModule</text>
</g>
<!-- SharedModule&#45;&gt;DashboardModule -->
<g id="edge6" class="edge">
<title>SharedModule&#45;&gt;DashboardModule</title>
<path fill="none" stroke="#000000" d="M241,-122.1061C241,-141.3391 241,-169 241,-169 241,-169 421.8792,-169 421.8792,-169"/>
<polygon fill="#000000" stroke="#000000" points="421.8793,-172.5001 431.8792,-169 421.8792,-165.5001 421.8793,-172.5001"/>
</g>
<!-- WidgetsService -->
<g id="node10" class="node">
<title>WidgetsService</title>
<ellipse fill="#fdb462" stroke="#000000" cx="96" cy="-104" rx="72.3477" ry="18"/>
<text text-anchor="middle" x="96" y="-99.8" font-family="Times,serif" font-size="14.00" fill="#000000">WidgetsService</text>
</g>
<!-- WidgetsService&#45;&gt;DashboardModule -->
<g id="edge9" class="edge">
<title>WidgetsService&#45;&gt;DashboardModule</title>
<path fill="none" stroke="#000000" d="M96,-122.2921C96,-144.2057 96,-178 96,-178 96,-178 421.8561,-178 421.8561,-178"/>
<polygon fill="#000000" stroke="#000000" points="421.8562,-181.5001 431.8561,-178 421.8561,-174.5001 421.8562,-181.5001"/>
</g>
</g>
</svg>
