<?xml version="1.0" encoding="UTF-8" standalone="no"?>
<!DOCTYPE svg PUBLIC "-//W3C//DTD SVG 1.1//EN"
 "http://www.w3.org/Graphics/SVG/1.1/DTD/svg11.dtd">
<!-- Generated by graphviz version 2.40.1 (20161225.0304)
 -->
<!-- Title: dependencies Pages: 1 -->
<svg width="1328pt" height="284pt"
 viewBox="0.00 0.00 1328.00 284.00" xmlns="http://www.w3.org/2000/svg" xmlns:xlink="http://www.w3.org/1999/xlink">
<g id="graph0" class="graph" transform="scale(1 1) rotate(0) translate(4 280)">
<title>dependencies</title>
<polygon fill="#ffffff" stroke="transparent" points="-4,4 -4,-280 1324,-280 1324,4 -4,4"/>
<text text-anchor="start" x="639.0091" y="-42.4" font-family="sans-serif" font-weight="bold" font-size="14.00" fill="#000000">Legend</text>
<polygon fill="#ffffb3" stroke="transparent" points="426,-10 426,-30 446,-30 446,-10 426,-10"/>
<text text-anchor="start" x="449.629" y="-15.4" font-family="sans-serif" font-size="14.00" fill="#000000"> &#160;Declarations</text>
<polygon fill="#8dd3c7" stroke="transparent" points="539,-10 539,-30 559,-30 559,-10 539,-10"/>
<text text-anchor="start" x="562.7251" y="-15.4" font-family="sans-serif" font-size="14.00" fill="#000000"> &#160;Module</text>
<polygon fill="#80b1d3" stroke="transparent" points="625,-10 625,-30 645,-30 645,-10 625,-10"/>
<text text-anchor="start" x="648.7812" y="-15.4" font-family="sans-serif" font-size="14.00" fill="#000000"> &#160;Bootstrap</text>
<polygon fill="#fdb462" stroke="transparent" points="722,-10 722,-30 742,-30 742,-10 722,-10"/>
<text text-anchor="start" x="745.6732" y="-15.4" font-family="sans-serif" font-size="14.00" fill="#000000"> &#160;Providers</text>
<polygon fill="#fb8072" stroke="transparent" points="818,-10 818,-30 838,-30 838,-10 818,-10"/>
<text text-anchor="start" x="841.7258" y="-15.4" font-family="sans-serif" font-size="14.00" fill="#000000"> &#160;Exports</text>
<g id="clust1" class="cluster">
<title>cluster_DashboardModule</title>
<polygon fill="none" stroke="#000000" stroke-dasharray="1,5" points="8,-70 8,-268 1312,-268 1312,-70 8,-70"/>
</g>
<g id="clust2" class="cluster">
<title>cluster_DashboardModule_declarations</title>
<polygon fill="none" stroke="#000000" points="474,-78 474,-130 1304,-130 1304,-78 474,-78"/>
</g>
<g id="clust8" class="cluster">
<title>cluster_DashboardModule_imports</title>
<polygon fill="none" stroke="#000000" points="184,-78 184,-130 466,-130 466,-78 184,-78"/>
</g>
<g id="clust9" class="cluster">
<title>cluster_DashboardModule_exports</title>
<polygon fill="none" stroke="#000000" points="455,-208 455,-260 719,-260 719,-208 455,-208"/>
</g>
<g id="clust11" class="cluster">
<title>cluster_DashboardModule_providers</title>
<polygon fill="none" stroke="#000000" points="16,-78 16,-130 176,-130 176,-78 16,-78"/>
</g>
<!-- DocumentsWidgetComponent -->
<g id="node1" class="node">
<title>DocumentsWidgetComponent</title>
<polygon fill="#ffffb3" stroke="#000000" points="1296.3046,-122 1109.6954,-122 1109.6954,-86 1296.3046,-86 1296.3046,-122"/>
<text text-anchor="middle" x="1203" y="-99.8" font-family="Times,serif" font-size="14.00" fill="#000000">DocumentsWidgetComponent</text>
</g>
<!-- DashboardModule -->
<g id="node6" class="node">
<title>DashboardModule</title>
<polygon fill="#8dd3c7" stroke="#000000" points="655.191,-187 652.191,-191 631.191,-191 628.191,-187 534.809,-187 534.809,-151 655.191,-151 655.191,-187"/>
<text text-anchor="middle" x="595" y="-164.8" font-family="Times,serif" font-size="14.00" fill="#000000">DashboardModule</text>
</g>
<!-- DocumentsWidgetComponent&#45;&gt;DashboardModule -->
<g id="edge1" class="edge">
<title>DocumentsWidgetComponent&#45;&gt;DashboardModule</title>
<path fill="none" stroke="#000000" d="M1203,-122.2921C1203,-144.2057 1203,-178 1203,-178 1203,-178 665.2405,-178 665.2405,-178"/>
<polygon fill="#000000" stroke="#000000" points="665.2405,-174.5001 655.2405,-178 665.2405,-181.5001 665.2405,-174.5001"/>
</g>
<!-- InstanceWidgetComponent -->
<g id="node2" class="node">
<title>InstanceWidgetComponent</title>
<polygon fill="#ffffb3" stroke="#000000" points="1091.6825,-122 922.3175,-122 922.3175,-86 1091.6825,-86 1091.6825,-122"/>
<text text-anchor="middle" x="1007" y="-99.8" font-family="Times,serif" font-size="14.00" fill="#000000">InstanceWidgetComponent</text>
</g>
<!-- InstanceWidgetComponent&#45;&gt;DashboardModule -->
<g id="edge2" class="edge">
<title>InstanceWidgetComponent&#45;&gt;DashboardModule</title>
<path fill="none" stroke="#000000" d="M1007,-122.1061C1007,-141.3391 1007,-169 1007,-169 1007,-169 665.3496,-169 665.3496,-169"/>
<polygon fill="#000000" stroke="#000000" points="665.3496,-165.5001 655.3496,-169 665.3495,-172.5001 665.3496,-165.5001"/>
</g>
<!-- TriplesWidgetComponent -->
<g id="node3" class="node">
<title>TriplesWidgetComponent</title>
<polygon fill="#ffffb3" stroke="#000000" points="904.1965,-122 741.8035,-122 741.8035,-86 904.1965,-86 904.1965,-122"/>
<text text-anchor="middle" x="823" y="-99.8" font-family="Times,serif" font-size="14.00" fill="#000000">TriplesWidgetComponent</text>
</g>
<!-- TriplesWidgetComponent&#45;&gt;DashboardModule -->
<g id="edge3" class="edge">
<title>TriplesWidgetComponent&#45;&gt;DashboardModule</title>
<path fill="none" stroke="#000000" d="M823,-122.027C823,-138.3976 823,-160 823,-160 823,-160 665.2026,-160 665.2026,-160"/>
<polygon fill="#000000" stroke="#000000" points="665.2026,-156.5001 655.2026,-160 665.2025,-163.5001 665.2026,-156.5001"/>
</g>
<!-- WidgetsComponent -->
<g id="node4" class="node">
<title>WidgetsComponent</title>
<polygon fill="#ffffb3" stroke="#000000" points="723.9874,-122 596.0126,-122 596.0126,-86 723.9874,-86 723.9874,-122"/>
<text text-anchor="middle" x="660" y="-99.8" font-family="Times,serif" font-size="14.00" fill="#000000">WidgetsComponent</text>
</g>
<!-- WidgetsComponent&#45;&gt;DashboardModule -->
<g id="edge4" class="edge">
<title>WidgetsComponent&#45;&gt;DashboardModule</title>
<path fill="none" stroke="#000000" d="M625.5509,-122.1061C625.5509,-122.1061 625.5509,-140.991 625.5509,-140.991"/>
<polygon fill="#000000" stroke="#000000" points="622.0509,-140.9909 625.5509,-150.991 629.0509,-140.991 622.0509,-140.9909"/>
</g>
<!-- WidgetsMenu -->
<g id="node5" class="node">
<title>WidgetsMenu</title>
<polygon fill="#ffffb3" stroke="#000000" points="577.8147,-122 482.1853,-122 482.1853,-86 577.8147,-86 577.8147,-122"/>
<text text-anchor="middle" x="530" y="-99.8" font-family="Times,serif" font-size="14.00" fill="#000000">WidgetsMenu</text>
</g>
<!-- WidgetsMenu&#45;&gt;DashboardModule -->
<g id="edge5" class="edge">
<title>WidgetsMenu&#45;&gt;DashboardModule</title>
<path fill="none" stroke="#000000" d="M556.2809,-122.1061C556.2809,-122.1061 556.2809,-140.991 556.2809,-140.991"/>
<polygon fill="#000000" stroke="#000000" points="552.7809,-140.9909 556.2809,-150.991 559.7809,-140.991 552.7809,-140.9909"/>
</g>
<!-- WidgetsMenu  -->
<g id="node9" class="node">
<title>WidgetsMenu </title>
<polygon fill="#fb8072" stroke="#000000" points="711.3144,-252 612.6856,-252 612.6856,-216 711.3144,-216 711.3144,-252"/>
<text text-anchor="middle" x="662" y="-229.8" font-family="Times,serif" font-size="14.00" fill="#000000">WidgetsMenu </text>
</g>
<!-- DashboardModule&#45;&gt;WidgetsMenu  -->
<g id="edge8" class="edge">
<title>DashboardModule&#45;&gt;WidgetsMenu </title>
<path fill="none" stroke="#000000" stroke-dasharray="5,2" d="M633.8442,-187.1061C633.8442,-187.1061 633.8442,-205.991 633.8442,-205.991"/>
<polygon fill="#000000" stroke="#000000" points="630.3442,-205.9909 633.8442,-215.991 637.3442,-205.991 630.3442,-205.9909"/>
</g>
<!-- WidgetsComponent  -->
<g id="node10" class="node">
<title>WidgetsComponent </title>
<polygon fill="#fb8072" stroke="#000000" points="594.9883,-252 463.0117,-252 463.0117,-216 594.9883,-216 594.9883,-252"/>
<text text-anchor="middle" x="529" y="-229.8" font-family="Times,serif" font-size="14.00" fill="#000000">WidgetsComponent </text>
</g>
<!-- DashboardModule&#45;&gt;WidgetsComponent  -->
<g id="edge9" class="edge">
<title>DashboardModule&#45;&gt;WidgetsComponent </title>
<path fill="none" stroke="#000000" stroke-dasharray="5,2" d="M564.8242,-187.1061C564.8242,-187.1061 564.8242,-205.991 564.8242,-205.991"/>
<polygon fill="#000000" stroke="#000000" points="561.3242,-205.9909 564.8242,-215.991 568.3242,-205.991 561.3242,-205.9909"/>
</g>
<!-- CommonModule -->
<g id="node7" class="node">
<title>CommonModule</title>
<polygon fill="#8dd3c7" stroke="#000000" points="457.6681,-122 454.6681,-126 433.6681,-126 430.6681,-122 346.3319,-122 346.3319,-86 457.6681,-86 457.6681,-122"/>
<text text-anchor="middle" x="402" y="-99.8" font-family="Times,serif" font-size="14.00" fill="#000000">CommonModule</text>
</g>
<!-- CommonModule&#45;&gt;DashboardModule -->
<g id="edge6" class="edge">
<title>CommonModule&#45;&gt;DashboardModule</title>
<path fill="none" stroke="#000000" d="M402,-122.027C402,-138.3976 402,-160 402,-160 402,-160 524.7275,-160 524.7275,-160"/>
<polygon fill="#000000" stroke="#000000" points="524.7275,-163.5001 534.7275,-160 524.7274,-156.5001 524.7275,-163.5001"/>
</g>
<!-- AppCommonModule -->
<g id="node8" class="node">
<title>AppCommonModule</title>
<polygon fill="#8dd3c7" stroke="#000000" points="327.7744,-122 324.7744,-126 303.7744,-126 300.7744,-122 192.2256,-122 192.2256,-86 327.7744,-86 327.7744,-122"/>
<text text-anchor="middle" x="260" y="-99.8" font-family="Times,serif" font-size="14.00" fill="#000000">AppCommonModule</text>
</g>
<!-- AppCommonModule&#45;&gt;DashboardModule -->
<g id="edge7" class="edge">
<title>AppCommonModule&#45;&gt;DashboardModule</title>
<path fill="none" stroke="#000000" d="M260,-122.1061C260,-141.3391 260,-169 260,-169 260,-169 524.7218,-169 524.7218,-169"/>
<polygon fill="#000000" stroke="#000000" points="524.7218,-172.5001 534.7218,-169 524.7218,-165.5001 524.7218,-172.5001"/>
</g>
<!-- WidgetsService -->
<g id="node11" class="node">
<title>WidgetsService</title>
<ellipse fill="#fdb462" stroke="#000000" cx="96" cy="-104" rx="72.3477" ry="18"/>
<text text-anchor="middle" x="96" y="-99.8" font-family="Times,serif" font-size="14.00" fill="#000000">WidgetsService</text>
</g>
<!-- WidgetsService&#45;&gt;DashboardModule -->
<g id="edge10" class="edge">
<title>WidgetsService&#45;&gt;DashboardModule</title>
<path fill="none" stroke="#000000" d="M96,-122.2921C96,-144.2057 96,-178 96,-178 96,-178 524.8089,-178 524.8089,-178"/>
<polygon fill="#000000" stroke="#000000" points="524.809,-181.5001 534.8089,-178 524.8089,-174.5001 524.809,-181.5001"/>
</g>
</g>
</svg>
