<?xml version="1.0" encoding="UTF-8" standalone="no"?>
<!DOCTYPE svg PUBLIC "-//W3C//DTD SVG 1.1//EN"
 "http://www.w3.org/Graphics/SVG/1.1/DTD/svg11.dtd">
<!-- Generated by graphviz version 2.40.1 (20161225.0304)
 -->
<!-- Title: dependencies Pages: 1 -->
<svg width="824pt" height="284pt"
 viewBox="0.00 0.00 824.00 284.00" xmlns="http://www.w3.org/2000/svg" xmlns:xlink="http://www.w3.org/1999/xlink">
<g id="graph0" class="graph" transform="scale(1 1) rotate(0) translate(4 280)">
<title>dependencies</title>
<polygon fill="#ffffff" stroke="transparent" points="-4,4 -4,-280 820,-280 820,4 -4,4"/>
<text text-anchor="start" x="387.0091" y="-42.4" font-family="sans-serif" font-weight="bold" font-size="14.00" fill="#000000">Legend</text>
<polygon fill="#ffffb3" stroke="transparent" points="174,-10 174,-30 194,-30 194,-10 174,-10"/>
<text text-anchor="start" x="197.629" y="-15.4" font-family="sans-serif" font-size="14.00" fill="#000000"> &#160;Declarations</text>
<polygon fill="#8dd3c7" stroke="transparent" points="287,-10 287,-30 307,-30 307,-10 287,-10"/>
<text text-anchor="start" x="310.7251" y="-15.4" font-family="sans-serif" font-size="14.00" fill="#000000"> &#160;Module</text>
<polygon fill="#80b1d3" stroke="transparent" points="373,-10 373,-30 393,-30 393,-10 373,-10"/>
<text text-anchor="start" x="396.7812" y="-15.4" font-family="sans-serif" font-size="14.00" fill="#000000"> &#160;Bootstrap</text>
<polygon fill="#fdb462" stroke="transparent" points="470,-10 470,-30 490,-30 490,-10 470,-10"/>
<text text-anchor="start" x="493.6732" y="-15.4" font-family="sans-serif" font-size="14.00" fill="#000000"> &#160;Providers</text>
<polygon fill="#fb8072" stroke="transparent" points="566,-10 566,-30 586,-30 586,-10 566,-10"/>
<text text-anchor="start" x="589.7258" y="-15.4" font-family="sans-serif" font-size="14.00" fill="#000000"> &#160;Exports</text>
<g id="clust1" class="cluster">
<title>cluster_SemanticModule</title>
<polygon fill="none" stroke="#000000" stroke-dasharray="1,5" points="8,-70 8,-268 808,-268 808,-70 8,-70"/>
</g>
<g id="clust2" class="cluster">
<title>cluster_SemanticModule_declarations</title>
<polygon fill="none" stroke="#000000" points="24,-78 24,-130 790,-130 790,-78 24,-78"/>
</g>
<g id="clust9" class="cluster">
<title>cluster_SemanticModule_exports</title>
<polygon fill="none" stroke="#000000" points="16,-208 16,-260 800,-260 800,-208 16,-208"/>
</g>
<!-- CollapsibleContentDirective -->
<g id="node1" class="node">
<title>CollapsibleContentDirective</title>
<polygon fill="#ffffb3" stroke="#000000" points="782.1881,-122 605.8119,-122 605.8119,-86 782.1881,-86 782.1881,-122"/>
<text text-anchor="middle" x="694" y="-99.8" font-family="Times,serif" font-size="14.00" fill="#000000">CollapsibleContentDirective</text>
</g>
<!-- SemanticModule -->
<g id="node6" class="node">
<title>SemanticModule</title>
<polygon fill="#8dd3c7" stroke="#000000" points="414.6486,-187 411.6486,-191 390.6486,-191 387.6486,-187 303.3514,-187 303.3514,-151 414.6486,-151 414.6486,-187"/>
<text text-anchor="middle" x="359" y="-164.8" font-family="Times,serif" font-size="14.00" fill="#000000">SemanticModule</text>
</g>
<!-- CollapsibleContentDirective&#45;&gt;SemanticModule -->
<g id="edge1" class="edge">
<title>CollapsibleContentDirective&#45;&gt;SemanticModule</title>
<path fill="none" stroke="#000000" d="M725.448,-122.2667C725.448,-140.5552 725.448,-166 725.448,-166 725.448,-166 424.6556,-166 424.6556,-166"/>
<polygon fill="#000000" stroke="#000000" points="424.6556,-162.5001 414.6556,-166 424.6555,-169.5001 424.6556,-162.5001"/>
</g>
<!-- CollapsibleDirective -->
<g id="node2" class="node">
<title>CollapsibleDirective</title>
<polygon fill="#ffffb3" stroke="#000000" points="587.8557,-122 456.1443,-122 456.1443,-86 587.8557,-86 587.8557,-122"/>
<text text-anchor="middle" x="522" y="-99.8" font-family="Times,serif" font-size="14.00" fill="#000000">CollapsibleDirective</text>
</g>
<!-- CollapsibleDirective&#45;&gt;SemanticModule -->
<g id="edge2" class="edge">
<title>CollapsibleDirective&#45;&gt;SemanticModule</title>
<path fill="none" stroke="#000000" d="M544.7259,-122.0091C544.7259,-138.0494 544.7259,-159 544.7259,-159 544.7259,-159 424.7239,-159 424.7239,-159"/>
<polygon fill="#000000" stroke="#000000" points="424.7239,-155.5001 414.7239,-159 424.7239,-162.5001 424.7239,-155.5001"/>
</g>
<!-- CollapsibleTitleDirective -->
<g id="node3" class="node">
<title>CollapsibleTitleDirective</title>
<polygon fill="#ffffb3" stroke="#000000" points="438.2949,-122 279.7051,-122 279.7051,-86 438.2949,-86 438.2949,-122"/>
<text text-anchor="middle" x="359" y="-99.8" font-family="Times,serif" font-size="14.00" fill="#000000">CollapsibleTitleDirective</text>
</g>
<!-- CollapsibleTitleDirective&#45;&gt;SemanticModule -->
<g id="edge3" class="edge">
<title>CollapsibleTitleDirective&#45;&gt;SemanticModule</title>
<path fill="none" stroke="#000000" d="M359,-122.1061C359,-122.1061 359,-140.991 359,-140.991"/>
<polygon fill="#000000" stroke="#000000" points="355.5001,-140.9909 359,-150.991 362.5001,-140.991 355.5001,-140.9909"/>
</g>
<!-- TabComponent -->
<g id="node4" class="node">
<title>TabComponent</title>
<polygon fill="#ffffb3" stroke="#000000" points="261.5996,-122 158.4004,-122 158.4004,-86 261.5996,-86 261.5996,-122"/>
<text text-anchor="middle" x="210" y="-99.8" font-family="Times,serif" font-size="14.00" fill="#000000">TabComponent</text>
</g>
<!-- TabComponent&#45;&gt;SemanticModule -->
<g id="edge4" class="edge">
<title>TabComponent&#45;&gt;SemanticModule</title>
<path fill="none" stroke="#000000" d="M226.3499,-122.0091C226.3499,-138.0494 226.3499,-159 226.3499,-159 226.3499,-159 293.1289,-159 293.1289,-159"/>
<polygon fill="#000000" stroke="#000000" points="293.1289,-162.5001 303.1289,-159 293.1289,-155.5001 293.1289,-162.5001"/>
</g>
<!-- TabsComponent -->
<g id="node5" class="node">
<title>TabsComponent</title>
<polygon fill="#ffffb3" stroke="#000000" points="140.0452,-122 31.9548,-122 31.9548,-86 140.0452,-86 140.0452,-122"/>
<text text-anchor="middle" x="86" y="-99.8" font-family="Times,serif" font-size="14.00" fill="#000000">TabsComponent</text>
</g>
<!-- TabsComponent&#45;&gt;SemanticModule -->
<g id="edge5" class="edge">
<title>TabsComponent&#45;&gt;SemanticModule</title>
<path fill="none" stroke="#000000" d="M101.2574,-122.2667C101.2574,-140.5552 101.2574,-166 101.2574,-166 101.2574,-166 293.0737,-166 293.0737,-166"/>
<polygon fill="#000000" stroke="#000000" points="293.0737,-169.5001 303.0737,-166 293.0737,-162.5001 293.0737,-169.5001"/>
</g>
<!-- CollapsibleContentDirective  -->
<g id="node7" class="node">
<title>CollapsibleContentDirective </title>
<polygon fill="#fb8072" stroke="#000000" points="791.6883,-252 612.3117,-252 612.3117,-216 791.6883,-216 791.6883,-252"/>
<text text-anchor="middle" x="702" y="-229.8" font-family="Times,serif" font-size="14.00" fill="#000000">CollapsibleContentDirective </text>
</g>
<!-- SemanticModule&#45;&gt;CollapsibleContentDirective  -->
<g id="edge6" class="edge">
<title>SemanticModule&#45;&gt;CollapsibleContentDirective </title>
<path fill="none" stroke="#000000" stroke-dasharray="5,2" d="M414.7442,-173C503.9381,-173 668.802,-173 668.802,-173 668.802,-173 668.802,-205.698 668.802,-205.698"/>
<polygon fill="#000000" stroke="#000000" points="665.3021,-205.698 668.802,-215.698 672.3021,-205.698 665.3021,-205.698"/>
</g>
<!-- CollapsibleDirective  -->
<g id="node8" class="node">
<title>CollapsibleDirective </title>
<polygon fill="#fb8072" stroke="#000000" points="593.8561,-252 458.1439,-252 458.1439,-216 593.8561,-216 593.8561,-252"/>
<text text-anchor="middle" x="526" y="-229.8" font-family="Times,serif" font-size="14.00" fill="#000000">CollapsibleDirective </text>
</g>
<!-- SemanticModule&#45;&gt;CollapsibleDirective  -->
<g id="edge7" class="edge">
<title>SemanticModule&#45;&gt;CollapsibleDirective </title>
<path fill="none" stroke="#000000" stroke-dasharray="5,2" d="M414.9202,-180C454.8492,-180 501.5241,-180 501.5241,-180 501.5241,-180 501.5241,-205.7181 501.5241,-205.7181"/>
<polygon fill="#000000" stroke="#000000" points="498.0242,-205.718 501.5241,-215.7181 505.0242,-205.7181 498.0242,-205.718"/>
</g>
<!-- CollapsibleTitleDirective  -->
<g id="node9" class="node">
<title>CollapsibleTitleDirective </title>
<polygon fill="#fb8072" stroke="#000000" points="439.7947,-252 278.2053,-252 278.2053,-216 439.7947,-216 439.7947,-252"/>
<text text-anchor="middle" x="359" y="-229.8" font-family="Times,serif" font-size="14.00" fill="#000000">CollapsibleTitleDirective </text>
</g>
<!-- SemanticModule&#45;&gt;CollapsibleTitleDirective  -->
<g id="edge8" class="edge">
<title>SemanticModule&#45;&gt;CollapsibleTitleDirective </title>
<path fill="none" stroke="#000000" stroke-dasharray="5,2" d="M359,-187.1061C359,-187.1061 359,-205.991 359,-205.991"/>
<polygon fill="#000000" stroke="#000000" points="355.5001,-205.9909 359,-215.991 362.5001,-205.991 355.5001,-205.9909"/>
</g>
<!-- TabComponent  -->
<g id="node10" class="node">
<title>TabComponent </title>
<polygon fill="#fb8072" stroke="#000000" points="260.1003,-252 153.8997,-252 153.8997,-216 260.1003,-216 260.1003,-252"/>
<text text-anchor="middle" x="207" y="-229.8" font-family="Times,serif" font-size="14.00" fill="#000000">TabComponent </text>
</g>
<!-- SemanticModule&#45;&gt;TabComponent  -->
<g id="edge9" class="edge">
<title>SemanticModule&#45;&gt;TabComponent </title>
<path fill="none" stroke="#000000" stroke-dasharray="5,2" d="M303.0612,-180C254.6621,-180 192.4001,-180 192.4001,-180 192.4001,-180 192.4001,-205.7181 192.4001,-205.7181"/>
<polygon fill="#000000" stroke="#000000" points="188.9002,-205.718 192.4001,-215.7181 195.9002,-205.7181 188.9002,-205.718"/>
</g>
<!-- TabsComponent  -->
<g id="node11" class="node">
<title>TabsComponent </title>
<polygon fill="#fb8072" stroke="#000000" points="136.0442,-252 23.9558,-252 23.9558,-216 136.0442,-216 136.0442,-252"/>
<text text-anchor="middle" x="80" y="-229.8" font-family="Times,serif" font-size="14.00" fill="#000000">TabsComponent </text>
</g>
<!-- SemanticModule&#45;&gt;TabsComponent  -->
<g id="edge10" class="edge">
<title>SemanticModule&#45;&gt;TabsComponent </title>
<path fill="none" stroke="#000000" stroke-dasharray="5,2" d="M303.2931,-173C218.4248,-173 66.4926,-173 66.4926,-173 66.4926,-173 66.4926,-205.698 66.4926,-205.698"/>
<polygon fill="#000000" stroke="#000000" points="62.9927,-205.698 66.4926,-215.698 69.9927,-205.698 62.9927,-205.698"/>
</g>
</g>
</svg>
