<?xml version="1.0" encoding="UTF-8" standalone="no"?>
<!DOCTYPE svg PUBLIC "-//W3C//DTD SVG 1.1//EN"
 "http://www.w3.org/Graphics/SVG/1.1/DTD/svg11.dtd">
<!-- Generated by graphviz version 2.40.1 (20161225.0304)
 -->
<!-- Title: dependencies Pages: 1 -->
<svg width="1534pt" height="284pt"
 viewBox="0.00 0.00 1534.00 284.00" xmlns="http://www.w3.org/2000/svg" xmlns:xlink="http://www.w3.org/1999/xlink">
<g id="graph0" class="graph" transform="scale(1 1) rotate(0) translate(4 280)">
<title>dependencies</title>
<polygon fill="#ffffff" stroke="transparent" points="-4,4 -4,-280 1530,-280 1530,4 -4,4"/>
<text text-anchor="start" x="742.0091" y="-42.4" font-family="sans-serif" font-weight="bold" font-size="14.00" fill="#000000">Legend</text>
<polygon fill="#ffffb3" stroke="transparent" points="529,-10 529,-30 549,-30 549,-10 529,-10"/>
<text text-anchor="start" x="552.629" y="-15.4" font-family="sans-serif" font-size="14.00" fill="#000000"> &#160;Declarations</text>
<polygon fill="#8dd3c7" stroke="transparent" points="642,-10 642,-30 662,-30 662,-10 642,-10"/>
<text text-anchor="start" x="665.7251" y="-15.4" font-family="sans-serif" font-size="14.00" fill="#000000"> &#160;Module</text>
<polygon fill="#80b1d3" stroke="transparent" points="728,-10 728,-30 748,-30 748,-10 728,-10"/>
<text text-anchor="start" x="751.7812" y="-15.4" font-family="sans-serif" font-size="14.00" fill="#000000"> &#160;Bootstrap</text>
<polygon fill="#fdb462" stroke="transparent" points="825,-10 825,-30 845,-30 845,-10 825,-10"/>
<text text-anchor="start" x="848.6732" y="-15.4" font-family="sans-serif" font-size="14.00" fill="#000000"> &#160;Providers</text>
<polygon fill="#fb8072" stroke="transparent" points="921,-10 921,-30 941,-30 941,-10 921,-10"/>
<text text-anchor="start" x="944.7258" y="-15.4" font-family="sans-serif" font-size="14.00" fill="#000000"> &#160;Exports</text>
<g id="clust1" class="cluster">
<title>cluster_AppModule</title>
<polygon fill="none" stroke="#000000" stroke-dasharray="1,5" points="8,-70 8,-268 1518,-268 1518,-70 8,-70"/>
</g>
<g id="clust2" class="cluster">
<title>cluster_AppModule_declarations</title>
<polygon fill="none" stroke="#000000" points="566,-78 566,-130 1510,-130 1510,-78 566,-78"/>
</g>
<g id="clust10" class="cluster">
<title>cluster_AppModule_imports</title>
<polygon fill="none" stroke="#000000" points="444,-78 444,-130 558,-130 558,-78 444,-78"/>
</g>
<g id="clust12" class="cluster">
<title>cluster_AppModule_bootstrap</title>
<polygon fill="none" stroke="#000000" points="786,-208 786,-260 910,-260 910,-208 786,-208"/>
</g>
<g id="clust13" class="cluster">
<title>cluster_AppModule_providers</title>
<polygon fill="none" stroke="#000000" points="16,-78 16,-130 436,-130 436,-78 16,-78"/>
</g>
<!-- AppComponent -->
<g id="node1" class="node">
<title>AppComponent</title>
<polygon fill="#ffffb3" stroke="#000000" points="1501.9399,-122 1396.0601,-122 1396.0601,-86 1501.9399,-86 1501.9399,-122"/>
<text text-anchor="middle" x="1449" y="-99.8" font-family="Times,serif" font-size="14.00" fill="#000000">AppComponent</text>
</g>
<!-- AppModule -->
<g id="node8" class="node">
<title>AppModule</title>
<polygon fill="#8dd3c7" stroke="#000000" points="889.6571,-187 886.6571,-191 865.6571,-191 862.6571,-187 806.3429,-187 806.3429,-151 889.6571,-151 889.6571,-187"/>
<text text-anchor="middle" x="848" y="-164.8" font-family="Times,serif" font-size="14.00" fill="#000000">AppModule</text>
</g>
<!-- AppComponent&#45;&gt;AppModule -->
<g id="edge1" class="edge">
<title>AppComponent&#45;&gt;AppModule</title>
<path fill="none" stroke="#000000" d="M1449,-122.0109C1449,-144.4852 1449,-180 1449,-180 1449,-180 899.784,-180 899.784,-180"/>
<polygon fill="#000000" stroke="#000000" points="899.784,-176.5001 889.784,-180 899.784,-183.5001 899.784,-176.5001"/>
</g>
<!-- BackgroundVideoComponent -->
<g id="node2" class="node">
<title>BackgroundVideoComponent</title>
<polygon fill="#ffffb3" stroke="#000000" points="1377.9706,-122 1194.0294,-122 1194.0294,-86 1377.9706,-86 1377.9706,-122"/>
<text text-anchor="middle" x="1286" y="-99.8" font-family="Times,serif" font-size="14.00" fill="#000000">BackgroundVideoComponent</text>
</g>
<!-- BackgroundVideoComponent&#45;&gt;AppModule -->
<g id="edge2" class="edge">
<title>BackgroundVideoComponent&#45;&gt;AppModule</title>
<path fill="none" stroke="#000000" d="M1286,-122.1289C1286,-142.5724 1286,-173 1286,-173 1286,-173 899.9973,-173 899.9973,-173"/>
<polygon fill="#000000" stroke="#000000" points="899.9973,-169.5001 889.9973,-173 899.9972,-176.5001 899.9973,-169.5001"/>
</g>
<!-- ErrorView -->
<g id="node3" class="node">
<title>ErrorView</title>
<polygon fill="#ffffb3" stroke="#000000" points="1175.8529,-122 1100.1471,-122 1100.1471,-86 1175.8529,-86 1175.8529,-122"/>
<text text-anchor="middle" x="1138" y="-99.8" font-family="Times,serif" font-size="14.00" fill="#000000">ErrorView</text>
</g>
<!-- ErrorView&#45;&gt;AppModule -->
<g id="edge3" class="edge">
<title>ErrorView&#45;&gt;AppModule</title>
<path fill="none" stroke="#000000" d="M1138,-122.2667C1138,-140.5552 1138,-166 1138,-166 1138,-166 899.8588,-166 899.8588,-166"/>
<polygon fill="#000000" stroke="#000000" points="899.8588,-162.5001 889.8588,-166 899.8587,-169.5001 899.8588,-162.5001"/>
</g>
<!-- LoginComponent -->
<g id="node4" class="node">
<title>LoginComponent</title>
<polygon fill="#ffffb3" stroke="#000000" points="1082.2758,-122 967.7242,-122 967.7242,-86 1082.2758,-86 1082.2758,-122"/>
<text text-anchor="middle" x="1025" y="-99.8" font-family="Times,serif" font-size="14.00" fill="#000000">LoginComponent</text>
</g>
<!-- LoginComponent&#45;&gt;AppModule -->
<g id="edge4" class="edge">
<title>LoginComponent&#45;&gt;AppModule</title>
<path fill="none" stroke="#000000" d="M1025,-122.0091C1025,-138.0494 1025,-159 1025,-159 1025,-159 899.9465,-159 899.9465,-159"/>
<polygon fill="#000000" stroke="#000000" points="899.9466,-155.5001 889.9465,-159 899.9465,-162.5001 899.9466,-155.5001"/>
</g>
<!-- LoginView -->
<g id="node5" class="node">
<title>LoginView</title>
<polygon fill="#ffffb3" stroke="#000000" points="949.762,-122 870.238,-122 870.238,-86 949.762,-86 949.762,-122"/>
<text text-anchor="middle" x="910" y="-99.8" font-family="Times,serif" font-size="14.00" fill="#000000">LoginView</text>
</g>
<!-- LoginView&#45;&gt;AppModule -->
<g id="edge5" class="edge">
<title>LoginView&#45;&gt;AppModule</title>
<path fill="none" stroke="#000000" d="M879.9737,-122.1061C879.9737,-122.1061 879.9737,-140.991 879.9737,-140.991"/>
<polygon fill="#000000" stroke="#000000" points="876.4738,-140.9909 879.9737,-150.991 883.4738,-140.991 876.4738,-140.9909"/>
</g>
<!-- NotFoundErrorView -->
<g id="node6" class="node">
<title>NotFoundErrorView</title>
<polygon fill="#ffffb3" stroke="#000000" points="852.1331,-122 719.8669,-122 719.8669,-86 852.1331,-86 852.1331,-122"/>
<text text-anchor="middle" x="786" y="-99.8" font-family="Times,serif" font-size="14.00" fill="#000000">NotFoundErrorView</text>
</g>
<!-- NotFoundErrorView&#45;&gt;AppModule -->
<g id="edge6" class="edge">
<title>NotFoundErrorView&#45;&gt;AppModule</title>
<path fill="none" stroke="#000000" d="M829.2441,-122.1061C829.2441,-122.1061 829.2441,-140.991 829.2441,-140.991"/>
<polygon fill="#000000" stroke="#000000" points="825.7441,-140.9909 829.2441,-150.991 832.7441,-140.991 825.7441,-140.9909"/>
</g>
<!-- RegisterComponent -->
<g id="node7" class="node">
<title>RegisterComponent</title>
<polygon fill="#ffffb3" stroke="#000000" points="701.9846,-122 574.0154,-122 574.0154,-86 701.9846,-86 701.9846,-122"/>
<text text-anchor="middle" x="638" y="-99.8" font-family="Times,serif" font-size="14.00" fill="#000000">RegisterComponent</text>
</g>
<!-- RegisterComponent&#45;&gt;AppModule -->
<g id="edge7" class="edge">
<title>RegisterComponent&#45;&gt;AppModule</title>
<path fill="none" stroke="#000000" d="M638,-122.0091C638,-138.0494 638,-159 638,-159 638,-159 796.2597,-159 796.2597,-159"/>
<polygon fill="#000000" stroke="#000000" points="796.2597,-162.5001 806.2597,-159 796.2596,-155.5001 796.2597,-162.5001"/>
</g>
<!-- AppComponent  -->
<g id="node10" class="node">
<title>AppComponent </title>
<polygon fill="#80b1d3" stroke="#000000" points="902.439,-252 793.561,-252 793.561,-216 902.439,-216 902.439,-252"/>
<text text-anchor="middle" x="848" y="-229.8" font-family="Times,serif" font-size="14.00" fill="#000000">AppComponent </text>
</g>
<!-- AppModule&#45;&gt;AppComponent  -->
<g id="edge9" class="edge">
<title>AppModule&#45;&gt;AppComponent </title>
<path fill="none" stroke="#000000" stroke-dasharray="1,5" d="M848,-187.1061C848,-187.1061 848,-205.991 848,-205.991"/>
<polygon fill="#000000" stroke="#000000" points="844.5001,-205.9909 848,-215.991 851.5001,-205.991 844.5001,-205.9909"/>
</g>
<!-- SharedModule -->
<g id="node9" class="node">
<title>SharedModule</title>
<polygon fill="#8dd3c7" stroke="#000000" points="550.4231,-122 547.4231,-126 526.4231,-126 523.4231,-122 451.5769,-122 451.5769,-86 550.4231,-86 550.4231,-122"/>
<text text-anchor="middle" x="501" y="-99.8" font-family="Times,serif" font-size="14.00" fill="#000000">SharedModule</text>
</g>
<!-- SharedModule&#45;&gt;AppModule -->
<g id="edge8" class="edge">
<title>SharedModule&#45;&gt;AppModule</title>
<path fill="none" stroke="#000000" d="M501,-122.2667C501,-140.5552 501,-166 501,-166 501,-166 796.1437,-166 796.1437,-166"/>
<polygon fill="#000000" stroke="#000000" points="796.1437,-169.5001 806.1437,-166 796.1437,-162.5001 796.1437,-169.5001"/>
</g>
<!-- AuthenticatedGuard -->
<g id="node11" class="node">
<title>AuthenticatedGuard</title>
<ellipse fill="#fdb462" stroke="#000000" cx="339" cy="-104" rx="89.1665" ry="18"/>
<text text-anchor="middle" x="339" y="-99.8" font-family="Times,serif" font-size="14.00" fill="#000000">AuthenticatedGuard</text>
</g>
<!-- AuthenticatedGuard&#45;&gt;AppModule -->
<g id="edge10" class="edge">
<title>AuthenticatedGuard&#45;&gt;AppModule</title>
<path fill="none" stroke="#000000" d="M339,-122.1289C339,-142.5724 339,-173 339,-173 339,-173 795.9134,-173 795.9134,-173"/>
<polygon fill="#000000" stroke="#000000" points="795.9134,-176.5001 805.9134,-173 795.9133,-169.5001 795.9134,-176.5001"/>
</g>
<!-- NotAuthenticatedGuard -->
<g id="node12" class="node">
<title>NotAuthenticatedGuard</title>
<ellipse fill="#fdb462" stroke="#000000" cx="128" cy="-104" rx="103.6335" ry="18"/>
<text text-anchor="middle" x="128" y="-99.8" font-family="Times,serif" font-size="14.00" fill="#000000">NotAuthenticatedGuard</text>
</g>
<!-- NotAuthenticatedGuard&#45;&gt;AppModule -->
<g id="edge11" class="edge">
<title>NotAuthenticatedGuard&#45;&gt;AppModule</title>
<path fill="none" stroke="#000000" d="M128,-122.0109C128,-144.4852 128,-180 128,-180 128,-180 796.1777,-180 796.1777,-180"/>
<polygon fill="#000000" stroke="#000000" points="796.1777,-183.5001 806.1777,-180 796.1776,-176.5001 796.1777,-183.5001"/>
</g>
</g>
</svg>
