<?xml version="1.0" encoding="UTF-8" standalone="no"?>
<!DOCTYPE svg PUBLIC "-//W3C//DTD SVG 1.1//EN"
 "http://www.w3.org/Graphics/SVG/1.1/DTD/svg11.dtd">
<!-- Generated by graphviz version 2.40.1 (20161225.0304)
 -->
<!-- Title: dependencies Pages: 1 -->
<svg width="2166pt" height="284pt"
 viewBox="0.00 0.00 2166.00 284.00" xmlns="http://www.w3.org/2000/svg" xmlns:xlink="http://www.w3.org/1999/xlink">
<g id="graph0" class="graph" transform="scale(1 1) rotate(0) translate(4 280)">
<title>dependencies</title>
<polygon fill="#ffffff" stroke="transparent" points="-4,4 -4,-280 2162,-280 2162,4 -4,4"/>
<text text-anchor="start" x="1058.0091" y="-42.4" font-family="sans-serif" font-weight="bold" font-size="14.00" fill="#000000">Legend</text>
<polygon fill="#ffffb3" stroke="transparent" points="845,-10 845,-30 865,-30 865,-10 845,-10"/>
<text text-anchor="start" x="868.629" y="-15.4" font-family="sans-serif" font-size="14.00" fill="#000000"> &#160;Declarations</text>
<polygon fill="#8dd3c7" stroke="transparent" points="958,-10 958,-30 978,-30 978,-10 958,-10"/>
<text text-anchor="start" x="981.7251" y="-15.4" font-family="sans-serif" font-size="14.00" fill="#000000"> &#160;Module</text>
<polygon fill="#80b1d3" stroke="transparent" points="1044,-10 1044,-30 1064,-30 1064,-10 1044,-10"/>
<text text-anchor="start" x="1067.7812" y="-15.4" font-family="sans-serif" font-size="14.00" fill="#000000"> &#160;Bootstrap</text>
<polygon fill="#fdb462" stroke="transparent" points="1141,-10 1141,-30 1161,-30 1161,-10 1141,-10"/>
<text text-anchor="start" x="1164.6732" y="-15.4" font-family="sans-serif" font-size="14.00" fill="#000000"> &#160;Providers</text>
<polygon fill="#fb8072" stroke="transparent" points="1237,-10 1237,-30 1257,-30 1257,-10 1237,-10"/>
<text text-anchor="start" x="1260.7258" y="-15.4" font-family="sans-serif" font-size="14.00" fill="#000000"> &#160;Exports</text>
<g id="clust1" class="cluster">
<title>cluster_AppModule</title>
<polygon fill="none" stroke="#000000" stroke-dasharray="1,5" points="8,-70 8,-268 2150,-268 2150,-70 8,-70"/>
</g>
<g id="clust2" class="cluster">
<title>cluster_AppModule_declarations</title>
<polygon fill="none" stroke="#000000" points="1870,-78 1870,-130 2142,-130 2142,-78 1870,-78"/>
</g>
<g id="clust5" class="cluster">
<title>cluster_AppModule_imports</title>
<polygon fill="none" stroke="#000000" points="952,-78 952,-130 1862,-130 1862,-78 952,-78"/>
</g>
<g id="clust7" class="cluster">
<title>cluster_AppModule_bootstrap</title>
<polygon fill="none" stroke="#000000" points="1434,-208 1434,-260 1558,-260 1558,-208 1434,-208"/>
</g>
<g id="clust8" class="cluster">
<title>cluster_AppModule_providers</title>
<polygon fill="none" stroke="#000000" points="16,-78 16,-130 944,-130 944,-78 16,-78"/>
</g>
<!-- AppComponent -->
<g id="node1" class="node">
<title>AppComponent</title>
<polygon fill="#ffffb3" stroke="#000000" points="2133.9399,-122 2028.0601,-122 2028.0601,-86 2133.9399,-86 2133.9399,-122"/>
<text text-anchor="middle" x="2081" y="-99.8" font-family="Times,serif" font-size="14.00" fill="#000000">AppComponent</text>
</g>
<!-- AppModule -->
<g id="node3" class="node">
<title>AppModule</title>
<polygon fill="#8dd3c7" stroke="#000000" points="1537.6571,-187 1534.6571,-191 1513.6571,-191 1510.6571,-187 1454.3429,-187 1454.3429,-151 1537.6571,-151 1537.6571,-187"/>
<text text-anchor="middle" x="1496" y="-164.8" font-family="Times,serif" font-size="14.00" fill="#000000">AppModule</text>
</g>
<!-- AppComponent&#45;&gt;AppModule -->
<g id="edge1" class="edge">
<title>AppComponent&#45;&gt;AppModule</title>
<path fill="none" stroke="#000000" d="M2081,-122.0109C2081,-144.4852 2081,-180 2081,-180 2081,-180 1548.0718,-180 1548.0718,-180"/>
<polygon fill="#000000" stroke="#000000" points="1548.0718,-176.5001 1538.0718,-180 1548.0717,-183.5001 1548.0718,-176.5001"/>
</g>
<!-- NotFoundErrorView -->
<g id="node2" class="node">
<title>NotFoundErrorView</title>
<polygon fill="#ffffb3" stroke="#000000" points="2010.1331,-122 1877.8669,-122 1877.8669,-86 2010.1331,-86 2010.1331,-122"/>
<text text-anchor="middle" x="1944" y="-99.8" font-family="Times,serif" font-size="14.00" fill="#000000">NotFoundErrorView</text>
</g>
<!-- NotFoundErrorView&#45;&gt;AppModule -->
<g id="edge2" class="edge">
<title>NotFoundErrorView&#45;&gt;AppModule</title>
<path fill="none" stroke="#000000" d="M1944,-122.1289C1944,-142.5724 1944,-173 1944,-173 1944,-173 1547.7445,-173 1547.7445,-173"/>
<polygon fill="#000000" stroke="#000000" points="1547.7445,-169.5001 1537.7445,-173 1547.7444,-176.5001 1547.7445,-169.5001"/>
</g>
<!-- AppComponent  -->
<g id="node9" class="node">
<title>AppComponent </title>
<polygon fill="#80b1d3" stroke="#000000" points="1550.439,-252 1441.561,-252 1441.561,-216 1550.439,-216 1550.439,-252"/>
<text text-anchor="middle" x="1496" y="-229.8" font-family="Times,serif" font-size="14.00" fill="#000000">AppComponent </text>
</g>
<!-- AppModule&#45;&gt;AppComponent  -->
<g id="edge8" class="edge">
<title>AppModule&#45;&gt;AppComponent </title>
<path fill="none" stroke="#000000" stroke-dasharray="1,5" d="M1496,-187.1061C1496,-187.1061 1496,-205.991 1496,-205.991"/>
<polygon fill="#000000" stroke="#000000" points="1492.5001,-205.9909 1496,-215.991 1499.5001,-205.991 1492.5001,-205.9909"/>
</g>
<!-- BrowserModule -->
<g id="node4" class="node">
<title>BrowserModule</title>
<polygon fill="#8dd3c7" stroke="#000000" points="1854.4734,-122 1851.4734,-126 1830.4734,-126 1827.4734,-122 1747.5266,-122 1747.5266,-86 1854.4734,-86 1854.4734,-122"/>
<text text-anchor="middle" x="1801" y="-99.8" font-family="Times,serif" font-size="14.00" fill="#000000">BrowserModule</text>
</g>
<!-- BrowserModule&#45;&gt;AppModule -->
<g id="edge3" class="edge">
<title>BrowserModule&#45;&gt;AppModule</title>
<path fill="none" stroke="#000000" d="M1801,-122.2667C1801,-140.5552 1801,-166 1801,-166 1801,-166 1547.7694,-166 1547.7694,-166"/>
<polygon fill="#000000" stroke="#000000" points="1547.7695,-162.5001 1537.7694,-166 1547.7694,-169.5001 1547.7695,-162.5001"/>
</g>
<!-- AppRoutingModule -->
<g id="node5" class="node">
<title>AppRoutingModule</title>
<polygon fill="#8dd3c7" stroke="#000000" points="1729.2744,-122 1726.2744,-126 1705.2744,-126 1702.2744,-122 1600.7256,-122 1600.7256,-86 1729.2744,-86 1729.2744,-122"/>
<text text-anchor="middle" x="1665" y="-99.8" font-family="Times,serif" font-size="14.00" fill="#000000">AppRoutingModule</text>
</g>
<!-- AppRoutingModule&#45;&gt;AppModule -->
<g id="edge4" class="edge">
<title>AppRoutingModule&#45;&gt;AppModule</title>
<path fill="none" stroke="#000000" d="M1665,-122.0091C1665,-138.0494 1665,-159 1665,-159 1665,-159 1547.7753,-159 1547.7753,-159"/>
<polygon fill="#000000" stroke="#000000" points="1547.7753,-155.5001 1537.7753,-159 1547.7753,-162.5001 1547.7753,-155.5001"/>
</g>
<!-- BrowserAnimationsModule -->
<g id="node6" class="node">
<title>BrowserAnimationsModule</title>
<polygon fill="#8dd3c7" stroke="#000000" points="1582.3019,-122 1579.3019,-126 1558.3019,-126 1555.3019,-122 1409.6981,-122 1409.6981,-86 1582.3019,-86 1582.3019,-122"/>
<text text-anchor="middle" x="1496" y="-99.8" font-family="Times,serif" font-size="14.00" fill="#000000">BrowserAnimationsModule</text>
</g>
<!-- BrowserAnimationsModule&#45;&gt;AppModule -->
<g id="edge5" class="edge">
<title>BrowserAnimationsModule&#45;&gt;AppModule</title>
<path fill="none" stroke="#000000" d="M1496,-122.1061C1496,-122.1061 1496,-140.991 1496,-140.991"/>
<polygon fill="#000000" stroke="#000000" points="1492.5001,-140.9909 1496,-150.991 1499.5001,-140.991 1492.5001,-140.9909"/>
</g>
<!-- ServiceWorkerModule.register(args) -->
<g id="node7" class="node">
<title>ServiceWorkerModule.register(args)</title>
<polygon fill="#8dd3c7" stroke="#000000" points="1392.3954,-122 1389.3954,-126 1368.3954,-126 1365.3954,-122 1169.6046,-122 1169.6046,-86 1392.3954,-86 1392.3954,-122"/>
<text text-anchor="middle" x="1281" y="-99.8" font-family="Times,serif" font-size="14.00" fill="#000000">ServiceWorkerModule.register(args)</text>
</g>
<!-- ServiceWorkerModule.register(args)&#45;&gt;AppModule -->
<g id="edge6" class="edge">
<title>ServiceWorkerModule.register(args)&#45;&gt;AppModule</title>
<path fill="none" stroke="#000000" d="M1281,-122.0091C1281,-138.0494 1281,-159 1281,-159 1281,-159 1444.2909,-159 1444.2909,-159"/>
<polygon fill="#000000" stroke="#000000" points="1444.2909,-162.5001 1454.2909,-159 1444.2909,-155.5001 1444.2909,-162.5001"/>
</g>
<!-- AppCommonModule.forRoot() -->
<g id="node8" class="node">
<title>AppCommonModule.forRoot()</title>
<polygon fill="#8dd3c7" stroke="#000000" points="1152.1439,-122 1149.1439,-126 1128.1439,-126 1125.1439,-122 959.8561,-122 959.8561,-86 1152.1439,-86 1152.1439,-122"/>
<text text-anchor="middle" x="1056" y="-99.8" font-family="Times,serif" font-size="14.00" fill="#000000">AppCommonModule.forRoot()</text>
</g>
<!-- AppCommonModule.forRoot()&#45;&gt;AppModule -->
<g id="edge7" class="edge">
<title>AppCommonModule.forRoot()&#45;&gt;AppModule</title>
<path fill="none" stroke="#000000" d="M1056,-122.2667C1056,-140.5552 1056,-166 1056,-166 1056,-166 1444.2092,-166 1444.2092,-166"/>
<polygon fill="#000000" stroke="#000000" points="1444.2092,-169.5001 1454.2092,-166 1444.2092,-162.5001 1444.2092,-169.5001"/>
</g>
<!-- { provide: APP_BASE_HREF, useFactory: () =&gt; {} } -->
<g id="node10" class="node">
<title>{ provide: APP_BASE_HREF, useFactory: () =&gt; {} }</title>
<ellipse fill="#fdb462" stroke="#000000" cx="716" cy="-104" rx="220.3328" ry="18"/>
<text text-anchor="middle" x="716" y="-99.8" font-family="Times,serif" font-size="14.00" fill="#000000">{ provide: APP_BASE_HREF, useFactory: () =&gt; {} }</text>
</g>
<!-- { provide: APP_BASE_HREF, useFactory: () =&gt; {} }&#45;&gt;AppModule -->
<g id="edge9" class="edge">
<title>{ provide: APP_BASE_HREF, useFactory: () =&gt; {} }&#45;&gt;AppModule</title>
<path fill="none" stroke="#000000" d="M716,-122.1289C716,-142.5724 716,-173 716,-173 716,-173 1444.3396,-173 1444.3396,-173"/>
<polygon fill="#000000" stroke="#000000" points="1444.3396,-176.5001 1454.3396,-173 1444.3395,-169.5001 1444.3396,-176.5001"/>
</g>
<!-- { provide: CarbonLDP, useFactory: carbonldpFactory } -->
<g id="node11" class="node">
<title>{ provide: CarbonLDP, useFactory: carbonldpFactory }</title>
<ellipse fill="#fdb462" stroke="#000000" cx="251" cy="-104" rx="226.6053" ry="18"/>
<text text-anchor="middle" x="251" y="-99.8" font-family="Times,serif" font-size="14.00" fill="#000000">{ provide: CarbonLDP, useFactory: carbonldpFactory }</text>
</g>
<!-- { provide: CarbonLDP, useFactory: carbonldpFactory }&#45;&gt;AppModule -->
<g id="edge10" class="edge">
<title>{ provide: CarbonLDP, useFactory: carbonldpFactory }&#45;&gt;AppModule</title>
<path fill="none" stroke="#000000" d="M251,-122.0109C251,-144.4852 251,-180 251,-180 251,-180 1444.2206,-180 1444.2206,-180"/>
<polygon fill="#000000" stroke="#000000" points="1444.2207,-183.5001 1454.2206,-180 1444.2206,-176.5001 1444.2207,-183.5001"/>
</g>
</g>
</svg>
