<?xml version="1.0" encoding="UTF-8" standalone="no"?>
<!DOCTYPE svg PUBLIC "-//W3C//DTD SVG 1.1//EN"
 "http://www.w3.org/Graphics/SVG/1.1/DTD/svg11.dtd">
<!-- Generated by graphviz version 2.40.1 (20161225.0304)
 -->
<!-- Title: dependencies Pages: 1 -->
<svg width="1374pt" height="284pt"
 viewBox="0.00 0.00 1374.00 284.00" xmlns="http://www.w3.org/2000/svg" xmlns:xlink="http://www.w3.org/1999/xlink">
<g id="graph0" class="graph" transform="scale(1 1) rotate(0) translate(4 280)">
<title>dependencies</title>
<polygon fill="#ffffff" stroke="transparent" points="-4,4 -4,-280 1370,-280 1370,4 -4,4"/>
<text text-anchor="start" x="662.0091" y="-42.4" font-family="sans-serif" font-weight="bold" font-size="14.00" fill="#000000">Legend</text>
<polygon fill="#ffffb3" stroke="transparent" points="449,-10 449,-30 469,-30 469,-10 449,-10"/>
<text text-anchor="start" x="472.629" y="-15.4" font-family="sans-serif" font-size="14.00" fill="#000000"> &#160;Declarations</text>
<polygon fill="#8dd3c7" stroke="transparent" points="562,-10 562,-30 582,-30 582,-10 562,-10"/>
<text text-anchor="start" x="585.7251" y="-15.4" font-family="sans-serif" font-size="14.00" fill="#000000"> &#160;Module</text>
<polygon fill="#80b1d3" stroke="transparent" points="648,-10 648,-30 668,-30 668,-10 648,-10"/>
<text text-anchor="start" x="671.7812" y="-15.4" font-family="sans-serif" font-size="14.00" fill="#000000"> &#160;Bootstrap</text>
<polygon fill="#fdb462" stroke="transparent" points="745,-10 745,-30 765,-30 765,-10 745,-10"/>
<text text-anchor="start" x="768.6732" y="-15.4" font-family="sans-serif" font-size="14.00" fill="#000000"> &#160;Providers</text>
<polygon fill="#fb8072" stroke="transparent" points="841,-10 841,-30 861,-30 861,-10 841,-10"/>
<text text-anchor="start" x="864.7258" y="-15.4" font-family="sans-serif" font-size="14.00" fill="#000000"> &#160;Exports</text>
<g id="clust1" class="cluster">
<title>cluster_SharedModule</title>
<polygon fill="none" stroke="#000000" stroke-dasharray="1,5" points="8,-70 8,-268 1358,-268 1358,-70 8,-70"/>
</g>
<g id="clust2" class="cluster">
<title>cluster_SharedModule_declarations</title>
<polygon fill="none" stroke="#000000" points="171,-78 171,-130 1214,-130 1214,-78 171,-78"/>
</g>
<g id="clust10" class="cluster">
<title>cluster_SharedModule_exports</title>
<polygon fill="none" stroke="#000000" points="16,-208 16,-260 1350,-260 1350,-208 16,-208"/>
</g>
<!-- CodeMirrorComponent.Class -->
<g id="node1" class="node">
<title>CodeMirrorComponent.Class</title>
<polygon fill="#ffffb3" stroke="#000000" points="1206.0316,-122 1023.9684,-122 1023.9684,-86 1206.0316,-86 1206.0316,-122"/>
<text text-anchor="middle" x="1115" y="-99.8" font-family="Times,serif" font-size="14.00" fill="#000000">CodeMirrorComponent.Class</text>
</g>
<!-- SharedModule -->
<g id="node7" class="node">
<title>SharedModule</title>
<polygon fill="#8dd3c7" stroke="#000000" points="734.4231,-187 731.4231,-191 710.4231,-191 707.4231,-187 635.5769,-187 635.5769,-151 734.4231,-151 734.4231,-187"/>
<text text-anchor="middle" x="685" y="-164.8" font-family="Times,serif" font-size="14.00" fill="#000000">SharedModule</text>
</g>
<!-- CodeMirrorComponent.Class&#45;&gt;SharedModule -->
<g id="edge1" class="edge">
<title>CodeMirrorComponent.Class&#45;&gt;SharedModule</title>
<path fill="none" stroke="#000000" d="M1062.0857,-122.0225C1062.0857,-139.3734 1062.0857,-163 1062.0857,-163 1062.0857,-163 744.2974,-163 744.2974,-163"/>
<polygon fill="#000000" stroke="#000000" points="744.2974,-159.5001 734.2974,-163 744.2973,-166.5001 744.2974,-159.5001"/>
</g>
<!-- ErrorLabelComponent -->
<g id="node2" class="node">
<title>ErrorLabelComponent</title>
<polygon fill="#ffffb3" stroke="#000000" points="1006.2394,-122 863.7606,-122 863.7606,-86 1006.2394,-86 1006.2394,-122"/>
<text text-anchor="middle" x="935" y="-99.8" font-family="Times,serif" font-size="14.00" fill="#000000">ErrorLabelComponent</text>
</g>
<!-- ErrorLabelComponent&#45;&gt;SharedModule -->
<g id="edge2" class="edge">
<title>ErrorLabelComponent&#45;&gt;SharedModule</title>
<path fill="none" stroke="#000000" d="M931.875,-122.2396C931.875,-137.5706 931.875,-157 931.875,-157 931.875,-157 744.3655,-157 744.3655,-157"/>
<polygon fill="#000000" stroke="#000000" points="744.3655,-153.5001 734.3655,-157 744.3655,-160.5001 744.3655,-153.5001"/>
</g>
<!-- MessageComponent -->
<g id="node3" class="node">
<title>MessageComponent</title>
<polygon fill="#ffffb3" stroke="#000000" points="845.3104,-122 714.6896,-122 714.6896,-86 845.3104,-86 845.3104,-122"/>
<text text-anchor="middle" x="780" y="-99.8" font-family="Times,serif" font-size="14.00" fill="#000000">MessageComponent</text>
</g>
<!-- MessageComponent&#45;&gt;SharedModule -->
<g id="edge3" class="edge">
<title>MessageComponent&#45;&gt;SharedModule</title>
<path fill="none" stroke="#000000" d="M724.5281,-122.1061C724.5281,-122.1061 724.5281,-140.991 724.5281,-140.991"/>
<polygon fill="#000000" stroke="#000000" points="721.0281,-140.9909 724.5281,-150.991 728.0281,-140.991 721.0281,-140.9909"/>
</g>
<!-- MessagesAreaComponent -->
<g id="node4" class="node">
<title>MessagesAreaComponent</title>
<polygon fill="#ffffb3" stroke="#000000" points="696.451,-122 533.549,-122 533.549,-86 696.451,-86 696.451,-122"/>
<text text-anchor="middle" x="615" y="-99.8" font-family="Times,serif" font-size="14.00" fill="#000000">MessagesAreaComponent</text>
</g>
<!-- MessagesAreaComponent&#45;&gt;SharedModule -->
<g id="edge4" class="edge">
<title>MessagesAreaComponent&#45;&gt;SharedModule</title>
<path fill="none" stroke="#000000" d="M666.1322,-122.1061C666.1322,-122.1061 666.1322,-140.991 666.1322,-140.991"/>
<polygon fill="#000000" stroke="#000000" points="662.6323,-140.9909 666.1322,-150.991 669.6323,-140.991 662.6323,-140.9909"/>
</g>
<!-- PaginatorComponent -->
<g id="node5" class="node">
<title>PaginatorComponent</title>
<polygon fill="#ffffb3" stroke="#000000" points="515.486,-122 380.514,-122 380.514,-86 515.486,-86 515.486,-122"/>
<text text-anchor="middle" x="448" y="-99.8" font-family="Times,serif" font-size="14.00" fill="#000000">PaginatorComponent</text>
</g>
<!-- PaginatorComponent&#45;&gt;SharedModule -->
<g id="edge5" class="edge">
<title>PaginatorComponent&#45;&gt;SharedModule</title>
<path fill="none" stroke="#000000" d="M507.868,-122.2396C507.868,-137.5706 507.868,-157 507.868,-157 507.868,-157 625.6589,-157 625.6589,-157"/>
<polygon fill="#000000" stroke="#000000" points="625.6589,-160.5001 635.6589,-157 625.6588,-153.5001 625.6589,-160.5001"/>
</g>
<!-- VersionsPresenterComponent -->
<g id="node6" class="node">
<title>VersionsPresenterComponent</title>
<polygon fill="#ffffb3" stroke="#000000" points="362.6769,-122 179.3231,-122 179.3231,-86 362.6769,-86 362.6769,-122"/>
<text text-anchor="middle" x="271" y="-99.8" font-family="Times,serif" font-size="14.00" fill="#000000">VersionsPresenterComponent</text>
</g>
<!-- VersionsPresenterComponent&#45;&gt;SharedModule -->
<g id="edge6" class="edge">
<title>VersionsPresenterComponent&#45;&gt;SharedModule</title>
<path fill="none" stroke="#000000" d="M352.6655,-122.0225C352.6655,-139.3734 352.6655,-163 352.6655,-163 352.6655,-163 625.605,-163 625.605,-163"/>
<polygon fill="#000000" stroke="#000000" points="625.6051,-166.5001 635.605,-163 625.605,-159.5001 625.6051,-166.5001"/>
</g>
<!-- CodeMirrorComponent.Class  -->
<g id="node8" class="node">
<title>CodeMirrorComponent.Class </title>
<polygon fill="#fb8072" stroke="#000000" points="1341.5322,-252 1156.4678,-252 1156.4678,-216 1341.5322,-216 1341.5322,-252"/>
<text text-anchor="middle" x="1249" y="-229.8" font-family="Times,serif" font-size="14.00" fill="#000000">CodeMirrorComponent.Class </text>
</g>
<!-- SharedModule&#45;&gt;CodeMirrorComponent.Class  -->
<g id="edge7" class="edge">
<title>SharedModule&#45;&gt;CodeMirrorComponent.Class </title>
<path fill="none" stroke="#000000" stroke-dasharray="5,2" d="M734.3842,-169C859.8732,-169 1181.125,-169 1181.125,-169 1181.125,-169 1181.125,-205.8939 1181.125,-205.8939"/>
<polygon fill="#000000" stroke="#000000" points="1177.6251,-205.8938 1181.125,-215.8939 1184.6251,-205.8939 1177.6251,-205.8938"/>
</g>
<!-- DirectivesModule  -->
<g id="node9" class="node">
<title>DirectivesModule </title>
<polygon fill="#fb8072" stroke="#000000" points="1138.0779,-252 1017.9221,-252 1017.9221,-216 1138.0779,-216 1138.0779,-252"/>
<text text-anchor="middle" x="1078" y="-229.8" font-family="Times,serif" font-size="14.00" fill="#000000">DirectivesModule </text>
</g>
<!-- SharedModule&#45;&gt;DirectivesModule  -->
<g id="edge8" class="edge">
<title>SharedModule&#45;&gt;DirectivesModule </title>
<path fill="none" stroke="#000000" stroke-dasharray="5,2" d="M734.2578,-175C844.2366,-175 1100.1871,-175 1100.1871,-175 1100.1871,-175 1100.1871,-205.9775 1100.1871,-205.9775"/>
<polygon fill="#000000" stroke="#000000" points="1096.6872,-205.9774 1100.1871,-215.9775 1103.6872,-205.9775 1096.6872,-205.9774"/>
</g>
<!-- ErrorLabelComponent  -->
<g id="node10" class="node">
<title>ErrorLabelComponent </title>
<polygon fill="#fb8072" stroke="#000000" points="1000.2394,-252 853.7606,-252 853.7606,-216 1000.2394,-216 1000.2394,-252"/>
<text text-anchor="middle" x="927" y="-229.8" font-family="Times,serif" font-size="14.00" fill="#000000">ErrorLabelComponent </text>
</g>
<!-- SharedModule&#45;&gt;ErrorLabelComponent  -->
<g id="edge9" class="edge">
<title>SharedModule&#45;&gt;ErrorLabelComponent </title>
<path fill="none" stroke="#000000" stroke-dasharray="5,2" d="M734.3266,-181C785.6963,-181 858.7554,-181 858.7554,-181 858.7554,-181 858.7554,-205.7604 858.7554,-205.7604"/>
<polygon fill="#000000" stroke="#000000" points="855.2555,-205.7604 858.7554,-215.7604 862.2555,-205.7604 855.2555,-205.7604"/>
</g>
<!-- MessageComponent  -->
<g id="node11" class="node">
<title>MessageComponent </title>
<polygon fill="#fb8072" stroke="#000000" points="835.8101,-252 702.1899,-252 702.1899,-216 835.8101,-216 835.8101,-252"/>
<text text-anchor="middle" x="769" y="-229.8" font-family="Times,serif" font-size="14.00" fill="#000000">MessageComponent </text>
</g>
<!-- SharedModule&#45;&gt;MessageComponent  -->
<g id="edge10" class="edge">
<title>SharedModule&#45;&gt;MessageComponent </title>
<path fill="none" stroke="#000000" stroke-dasharray="5,2" d="M718.1531,-187.1061C718.1531,-187.1061 718.1531,-205.991 718.1531,-205.991"/>
<polygon fill="#000000" stroke="#000000" points="714.6531,-205.9909 718.1531,-215.991 721.6531,-205.991 714.6531,-205.9909"/>
</g>
<!-- MessagesAreaComponent  -->
<g id="node12" class="node">
<title>MessagesAreaComponent </title>
<polygon fill="#fb8072" stroke="#000000" points="684.4516,-252 517.5484,-252 517.5484,-216 684.4516,-216 684.4516,-252"/>
<text text-anchor="middle" x="601" y="-229.8" font-family="Times,serif" font-size="14.00" fill="#000000">MessagesAreaComponent </text>
</g>
<!-- SharedModule&#45;&gt;MessagesAreaComponent  -->
<g id="edge11" class="edge">
<title>SharedModule&#45;&gt;MessagesAreaComponent </title>
<path fill="none" stroke="#000000" stroke-dasharray="5,2" d="M660.0072,-187.1061C660.0072,-187.1061 660.0072,-205.991 660.0072,-205.991"/>
<polygon fill="#000000" stroke="#000000" points="656.5073,-205.9909 660.0072,-215.991 663.5073,-205.991 656.5073,-205.9909"/>
</g>
<!-- PaginatorComponent  -->
<g id="node13" class="node">
<title>PaginatorComponent </title>
<polygon fill="#fb8072" stroke="#000000" points="500.4869,-252 361.5131,-252 361.5131,-216 500.4869,-216 500.4869,-252"/>
<text text-anchor="middle" x="431" y="-229.8" font-family="Times,serif" font-size="14.00" fill="#000000">PaginatorComponent </text>
</g>
<!-- SharedModule&#45;&gt;PaginatorComponent  -->
<g id="edge12" class="edge">
<title>SharedModule&#45;&gt;PaginatorComponent </title>
<path fill="none" stroke="#000000" stroke-dasharray="5,2" d="M635.4965,-181C564.0163,-181 440.375,-181 440.375,-181 440.375,-181 440.375,-205.7604 440.375,-205.7604"/>
<polygon fill="#000000" stroke="#000000" points="436.8751,-205.7604 440.375,-215.7604 443.8751,-205.7604 436.8751,-205.7604"/>
</g>
<!-- SemanticModule  -->
<g id="node14" class="node">
<title>SemanticModule </title>
<polygon fill="#fb8072" stroke="#000000" points="343.6481,-252 228.3519,-252 228.3519,-216 343.6481,-216 343.6481,-252"/>
<text text-anchor="middle" x="286" y="-229.8" font-family="Times,serif" font-size="14.00" fill="#000000">SemanticModule </text>
</g>
<!-- SharedModule&#45;&gt;SemanticModule  -->
<g id="edge13" class="edge">
<title>SharedModule&#45;&gt;SemanticModule </title>
<path fill="none" stroke="#000000" stroke-dasharray="5,2" d="M635.6746,-175C528.9218,-175 286,-175 286,-175 286,-175 286,-205.9775 286,-205.9775"/>
<polygon fill="#000000" stroke="#000000" points="282.5001,-205.9774 286,-215.9775 289.5001,-205.9775 282.5001,-205.9774"/>
</g>
<!-- VersionsPresenterComponent  -->
<g id="node15" class="node">
<title>VersionsPresenterComponent </title>
<polygon fill="#fb8072" stroke="#000000" points="210.1771,-252 23.8229,-252 23.8229,-216 210.1771,-216 210.1771,-252"/>
<text text-anchor="middle" x="117" y="-229.8" font-family="Times,serif" font-size="14.00" fill="#000000">VersionsPresenterComponent </text>
</g>
<!-- SharedModule&#45;&gt;VersionsPresenterComponent  -->
<g id="edge14" class="edge">
<title>SharedModule&#45;&gt;VersionsPresenterComponent </title>
<path fill="none" stroke="#000000" stroke-dasharray="5,2" d="M635.7609,-169C511.4719,-169 194.875,-169 194.875,-169 194.875,-169 194.875,-205.8939 194.875,-205.8939"/>
<polygon fill="#000000" stroke="#000000" points="191.3751,-205.8938 194.875,-215.8939 198.3751,-205.8939 191.3751,-205.8938"/>
</g>
</g>
</svg>
