<?xml version="1.0" encoding="UTF-8" standalone="no"?>
<!DOCTYPE svg PUBLIC "-//W3C//DTD SVG 1.1//EN"
 "http://www.w3.org/Graphics/SVG/1.1/DTD/svg11.dtd">
<!-- Generated by graphviz version 2.40.1 (20161225.0304)
 -->
<!-- Title: dependencies Pages: 1 -->
<svg width="1895pt" height="211pt"
 viewBox="0.00 0.00 1895.00 211.00" xmlns="http://www.w3.org/2000/svg" xmlns:xlink="http://www.w3.org/1999/xlink">
<g id="graph0" class="graph" transform="scale(1 1) rotate(0) translate(4 207)">
<title>dependencies</title>
<polygon fill="#ffffff" stroke="transparent" points="-4,4 -4,-207 1891,-207 1891,4 -4,4"/>
<text text-anchor="start" x="922.5091" y="-42.4" font-family="sans-serif" font-weight="bold" font-size="14.00" fill="#000000">Legend</text>
<polygon fill="#ffffb3" stroke="transparent" points="709.5,-10 709.5,-30 729.5,-30 729.5,-10 709.5,-10"/>
<text text-anchor="start" x="733.129" y="-15.4" font-family="sans-serif" font-size="14.00" fill="#000000"> &#160;Declarations</text>
<polygon fill="#8dd3c7" stroke="transparent" points="822.5,-10 822.5,-30 842.5,-30 842.5,-10 822.5,-10"/>
<text text-anchor="start" x="846.2251" y="-15.4" font-family="sans-serif" font-size="14.00" fill="#000000"> &#160;Module</text>
<polygon fill="#80b1d3" stroke="transparent" points="908.5,-10 908.5,-30 928.5,-30 928.5,-10 908.5,-10"/>
<text text-anchor="start" x="932.2812" y="-15.4" font-family="sans-serif" font-size="14.00" fill="#000000"> &#160;Bootstrap</text>
<polygon fill="#fdb462" stroke="transparent" points="1005.5,-10 1005.5,-30 1025.5,-30 1025.5,-10 1005.5,-10"/>
<text text-anchor="start" x="1029.1732" y="-15.4" font-family="sans-serif" font-size="14.00" fill="#000000"> &#160;Providers</text>
<polygon fill="#fb8072" stroke="transparent" points="1101.5,-10 1101.5,-30 1121.5,-30 1121.5,-10 1101.5,-10"/>
<text text-anchor="start" x="1125.2258" y="-15.4" font-family="sans-serif" font-size="14.00" fill="#000000"> &#160;Exports</text>
<g id="clust1" class="cluster">
<title>cluster_RootContentModule</title>
<polygon fill="none" stroke="#000000" stroke-dasharray="1,5" points="8,-70 8,-195 1879,-195 1879,-70 8,-70"/>
</g>
<g id="clust2" class="cluster">
<title>cluster_RootContentModule_declarations</title>
<polygon fill="none" stroke="#000000" points="1043,-78 1043,-130 1871,-130 1871,-78 1043,-78"/>
</g>
<g id="clust9" class="cluster">
<title>cluster_RootContentModule_imports</title>
<polygon fill="none" stroke="#000000" points="276,-78 276,-130 1035,-130 1035,-78 276,-78"/>
</g>
<g id="clust12" class="cluster">
<title>cluster_RootContentModule_providers</title>
<polygon fill="none" stroke="#000000" points="16,-78 16,-130 268,-130 268,-78 16,-78"/>
</g>
<!-- DashboardView -->
<g id="node1" class="node">
<title>DashboardView</title>
<polygon fill="#ffffb3" stroke="#000000" points="1863.4594,-122 1756.5406,-122 1756.5406,-86 1863.4594,-86 1863.4594,-122"/>
<text text-anchor="middle" x="1810" y="-99.8" font-family="Times,serif" font-size="14.00" fill="#000000">DashboardView</text>
</g>
<!-- RootContentModule -->
<g id="node7" class="node">
<title>RootContentModule</title>
<polygon fill="#8dd3c7" stroke="#000000" points="1103.6094,-187 1100.6094,-191 1079.6094,-191 1076.6094,-187 972.3906,-187 972.3906,-151 1103.6094,-151 1103.6094,-187"/>
<text text-anchor="middle" x="1038" y="-164.8" font-family="Times,serif" font-size="14.00" fill="#000000">RootContentModule</text>
</g>
<!-- DashboardView&#45;&gt;RootContentModule -->
<g id="edge1" class="edge">
<title>DashboardView&#45;&gt;RootContentModule</title>
<path fill="none" stroke="#000000" d="M1810,-122.0908C1810,-145.1328 1810,-182 1810,-182 1810,-182 1113.8203,-182 1113.8203,-182"/>
<polygon fill="#000000" stroke="#000000" points="1113.8203,-178.5001 1103.8203,-182 1113.8203,-185.5001 1113.8203,-178.5001"/>
</g>
<!-- EditInstanceComponent -->
<g id="node2" class="node">
<title>EditInstanceComponent</title>
<polygon fill="#ffffb3" stroke="#000000" points="1738.8061,-122 1587.1939,-122 1587.1939,-86 1738.8061,-86 1738.8061,-122"/>
<text text-anchor="middle" x="1663" y="-99.8" font-family="Times,serif" font-size="14.00" fill="#000000">EditInstanceComponent</text>
</g>
<!-- EditInstanceComponent&#45;&gt;RootContentModule -->
<g id="edge2" class="edge">
<title>EditInstanceComponent&#45;&gt;RootContentModule</title>
<path fill="none" stroke="#000000" d="M1663,-122.2843C1663,-143.3211 1663,-175 1663,-175 1663,-175 1113.7047,-175 1113.7047,-175"/>
<polygon fill="#000000" stroke="#000000" points="1113.7047,-171.5001 1103.7047,-175 1113.7046,-178.5001 1113.7047,-171.5001"/>
</g>
<!-- EditInstanceView -->
<g id="node3" class="node">
<title>EditInstanceView</title>
<polygon fill="#ffffb3" stroke="#000000" points="1569.2922,-122 1452.7078,-122 1452.7078,-86 1569.2922,-86 1569.2922,-122"/>
<text text-anchor="middle" x="1511" y="-99.8" font-family="Times,serif" font-size="14.00" fill="#000000">EditInstanceView</text>
</g>
<!-- EditInstanceView&#45;&gt;RootContentModule -->
<g id="edge3" class="edge">
<title>EditInstanceView&#45;&gt;RootContentModule</title>
<path fill="none" stroke="#000000" d="M1511,-122.1061C1511,-141.3391 1511,-169 1511,-169 1511,-169 1113.7686,-169 1113.7686,-169"/>
<polygon fill="#000000" stroke="#000000" points="1113.7687,-165.5001 1103.7686,-169 1113.7686,-172.5001 1113.7687,-165.5001"/>
</g>
<!-- ExplorerView -->
<g id="node4" class="node">
<title>ExplorerView</title>
<polygon fill="#ffffb3" stroke="#000000" points="1434.7979,-122 1339.2021,-122 1339.2021,-86 1434.7979,-86 1434.7979,-122"/>
<text text-anchor="middle" x="1387" y="-99.8" font-family="Times,serif" font-size="14.00" fill="#000000">ExplorerView</text>
</g>
<!-- ExplorerView&#45;&gt;RootContentModule -->
<g id="edge4" class="edge">
<title>ExplorerView&#45;&gt;RootContentModule</title>
<path fill="none" stroke="#000000" d="M1387,-122.0225C1387,-139.3734 1387,-163 1387,-163 1387,-163 1113.6442,-163 1113.6442,-163"/>
<polygon fill="#000000" stroke="#000000" points="1113.6443,-159.5001 1103.6442,-163 1113.6442,-166.5001 1113.6443,-159.5001"/>
</g>
<!-- RootContentView -->
<g id="node5" class="node">
<title>RootContentView</title>
<polygon fill="#ffffb3" stroke="#000000" points="1320.8781,-122 1203.1219,-122 1203.1219,-86 1320.8781,-86 1320.8781,-122"/>
<text text-anchor="middle" x="1262" y="-99.8" font-family="Times,serif" font-size="14.00" fill="#000000">RootContentView</text>
</g>
<!-- RootContentView&#45;&gt;RootContentModule -->
<g id="edge5" class="edge">
<title>RootContentView&#45;&gt;RootContentModule</title>
<path fill="none" stroke="#000000" d="M1262,-122.2396C1262,-137.5706 1262,-157 1262,-157 1262,-157 1113.6939,-157 1113.6939,-157"/>
<polygon fill="#000000" stroke="#000000" points="1113.6939,-153.5001 1103.6939,-157 1113.6938,-160.5001 1113.6939,-153.5001"/>
</g>
<!-- SPARQLClientView -->
<g id="node6" class="node">
<title>SPARQLClientView</title>
<polygon fill="#ffffb3" stroke="#000000" points="1185.2092,-122 1050.7908,-122 1050.7908,-86 1185.2092,-86 1185.2092,-122"/>
<text text-anchor="middle" x="1118" y="-99.8" font-family="Times,serif" font-size="14.00" fill="#000000">SPARQLClientView</text>
</g>
<!-- SPARQLClientView&#45;&gt;RootContentModule -->
<g id="edge6" class="edge">
<title>SPARQLClientView&#45;&gt;RootContentModule</title>
<path fill="none" stroke="#000000" d="M1077.2251,-122.1061C1077.2251,-122.1061 1077.2251,-140.991 1077.2251,-140.991"/>
<polygon fill="#000000" stroke="#000000" points="1073.7252,-140.9909 1077.2251,-150.991 1080.7252,-140.991 1073.7252,-140.9909"/>
</g>
<!-- ConfigurationModule -->
<g id="node8" class="node">
<title>ConfigurationModule</title>
<polygon fill="#8dd3c7" stroke="#000000" points="1027.094,-122 1024.094,-126 1003.094,-126 1000.094,-122 888.906,-122 888.906,-86 1027.094,-86 1027.094,-122"/>
<text text-anchor="middle" x="958" y="-99.8" font-family="Times,serif" font-size="14.00" fill="#000000">ConfigurationModule</text>
</g>
<!-- ConfigurationModule&#45;&gt;RootContentModule -->
<g id="edge7" class="edge">
<title>ConfigurationModule&#45;&gt;RootContentModule</title>
<path fill="none" stroke="#000000" d="M999.7462,-122.1061C999.7462,-122.1061 999.7462,-140.991 999.7462,-140.991"/>
<polygon fill="#000000" stroke="#000000" points="996.2462,-140.9909 999.7462,-150.991 1003.2462,-140.991 996.2462,-140.9909"/>
</g>
<!-- DashboardModule -->
<g id="node9" class="node">
<title>DashboardModule</title>
<polygon fill="#8dd3c7" stroke="#000000" points="871.191,-122 868.191,-126 847.191,-126 844.191,-122 750.809,-122 750.809,-86 871.191,-86 871.191,-122"/>
<text text-anchor="middle" x="811" y="-99.8" font-family="Times,serif" font-size="14.00" fill="#000000">DashboardModule</text>
</g>
<!-- DashboardModule&#45;&gt;RootContentModule -->
<g id="edge8" class="edge">
<title>DashboardModule&#45;&gt;RootContentModule</title>
<path fill="none" stroke="#000000" d="M811,-122.2396C811,-137.5706 811,-157 811,-157 811,-157 962.3422,-157 962.3422,-157"/>
<polygon fill="#000000" stroke="#000000" points="962.3422,-160.5001 972.3422,-157 962.3422,-153.5001 962.3422,-160.5001"/>
</g>
<!-- DocumentExplorerModule -->
<g id="node10" class="node">
<title>DocumentExplorerModule</title>
<polygon fill="#8dd3c7" stroke="#000000" points="732.3459,-122 729.3459,-126 708.3459,-126 705.3459,-122 565.6541,-122 565.6541,-86 732.3459,-86 732.3459,-122"/>
<text text-anchor="middle" x="649" y="-99.8" font-family="Times,serif" font-size="14.00" fill="#000000">DocumentExplorerModule</text>
</g>
<!-- DocumentExplorerModule&#45;&gt;RootContentModule -->
<g id="edge9" class="edge">
<title>DocumentExplorerModule&#45;&gt;RootContentModule</title>
<path fill="none" stroke="#000000" d="M649,-122.0225C649,-139.3734 649,-163 649,-163 649,-163 962.0115,-163 962.0115,-163"/>
<polygon fill="#000000" stroke="#000000" points="962.0115,-166.5001 972.0115,-163 962.0114,-159.5001 962.0115,-166.5001"/>
</g>
<!-- SPARQLClientModule -->
<g id="node11" class="node">
<title>SPARQLClientModule</title>
<polygon fill="#8dd3c7" stroke="#000000" points="547.9411,-122 544.9411,-126 523.9411,-126 520.9411,-122 400.0589,-122 400.0589,-86 547.9411,-86 547.9411,-122"/>
<text text-anchor="middle" x="474" y="-99.8" font-family="Times,serif" font-size="14.00" fill="#000000">SPARQLClientModule</text>
</g>
<!-- SPARQLClientModule&#45;&gt;RootContentModule -->
<g id="edge10" class="edge">
<title>SPARQLClientModule&#45;&gt;RootContentModule</title>
<path fill="none" stroke="#000000" d="M474,-122.1061C474,-141.3391 474,-169 474,-169 474,-169 962.1982,-169 962.1982,-169"/>
<polygon fill="#000000" stroke="#000000" points="962.1983,-172.5001 972.1982,-169 962.1982,-165.5001 962.1983,-172.5001"/>
</g>
<!-- SharedModule -->
<g id="node12" class="node">
<title>SharedModule</title>
<polygon fill="#8dd3c7" stroke="#000000" points="382.4231,-122 379.4231,-126 358.4231,-126 355.4231,-122 283.5769,-122 283.5769,-86 382.4231,-86 382.4231,-122"/>
<text text-anchor="middle" x="333" y="-99.8" font-family="Times,serif" font-size="14.00" fill="#000000">SharedModule</text>
</g>
<!-- SharedModule&#45;&gt;RootContentModule -->
<g id="edge11" class="edge">
<title>SharedModule&#45;&gt;RootContentModule</title>
<path fill="none" stroke="#000000" d="M333,-122.2843C333,-143.3211 333,-175 333,-175 333,-175 962.3084,-175 962.3084,-175"/>
<polygon fill="#000000" stroke="#000000" points="962.3084,-178.5001 972.3084,-175 962.3084,-171.5001 962.3084,-178.5001"/>
</g>
<!-- DocumentsResolverService -->
<g id="node13" class="node">
<title>DocumentsResolverService</title>
<ellipse fill="#fdb462" stroke="#000000" cx="142" cy="-104" rx="118.0966" ry="18"/>
<text text-anchor="middle" x="142" y="-99.8" font-family="Times,serif" font-size="14.00" fill="#000000">DocumentsResolverService</text>
</g>
<!-- DocumentsResolverService&#45;&gt;RootContentModule -->
<g id="edge12" class="edge">
<title>DocumentsResolverService&#45;&gt;RootContentModule</title>
<path fill="none" stroke="#000000" d="M142,-122.0908C142,-145.1328 142,-182 142,-182 142,-182 962.115,-182 962.115,-182"/>
<polygon fill="#000000" stroke="#000000" points="962.115,-185.5001 972.115,-182 962.1149,-178.5001 962.115,-185.5001"/>
</g>
</g>
</svg>
