<?xml version="1.0" encoding="UTF-8" standalone="no"?>
<!DOCTYPE svg PUBLIC "-//W3C//DTD SVG 1.1//EN"
 "http://www.w3.org/Graphics/SVG/1.1/DTD/svg11.dtd">
<!-- Generated by graphviz version 2.40.1 (20161225.0304)
 -->
<!-- Title: dependencies Pages: 1 -->
<svg width="1817pt" height="211pt"
 viewBox="0.00 0.00 1817.00 211.00" xmlns="http://www.w3.org/2000/svg" xmlns:xlink="http://www.w3.org/1999/xlink">
<g id="graph0" class="graph" transform="scale(1 1) rotate(0) translate(4 207)">
<title>dependencies</title>
<polygon fill="#ffffff" stroke="transparent" points="-4,4 -4,-207 1813,-207 1813,4 -4,4"/>
<text text-anchor="start" x="883.5091" y="-42.4" font-family="sans-serif" font-weight="bold" font-size="14.00" fill="#000000">Legend</text>
<polygon fill="#ffffb3" stroke="transparent" points="670.5,-10 670.5,-30 690.5,-30 690.5,-10 670.5,-10"/>
<text text-anchor="start" x="694.129" y="-15.4" font-family="sans-serif" font-size="14.00" fill="#000000"> &#160;Declarations</text>
<polygon fill="#8dd3c7" stroke="transparent" points="783.5,-10 783.5,-30 803.5,-30 803.5,-10 783.5,-10"/>
<text text-anchor="start" x="807.2251" y="-15.4" font-family="sans-serif" font-size="14.00" fill="#000000"> &#160;Module</text>
<polygon fill="#80b1d3" stroke="transparent" points="869.5,-10 869.5,-30 889.5,-30 889.5,-10 869.5,-10"/>
<text text-anchor="start" x="893.2812" y="-15.4" font-family="sans-serif" font-size="14.00" fill="#000000"> &#160;Bootstrap</text>
<polygon fill="#fdb462" stroke="transparent" points="966.5,-10 966.5,-30 986.5,-30 986.5,-10 966.5,-10"/>
<text text-anchor="start" x="990.1732" y="-15.4" font-family="sans-serif" font-size="14.00" fill="#000000"> &#160;Providers</text>
<polygon fill="#fb8072" stroke="transparent" points="1062.5,-10 1062.5,-30 1082.5,-30 1082.5,-10 1062.5,-10"/>
<text text-anchor="start" x="1086.2258" y="-15.4" font-family="sans-serif" font-size="14.00" fill="#000000"> &#160;Exports</text>
<g id="clust1" class="cluster">
<title>cluster_ConfigurationModule</title>
<polygon fill="none" stroke="#000000" stroke-dasharray="1,5" points="8,-70 8,-195 1801,-195 1801,-70 8,-70"/>
</g>
<g id="clust2" class="cluster">
<title>cluster_ConfigurationModule_declarations</title>
<polygon fill="none" stroke="#000000" points="440,-78 440,-130 1793,-130 1793,-78 440,-78"/>
</g>
<g id="clust11" class="cluster">
<title>cluster_ConfigurationModule_imports</title>
<polygon fill="none" stroke="#000000" points="318,-78 318,-130 432,-130 432,-78 318,-78"/>
</g>
<g id="clust14" class="cluster">
<title>cluster_ConfigurationModule_providers</title>
<polygon fill="none" stroke="#000000" points="16,-78 16,-130 310,-130 310,-78 16,-78"/>
</g>
<!-- AtLeastOneValidValidator -->
<g id="node1" class="node">
<title>AtLeastOneValidValidator</title>
<polygon fill="#ffffb3" stroke="#000000" points="1784.6065,-122 1617.3935,-122 1617.3935,-86 1784.6065,-86 1784.6065,-122"/>
<text text-anchor="middle" x="1701" y="-99.8" font-family="Times,serif" font-size="14.00" fill="#000000">AtLeastOneValidValidator</text>
</g>
<!-- ConfigurationModule -->
<g id="node9" class="node">
<title>ConfigurationModule</title>
<polygon fill="#8dd3c7" stroke="#000000" points="913.094,-187 910.094,-191 889.094,-191 886.094,-187 774.906,-187 774.906,-151 913.094,-151 913.094,-187"/>
<text text-anchor="middle" x="844" y="-164.8" font-family="Times,serif" font-size="14.00" fill="#000000">ConfigurationModule</text>
</g>
<!-- AtLeastOneValidValidator&#45;&gt;ConfigurationModule -->
<g id="edge1" class="edge">
<title>AtLeastOneValidValidator&#45;&gt;ConfigurationModule</title>
<path fill="none" stroke="#000000" d="M1701,-122.0908C1701,-145.1328 1701,-182 1701,-182 1701,-182 923.406,-182 923.406,-182"/>
<polygon fill="#000000" stroke="#000000" points="923.406,-178.5001 913.406,-182 923.4059,-185.5001 923.406,-178.5001"/>
</g>
<!-- BackupExporterComponent -->
<g id="node2" class="node">
<title>BackupExporterComponent</title>
<polygon fill="#ffffb3" stroke="#000000" points="1599.5772,-122 1426.4228,-122 1426.4228,-86 1599.5772,-86 1599.5772,-122"/>
<text text-anchor="middle" x="1513" y="-99.8" font-family="Times,serif" font-size="14.00" fill="#000000">BackupExporterComponent</text>
</g>
<!-- BackupExporterComponent&#45;&gt;ConfigurationModule -->
<g id="edge2" class="edge">
<title>BackupExporterComponent&#45;&gt;ConfigurationModule</title>
<path fill="none" stroke="#000000" d="M1513,-122.2843C1513,-143.3211 1513,-175 1513,-175 1513,-175 923.075,-175 923.075,-175"/>
<polygon fill="#000000" stroke="#000000" points="923.075,-171.5001 913.075,-175 923.075,-178.5001 923.075,-171.5001"/>
</g>
<!-- BackupFileValidator -->
<g id="node3" class="node">
<title>BackupFileValidator</title>
<polygon fill="#ffffb3" stroke="#000000" points="1408.913,-122 1275.087,-122 1275.087,-86 1408.913,-86 1408.913,-122"/>
<text text-anchor="middle" x="1342" y="-99.8" font-family="Times,serif" font-size="14.00" fill="#000000">BackupFileValidator</text>
</g>
<!-- BackupFileValidator&#45;&gt;ConfigurationModule -->
<g id="edge3" class="edge">
<title>BackupFileValidator&#45;&gt;ConfigurationModule</title>
<path fill="none" stroke="#000000" d="M1342,-122.1061C1342,-141.3391 1342,-169 1342,-169 1342,-169 923.2448,-169 923.2448,-169"/>
<polygon fill="#000000" stroke="#000000" points="923.2448,-165.5001 913.2448,-169 923.2447,-172.5001 923.2448,-165.5001"/>
</g>
<!-- BackupImporterComponent -->
<g id="node4" class="node">
<title>BackupImporterComponent</title>
<polygon fill="#ffffb3" stroke="#000000" points="1257.5758,-122 1084.4242,-122 1084.4242,-86 1257.5758,-86 1257.5758,-122"/>
<text text-anchor="middle" x="1171" y="-99.8" font-family="Times,serif" font-size="14.00" fill="#000000">BackupImporterComponent</text>
</g>
<!-- BackupImporterComponent&#45;&gt;ConfigurationModule -->
<g id="edge4" class="edge">
<title>BackupImporterComponent&#45;&gt;ConfigurationModule</title>
<path fill="none" stroke="#000000" d="M1171,-122.0225C1171,-139.3734 1171,-163 1171,-163 1171,-163 923.3483,-163 923.3483,-163"/>
<polygon fill="#000000" stroke="#000000" points="923.3483,-159.5001 913.3483,-163 923.3483,-166.5001 923.3483,-159.5001"/>
</g>
<!-- BackupsComponent -->
<g id="node5" class="node">
<title>BackupsComponent</title>
<polygon fill="#ffffb3" stroke="#000000" points="1066.5436,-122 937.4564,-122 937.4564,-86 1066.5436,-86 1066.5436,-122"/>
<text text-anchor="middle" x="1002" y="-99.8" font-family="Times,serif" font-size="14.00" fill="#000000">BackupsComponent</text>
</g>
<!-- BackupsComponent&#45;&gt;ConfigurationModule -->
<g id="edge5" class="edge">
<title>BackupsComponent&#45;&gt;ConfigurationModule</title>
<path fill="none" stroke="#000000" d="M1002,-122.2396C1002,-137.5706 1002,-157 1002,-157 1002,-157 923.3011,-157 923.3011,-157"/>
<polygon fill="#000000" stroke="#000000" points="923.3011,-153.5001 913.3011,-157 923.3011,-160.5001 923.3011,-153.5001"/>
</g>
<!-- BackupsListComponent -->
<g id="node6" class="node">
<title>BackupsListComponent</title>
<polygon fill="#ffffb3" stroke="#000000" points="919.8215,-122 768.1785,-122 768.1785,-86 919.8215,-86 919.8215,-122"/>
<text text-anchor="middle" x="844" y="-99.8" font-family="Times,serif" font-size="14.00" fill="#000000">BackupsListComponent</text>
</g>
<!-- BackupsListComponent&#45;&gt;ConfigurationModule -->
<g id="edge6" class="edge">
<title>BackupsListComponent&#45;&gt;ConfigurationModule</title>
<path fill="none" stroke="#000000" d="M844,-122.1061C844,-122.1061 844,-140.991 844,-140.991"/>
<polygon fill="#000000" stroke="#000000" points="840.5001,-140.9909 844,-150.991 847.5001,-140.991 840.5001,-140.9909"/>
</g>
<!-- ConfigurationComponent -->
<g id="node7" class="node">
<title>ConfigurationComponent</title>
<polygon fill="#ffffb3" stroke="#000000" points="749.8766,-122 590.1234,-122 590.1234,-86 749.8766,-86 749.8766,-122"/>
<text text-anchor="middle" x="670" y="-99.8" font-family="Times,serif" font-size="14.00" fill="#000000">ConfigurationComponent</text>
</g>
<!-- ConfigurationComponent&#45;&gt;ConfigurationModule -->
<g id="edge7" class="edge">
<title>ConfigurationComponent&#45;&gt;ConfigurationModule</title>
<path fill="none" stroke="#000000" d="M670,-122.2396C670,-137.5706 670,-157 670,-157 670,-157 764.7306,-157 764.7306,-157"/>
<polygon fill="#000000" stroke="#000000" points="764.7307,-160.5001 774.7306,-157 764.7306,-153.5001 764.7307,-160.5001"/>
</g>
<!-- ConfigurationView -->
<g id="node8" class="node">
<title>ConfigurationView</title>
<polygon fill="#ffffb3" stroke="#000000" points="572.3627,-122 447.6373,-122 447.6373,-86 572.3627,-86 572.3627,-122"/>
<text text-anchor="middle" x="510" y="-99.8" font-family="Times,serif" font-size="14.00" fill="#000000">ConfigurationView</text>
</g>
<!-- ConfigurationView&#45;&gt;ConfigurationModule -->
<g id="edge8" class="edge">
<title>ConfigurationView&#45;&gt;ConfigurationModule</title>
<path fill="none" stroke="#000000" d="M510,-122.0225C510,-139.3734 510,-163 510,-163 510,-163 764.795,-163 764.795,-163"/>
<polygon fill="#000000" stroke="#000000" points="764.795,-166.5001 774.795,-163 764.7949,-159.5001 764.795,-166.5001"/>
</g>
<!-- SharedModule -->
<g id="node10" class="node">
<title>SharedModule</title>
<polygon fill="#8dd3c7" stroke="#000000" points="424.4231,-122 421.4231,-126 400.4231,-126 397.4231,-122 325.5769,-122 325.5769,-86 424.4231,-86 424.4231,-122"/>
<text text-anchor="middle" x="375" y="-99.8" font-family="Times,serif" font-size="14.00" fill="#000000">SharedModule</text>
</g>
<!-- SharedModule&#45;&gt;ConfigurationModule -->
<g id="edge9" class="edge">
<title>SharedModule&#45;&gt;ConfigurationModule</title>
<path fill="none" stroke="#000000" d="M375,-122.1061C375,-141.3391 375,-169 375,-169 375,-169 764.7974,-169 764.7974,-169"/>
<polygon fill="#000000" stroke="#000000" points="764.7975,-172.5001 774.7974,-169 764.7974,-165.5001 764.7975,-172.5001"/>
</g>
<!-- BackupsService -->
<g id="node11" class="node">
<title>BackupsService</title>
<ellipse fill="#fdb462" stroke="#000000" cx="229" cy="-104" rx="73.4939" ry="18"/>
<text text-anchor="middle" x="229" y="-99.8" font-family="Times,serif" font-size="14.00" fill="#000000">BackupsService</text>
</g>
<!-- BackupsService&#45;&gt;ConfigurationModule -->
<g id="edge10" class="edge">
<title>BackupsService&#45;&gt;ConfigurationModule</title>
<path fill="none" stroke="#000000" d="M229,-122.2843C229,-143.3211 229,-175 229,-175 229,-175 764.9448,-175 764.9448,-175"/>
<polygon fill="#000000" stroke="#000000" points="764.9448,-178.5001 774.9448,-175 764.9447,-171.5001 764.9448,-178.5001"/>
</g>
<!-- JobsService -->
<g id="node12" class="node">
<title>JobsService</title>
<ellipse fill="#fdb462" stroke="#000000" cx="81" cy="-104" rx="57.3205" ry="18"/>
<text text-anchor="middle" x="81" y="-99.8" font-family="Times,serif" font-size="14.00" fill="#000000">JobsService</text>
</g>
<!-- JobsService&#45;&gt;ConfigurationModule -->
<g id="edge11" class="edge">
<title>JobsService&#45;&gt;ConfigurationModule</title>
<path fill="none" stroke="#000000" d="M81,-122.0908C81,-145.1328 81,-182 81,-182 81,-182 764.9431,-182 764.9431,-182"/>
<polygon fill="#000000" stroke="#000000" points="764.9432,-185.5001 774.9431,-182 764.9431,-178.5001 764.9432,-185.5001"/>
</g>
</g>
</svg>
