<?xml version="1.0" encoding="UTF-8" standalone="no"?>
<!DOCTYPE svg PUBLIC "-//W3C//DTD SVG 1.1//EN"
 "http://www.w3.org/Graphics/SVG/1.1/DTD/svg11.dtd">
<!-- Generated by graphviz version 2.40.1 (20161225.0304)
 -->
<!-- Title: dependencies Pages: 1 -->
<svg width="3833pt" height="349pt"
 viewBox="0.00 0.00 3833.00 349.00" xmlns="http://www.w3.org/2000/svg" xmlns:xlink="http://www.w3.org/1999/xlink">
<g id="graph0" class="graph" transform="scale(1 1) rotate(0) translate(4 345)">
<title>dependencies</title>
<polygon fill="#ffffff" stroke="transparent" points="-4,4 -4,-345 3829,-345 3829,4 -4,4"/>
<text text-anchor="start" x="1891.5091" y="-42.4" font-family="sans-serif" font-weight="bold" font-size="14.00" fill="#000000">Legend</text>
<polygon fill="#ffffb3" stroke="transparent" points="1678.5,-10 1678.5,-30 1698.5,-30 1698.5,-10 1678.5,-10"/>
<text text-anchor="start" x="1702.129" y="-15.4" font-family="sans-serif" font-size="14.00" fill="#000000"> &#160;Declarations</text>
<polygon fill="#8dd3c7" stroke="transparent" points="1791.5,-10 1791.5,-30 1811.5,-30 1811.5,-10 1791.5,-10"/>
<text text-anchor="start" x="1815.2251" y="-15.4" font-family="sans-serif" font-size="14.00" fill="#000000"> &#160;Module</text>
<polygon fill="#80b1d3" stroke="transparent" points="1877.5,-10 1877.5,-30 1897.5,-30 1897.5,-10 1877.5,-10"/>
<text text-anchor="start" x="1901.2812" y="-15.4" font-family="sans-serif" font-size="14.00" fill="#000000"> &#160;Bootstrap</text>
<polygon fill="#fdb462" stroke="transparent" points="1974.5,-10 1974.5,-30 1994.5,-30 1994.5,-10 1974.5,-10"/>
<text text-anchor="start" x="1998.1732" y="-15.4" font-family="sans-serif" font-size="14.00" fill="#000000"> &#160;Providers</text>
<polygon fill="#fb8072" stroke="transparent" points="2070.5,-10 2070.5,-30 2090.5,-30 2090.5,-10 2070.5,-10"/>
<text text-anchor="start" x="2094.2258" y="-15.4" font-family="sans-serif" font-size="14.00" fill="#000000"> &#160;Exports</text>
<g id="clust1" class="cluster">
<title>cluster_DocumentExplorerModule</title>
<polygon fill="none" stroke="#000000" stroke-dasharray="1,5" points="8,-70 8,-333 3817,-333 3817,-70 8,-70"/>
</g>
<g id="clust2" class="cluster">
<title>cluster_DocumentExplorerModule_declarations</title>
<polygon fill="none" stroke="#000000" points="138,-143 138,-195 3809,-195 3809,-143 138,-143"/>
</g>
<g id="clust12" class="cluster">
<title>cluster_DocumentExplorerModule_IdValidator_providers</title>
<polygon fill="none" stroke="#000000" points="996,-78 996,-130 1142,-130 1142,-78 996,-78"/>
</g>
<g id="clust25" class="cluster">
<title>cluster_DocumentExplorerModule_imports</title>
<polygon fill="none" stroke="#000000" points="16,-143 16,-195 130,-195 130,-143 16,-143"/>
</g>
<g id="clust26" class="cluster">
<title>cluster_DocumentExplorerModule_exports</title>
<polygon fill="none" stroke="#000000" points="1653,-273 1653,-325 1861,-325 1861,-273 1653,-273"/>
</g>
<!-- AccessPointCreatorComponent -->
<g id="node1" class="node">
<title>AccessPointCreatorComponent</title>
<polygon fill="#ffffb3" stroke="#000000" points="3801.014,-187 3608.986,-187 3608.986,-151 3801.014,-151 3801.014,-187"/>
<text text-anchor="middle" x="3705" y="-164.8" font-family="Times,serif" font-size="14.00" fill="#000000">AccessPointCreatorComponent</text>
</g>
<!-- DocumentExplorerModule -->
<g id="node23" class="node">
<title>DocumentExplorerModule</title>
<polygon fill="#8dd3c7" stroke="#000000" points="1840.3459,-252 1837.3459,-256 1816.3459,-256 1813.3459,-252 1673.6541,-252 1673.6541,-216 1840.3459,-216 1840.3459,-252"/>
<text text-anchor="middle" x="1757" y="-229.8" font-family="Times,serif" font-size="14.00" fill="#000000">DocumentExplorerModule</text>
</g>
<!-- AccessPointCreatorComponent&#45;&gt;DocumentExplorerModule -->
<g id="edge1" class="edge">
<title>AccessPointCreatorComponent&#45;&gt;DocumentExplorerModule</title>
<path fill="none" stroke="#000000" d="M3705,-187.1532C3705,-210.7566 3705,-249 3705,-249 3705,-249 1850.3913,-249 1850.3913,-249"/>
<polygon fill="#000000" stroke="#000000" points="1850.3913,-245.5001 1840.3913,-249 1850.3912,-252.5001 1850.3913,-245.5001"/>
</g>
<!-- BlankNodeComponent -->
<g id="node2" class="node">
<title>BlankNodeComponent</title>
<polygon fill="#ffffb3" stroke="#000000" points="3590.5954,-187 3445.4046,-187 3445.4046,-151 3590.5954,-151 3590.5954,-187"/>
<text text-anchor="middle" x="3518" y="-164.8" font-family="Times,serif" font-size="14.00" fill="#000000">BlankNodeComponent</text>
</g>
<!-- BlankNodeComponent&#45;&gt;DocumentExplorerModule -->
<g id="edge2" class="edge">
<title>BlankNodeComponent&#45;&gt;DocumentExplorerModule</title>
<path fill="none" stroke="#000000" d="M3518,-187.2479C3518,-210.0179 3518,-246 3518,-246 3518,-246 1850.457,-246 1850.457,-246"/>
<polygon fill="#000000" stroke="#000000" points="1850.457,-242.5001 1840.457,-246 1850.4569,-249.5001 1850.457,-242.5001"/>
</g>
<!-- BlankNodesComponent -->
<g id="node3" class="node">
<title>BlankNodesComponent</title>
<polygon fill="#ffffb3" stroke="#000000" points="3427.0407,-187 3276.9593,-187 3276.9593,-151 3427.0407,-151 3427.0407,-187"/>
<text text-anchor="middle" x="3352" y="-164.8" font-family="Times,serif" font-size="14.00" fill="#000000">BlankNodesComponent</text>
</g>
<!-- BlankNodesComponent&#45;&gt;DocumentExplorerModule -->
<g id="edge3" class="edge">
<title>BlankNodesComponent&#45;&gt;DocumentExplorerModule</title>
<path fill="none" stroke="#000000" d="M3352,-187.2921C3352,-209.2057 3352,-243 3352,-243 3352,-243 1850.5084,-243 1850.5084,-243"/>
<polygon fill="#000000" stroke="#000000" points="1850.5085,-239.5001 1840.5084,-243 1850.5084,-246.5001 1850.5085,-239.5001"/>
</g>
<!-- DocumentCreatorComponent -->
<g id="node4" class="node">
<title>DocumentCreatorComponent</title>
<polygon fill="#ffffb3" stroke="#000000" points="3258.6274,-187 3077.3726,-187 3077.3726,-151 3258.6274,-151 3258.6274,-187"/>
<text text-anchor="middle" x="3168" y="-164.8" font-family="Times,serif" font-size="14.00" fill="#000000">DocumentCreatorComponent</text>
</g>
<!-- DocumentCreatorComponent&#45;&gt;DocumentExplorerModule -->
<g id="edge4" class="edge">
<title>DocumentCreatorComponent&#45;&gt;DocumentExplorerModule</title>
<path fill="none" stroke="#000000" d="M3168,-187.0267C3168,-207.7672 3168,-239 3168,-239 3168,-239 1850.5171,-239 1850.5171,-239"/>
<polygon fill="#000000" stroke="#000000" points="1850.5171,-235.5001 1840.5171,-239 1850.5171,-242.5001 1850.5171,-235.5001"/>
</g>
<!-- DocumentDeleterComponent -->
<g id="node5" class="node">
<title>DocumentDeleterComponent</title>
<polygon fill="#ffffb3" stroke="#000000" points="3059.3417,-187 2878.6583,-187 2878.6583,-151 3059.3417,-151 3059.3417,-187"/>
<text text-anchor="middle" x="2969" y="-164.8" font-family="Times,serif" font-size="14.00" fill="#000000">DocumentDeleterComponent</text>
</g>
<!-- DocumentDeleterComponent&#45;&gt;DocumentExplorerModule -->
<g id="edge5" class="edge">
<title>DocumentDeleterComponent&#45;&gt;DocumentExplorerModule</title>
<path fill="none" stroke="#000000" d="M2969,-187.308C2969,-207.1455 2969,-236 2969,-236 2969,-236 1850.7839,-236 1850.7839,-236"/>
<polygon fill="#000000" stroke="#000000" points="1850.7839,-232.5001 1840.7839,-236 1850.7838,-239.5001 1850.7839,-232.5001"/>
</g>
<!-- DocumentExplorerComponent -->
<g id="node6" class="node">
<title>DocumentExplorerComponent</title>
<polygon fill="#ffffb3" stroke="#000000" points="2860.1288,-187 2671.8712,-187 2671.8712,-151 2860.1288,-151 2860.1288,-187"/>
<text text-anchor="middle" x="2766" y="-164.8" font-family="Times,serif" font-size="14.00" fill="#000000">DocumentExplorerComponent</text>
</g>
<!-- DocumentExplorerComponent&#45;&gt;DocumentExplorerModule -->
<g id="edge6" class="edge">
<title>DocumentExplorerComponent&#45;&gt;DocumentExplorerModule</title>
<path fill="none" stroke="#000000" d="M2766,-187.1686C2766,-206.0898 2766,-233 2766,-233 2766,-233 1850.4291,-233 1850.4291,-233"/>
<polygon fill="#000000" stroke="#000000" points="1850.4292,-229.5001 1840.4291,-233 1850.4291,-236.5001 1850.4292,-229.5001"/>
</g>
<!-- DocumentResourceComponent -->
<g id="node7" class="node">
<title>DocumentResourceComponent</title>
<polygon fill="#ffffb3" stroke="#000000" points="2653.7352,-187 2462.2648,-187 2462.2648,-151 2653.7352,-151 2653.7352,-187"/>
<text text-anchor="middle" x="2558" y="-164.8" font-family="Times,serif" font-size="14.00" fill="#000000">DocumentResourceComponent</text>
</g>
<!-- DocumentResourceComponent&#45;&gt;DocumentExplorerModule -->
<g id="edge7" class="edge">
<title>DocumentResourceComponent&#45;&gt;DocumentExplorerModule</title>
<path fill="none" stroke="#000000" d="M2558,-187.302C2558,-205.2699 2558,-230 2558,-230 2558,-230 1850.4542,-230 1850.4542,-230"/>
<polygon fill="#000000" stroke="#000000" points="1850.4543,-226.5001 1840.4542,-230 1850.4542,-233.5001 1850.4543,-226.5001"/>
</g>
<!-- DocumentTreeViewComponent -->
<g id="node8" class="node">
<title>DocumentTreeViewComponent</title>
<polygon fill="#ffffb3" stroke="#000000" points="2443.6106,-187 2248.3894,-187 2248.3894,-151 2443.6106,-151 2443.6106,-187"/>
<text text-anchor="middle" x="2346" y="-164.8" font-family="Times,serif" font-size="14.00" fill="#000000">DocumentTreeViewComponent</text>
</g>
<!-- DocumentTreeViewComponent&#45;&gt;DocumentExplorerModule -->
<g id="edge8" class="edge">
<title>DocumentTreeViewComponent&#45;&gt;DocumentExplorerModule</title>
<path fill="none" stroke="#000000" d="M2346,-187.0352C2346,-203.7344 2346,-226 2346,-226 2346,-226 1850.4517,-226 1850.4517,-226"/>
<polygon fill="#000000" stroke="#000000" points="1850.4518,-222.5001 1840.4517,-226 1850.4517,-229.5001 1850.4518,-222.5001"/>
</g>
<!-- DocumentViewerComponent -->
<g id="node9" class="node">
<title>DocumentViewerComponent</title>
<polygon fill="#ffffb3" stroke="#000000" points="2230.3431,-187 2049.6569,-187 2049.6569,-151 2230.3431,-151 2230.3431,-187"/>
<text text-anchor="middle" x="2140" y="-164.8" font-family="Times,serif" font-size="14.00" fill="#000000">DocumentViewerComponent</text>
</g>
<!-- DocumentViewerComponent&#45;&gt;DocumentExplorerModule -->
<g id="edge9" class="edge">
<title>DocumentViewerComponent&#45;&gt;DocumentExplorerModule</title>
<path fill="none" stroke="#000000" d="M2140,-187.2819C2140,-202.9478 2140,-223 2140,-223 2140,-223 1850.5777,-223 1850.5777,-223"/>
<polygon fill="#000000" stroke="#000000" points="1850.5777,-219.5001 1840.5777,-223 1850.5777,-226.5001 1850.5777,-219.5001"/>
</g>
<!-- IdValidator -->
<g id="node10" class="node">
<title>IdValidator</title>
<polygon fill="#ffffb3" stroke="#000000" points="2031.0302,-187 1950.9698,-187 1950.9698,-151 2031.0302,-151 2031.0302,-187"/>
<text text-anchor="middle" x="1991" y="-164.8" font-family="Times,serif" font-size="14.00" fill="#000000">IdValidator</text>
</g>
<!-- IdValidator&#45;&gt;DocumentExplorerModule -->
<g id="edge10" class="edge">
<title>IdValidator&#45;&gt;DocumentExplorerModule</title>
<path fill="none" stroke="#000000" d="M1991,-187.1243C1991,-201.7832 1991,-220 1991,-220 1991,-220 1850.4883,-220 1850.4883,-220"/>
<polygon fill="#000000" stroke="#000000" points="1850.4884,-216.5001 1840.4883,-220 1850.4883,-223.5001 1850.4884,-216.5001"/>
</g>
<!-- ListComponent -->
<g id="node11" class="node">
<title>ListComponent</title>
<polygon fill="#ffffb3" stroke="#000000" points="1932.6109,-187 1829.3891,-187 1829.3891,-151 1932.6109,-151 1932.6109,-187"/>
<text text-anchor="middle" x="1881" y="-164.8" font-family="Times,serif" font-size="14.00" fill="#000000">ListComponent</text>
</g>
<!-- ListComponent&#45;&gt;DocumentExplorerModule -->
<g id="edge12" class="edge">
<title>ListComponent&#45;&gt;DocumentExplorerModule</title>
<path fill="none" stroke="#000000" d="M1834.9338,-187.1061C1834.9338,-187.1061 1834.9338,-205.991 1834.9338,-205.991"/>
<polygon fill="#000000" stroke="#000000" points="1831.4338,-205.9909 1834.9338,-215.991 1838.4338,-205.991 1831.4338,-205.9909"/>
</g>
<!-- ListsComponent -->
<g id="node12" class="node">
<title>ListsComponent</title>
<polygon fill="#ffffb3" stroke="#000000" points="1811.0563,-187 1702.9437,-187 1702.9437,-151 1811.0563,-151 1811.0563,-187"/>
<text text-anchor="middle" x="1757" y="-164.8" font-family="Times,serif" font-size="14.00" fill="#000000">ListsComponent</text>
</g>
<!-- ListsComponent&#45;&gt;DocumentExplorerModule -->
<g id="edge13" class="edge">
<title>ListsComponent&#45;&gt;DocumentExplorerModule</title>
<path fill="none" stroke="#000000" d="M1757,-187.1061C1757,-187.1061 1757,-205.991 1757,-205.991"/>
<polygon fill="#000000" stroke="#000000" points="1753.5001,-205.9909 1757,-215.991 1760.5001,-205.991 1753.5001,-205.9909"/>
</g>
<!-- LiteralComponent -->
<g id="node13" class="node">
<title>LiteralComponent</title>
<polygon fill="#ffffb3" stroke="#000000" points="1684.1471,-187 1565.8529,-187 1565.8529,-151 1684.1471,-151 1684.1471,-187"/>
<text text-anchor="middle" x="1625" y="-164.8" font-family="Times,serif" font-size="14.00" fill="#000000">LiteralComponent</text>
</g>
<!-- LiteralComponent&#45;&gt;DocumentExplorerModule -->
<g id="edge14" class="edge">
<title>LiteralComponent&#45;&gt;DocumentExplorerModule</title>
<path fill="none" stroke="#000000" d="M1678.9502,-187.1061C1678.9502,-187.1061 1678.9502,-205.991 1678.9502,-205.991"/>
<polygon fill="#000000" stroke="#000000" points="1675.4503,-205.9909 1678.9502,-215.991 1682.4503,-205.991 1675.4503,-205.9909"/>
</g>
<!-- LiteralValueValidator -->
<g id="node14" class="node">
<title>LiteralValueValidator</title>
<polygon fill="#ffffb3" stroke="#000000" points="1547.6093,-187 1408.3907,-187 1408.3907,-151 1547.6093,-151 1547.6093,-187"/>
<text text-anchor="middle" x="1478" y="-164.8" font-family="Times,serif" font-size="14.00" fill="#000000">LiteralValueValidator</text>
</g>
<!-- LiteralValueValidator&#45;&gt;DocumentExplorerModule -->
<g id="edge15" class="edge">
<title>LiteralValueValidator&#45;&gt;DocumentExplorerModule</title>
<path fill="none" stroke="#000000" d="M1478,-187.1243C1478,-201.7832 1478,-220 1478,-220 1478,-220 1663.2908,-220 1663.2908,-220"/>
<polygon fill="#000000" stroke="#000000" points="1663.2908,-223.5001 1673.2908,-220 1663.2908,-216.5001 1663.2908,-223.5001"/>
</g>
<!-- LiteralsComponent -->
<g id="node15" class="node">
<title>LiteralsComponent</title>
<polygon fill="#ffffb3" stroke="#000000" points="1390.0912,-187 1265.9088,-187 1265.9088,-151 1390.0912,-151 1390.0912,-187"/>
<text text-anchor="middle" x="1328" y="-164.8" font-family="Times,serif" font-size="14.00" fill="#000000">LiteralsComponent</text>
</g>
<!-- LiteralsComponent&#45;&gt;DocumentExplorerModule -->
<g id="edge17" class="edge">
<title>LiteralsComponent&#45;&gt;DocumentExplorerModule</title>
<path fill="none" stroke="#000000" d="M1328,-187.2819C1328,-202.9478 1328,-223 1328,-223 1328,-223 1663.5211,-223 1663.5211,-223"/>
<polygon fill="#000000" stroke="#000000" points="1663.5211,-226.5001 1673.5211,-223 1663.521,-219.5001 1663.5211,-226.5001"/>
</g>
<!-- NamedFragmentComponent -->
<g id="node16" class="node">
<title>NamedFragmentComponent</title>
<polygon fill="#ffffb3" stroke="#000000" points="1247.9129,-187 1072.0871,-187 1072.0871,-151 1247.9129,-151 1247.9129,-187"/>
<text text-anchor="middle" x="1160" y="-164.8" font-family="Times,serif" font-size="14.00" fill="#000000">NamedFragmentComponent</text>
</g>
<!-- NamedFragmentComponent&#45;&gt;DocumentExplorerModule -->
<g id="edge18" class="edge">
<title>NamedFragmentComponent&#45;&gt;DocumentExplorerModule</title>
<path fill="none" stroke="#000000" d="M1160,-187.0352C1160,-203.7344 1160,-226 1160,-226 1160,-226 1663.3611,-226 1663.3611,-226"/>
<polygon fill="#000000" stroke="#000000" points="1663.3611,-229.5001 1673.3611,-226 1663.3611,-222.5001 1663.3611,-229.5001"/>
</g>
<!-- NamedFragmentsComponent -->
<g id="node17" class="node">
<title>NamedFragmentsComponent</title>
<polygon fill="#ffffb3" stroke="#000000" points="1054.3571,-187 873.6429,-187 873.6429,-151 1054.3571,-151 1054.3571,-187"/>
<text text-anchor="middle" x="964" y="-164.8" font-family="Times,serif" font-size="14.00" fill="#000000">NamedFragmentsComponent</text>
</g>
<!-- NamedFragmentsComponent&#45;&gt;DocumentExplorerModule -->
<g id="edge19" class="edge">
<title>NamedFragmentsComponent&#45;&gt;DocumentExplorerModule</title>
<path fill="none" stroke="#000000" d="M964,-187.302C964,-205.2699 964,-230 964,-230 964,-230 1663.6339,-230 1663.6339,-230"/>
<polygon fill="#000000" stroke="#000000" points="1663.634,-233.5001 1673.6339,-230 1663.6339,-226.5001 1663.634,-233.5001"/>
</g>
<!-- PointerComponent -->
<g id="node18" class="node">
<title>PointerComponent</title>
<polygon fill="#ffffb3" stroke="#000000" points="855.7716,-187 734.2284,-187 734.2284,-151 855.7716,-151 855.7716,-187"/>
<text text-anchor="middle" x="795" y="-164.8" font-family="Times,serif" font-size="14.00" fill="#000000">PointerComponent</text>
</g>
<!-- PointerComponent&#45;&gt;DocumentExplorerModule -->
<g id="edge20" class="edge">
<title>PointerComponent&#45;&gt;DocumentExplorerModule</title>
<path fill="none" stroke="#000000" d="M795,-187.1686C795,-206.0898 795,-233 795,-233 795,-233 1663.3117,-233 1663.3117,-233"/>
<polygon fill="#000000" stroke="#000000" points="1663.3117,-236.5001 1673.3117,-233 1663.3116,-229.5001 1663.3117,-236.5001"/>
</g>
<!-- PointerValidator -->
<g id="node19" class="node">
<title>PointerValidator</title>
<polygon fill="#ffffb3" stroke="#000000" points="715.8076,-187 606.1924,-187 606.1924,-151 715.8076,-151 715.8076,-187"/>
<text text-anchor="middle" x="661" y="-164.8" font-family="Times,serif" font-size="14.00" fill="#000000">PointerValidator</text>
</g>
<!-- PointerValidator&#45;&gt;DocumentExplorerModule -->
<g id="edge21" class="edge">
<title>PointerValidator&#45;&gt;DocumentExplorerModule</title>
<path fill="none" stroke="#000000" d="M661,-187.308C661,-207.1455 661,-236 661,-236 661,-236 1663.271,-236 1663.271,-236"/>
<polygon fill="#000000" stroke="#000000" points="1663.271,-239.5001 1673.271,-236 1663.2709,-232.5001 1663.271,-239.5001"/>
</g>
<!-- PointersComponent -->
<g id="node20" class="node">
<title>PointersComponent</title>
<polygon fill="#ffffb3" stroke="#000000" points="588.7162,-187 461.2838,-187 461.2838,-151 588.7162,-151 588.7162,-187"/>
<text text-anchor="middle" x="525" y="-164.8" font-family="Times,serif" font-size="14.00" fill="#000000">PointersComponent</text>
</g>
<!-- PointersComponent&#45;&gt;DocumentExplorerModule -->
<g id="edge23" class="edge">
<title>PointersComponent&#45;&gt;DocumentExplorerModule</title>
<path fill="none" stroke="#000000" d="M525,-187.0267C525,-207.7672 525,-239 525,-239 525,-239 1663.2882,-239 1663.2882,-239"/>
<polygon fill="#000000" stroke="#000000" points="1663.2883,-242.5001 1673.2882,-239 1663.2882,-235.5001 1663.2883,-242.5001"/>
</g>
<!-- PropertyComponent -->
<g id="node21" class="node">
<title>PropertyComponent</title>
<polygon fill="#ffffb3" stroke="#000000" points="443.5422,-187 314.4578,-187 314.4578,-151 443.5422,-151 443.5422,-187"/>
<text text-anchor="middle" x="379" y="-164.8" font-family="Times,serif" font-size="14.00" fill="#000000">PropertyComponent</text>
</g>
<!-- PropertyComponent&#45;&gt;DocumentExplorerModule -->
<g id="edge24" class="edge">
<title>PropertyComponent&#45;&gt;DocumentExplorerModule</title>
<path fill="none" stroke="#000000" d="M379,-187.2921C379,-209.2057 379,-243 379,-243 379,-243 1663.6465,-243 1663.6465,-243"/>
<polygon fill="#000000" stroke="#000000" points="1663.6465,-246.5001 1673.6465,-243 1663.6464,-239.5001 1663.6465,-246.5001"/>
</g>
<!-- PropertyNameValidator -->
<g id="node22" class="node">
<title>PropertyNameValidator</title>
<polygon fill="#ffffb3" stroke="#000000" points="296.0044,-187 145.9956,-187 145.9956,-151 296.0044,-151 296.0044,-187"/>
<text text-anchor="middle" x="221" y="-164.8" font-family="Times,serif" font-size="14.00" fill="#000000">PropertyNameValidator</text>
</g>
<!-- PropertyNameValidator&#45;&gt;DocumentExplorerModule -->
<g id="edge25" class="edge">
<title>PropertyNameValidator&#45;&gt;DocumentExplorerModule</title>
<path fill="none" stroke="#000000" d="M221,-187.2479C221,-210.0179 221,-246 221,-246 221,-246 1663.6005,-246 1663.6005,-246"/>
<polygon fill="#000000" stroke="#000000" points="1663.6005,-249.5001 1673.6005,-246 1663.6004,-242.5001 1663.6005,-249.5001"/>
</g>
<!-- DocumentExplorerComponent  -->
<g id="node26" class="node">
<title>DocumentExplorerComponent </title>
<polygon fill="#fb8072" stroke="#000000" points="1853.1284,-317 1660.8716,-317 1660.8716,-281 1853.1284,-281 1853.1284,-317"/>
<text text-anchor="middle" x="1757" y="-294.8" font-family="Times,serif" font-size="14.00" fill="#000000">DocumentExplorerComponent </text>
</g>
<!-- DocumentExplorerModule&#45;&gt;DocumentExplorerComponent  -->
<g id="edge28" class="edge">
<title>DocumentExplorerModule&#45;&gt;DocumentExplorerComponent </title>
<path fill="none" stroke="#000000" stroke-dasharray="5,2" d="M1757,-252.1061C1757,-252.1061 1757,-270.991 1757,-270.991"/>
<polygon fill="#000000" stroke="#000000" points="1753.5001,-270.9909 1757,-280.991 1760.5001,-270.991 1753.5001,-270.9909"/>
</g>
<!-- { : , : , : true } -->
<g id="node24" class="node">
<title>{ : , : , : true }</title>
<ellipse fill="#fdb462" stroke="#000000" cx="1069" cy="-104" rx="65.1962" ry="18"/>
<text text-anchor="middle" x="1069" y="-99.8" font-family="Times,serif" font-size="14.00" fill="#000000">{ : , : , : true }</text>
</g>
<!-- { : , : , : true }&#45;&gt;IdValidator -->
<g id="edge11" class="edge">
<title>{ : , : , : true }&#45;&gt;IdValidator</title>
<path fill="none" stroke="#000000" d="M1130.5674,-98C1336.8924,-98 1991,-98 1991,-98 1991,-98 1991,-140.7157 1991,-140.7157"/>
<polygon fill="#000000" stroke="#000000" points="1987.5001,-140.7157 1991,-150.7157 1994.5001,-140.7158 1987.5001,-140.7157"/>
</g>
<!-- { : , : , : true }&#45;&gt;LiteralValueValidator -->
<g id="edge16" class="edge">
<title>{ : , : , : true }&#45;&gt;LiteralValueValidator</title>
<path fill="none" stroke="#000000" d="M1130.6743,-110C1244.9321,-110 1478,-110 1478,-110 1478,-110 1478,-140.9775 1478,-140.9775"/>
<polygon fill="#000000" stroke="#000000" points="1474.5001,-140.9774 1478,-150.9775 1481.5001,-140.9775 1474.5001,-140.9774"/>
</g>
<!-- { : , : , : true }&#45;&gt;PointerValidator -->
<g id="edge22" class="edge">
<title>{ : , : , : true }&#45;&gt;PointerValidator</title>
<path fill="none" stroke="#000000" d="M1007.4765,-110C893.498,-110 661,-110 661,-110 661,-110 661,-140.9775 661,-140.9775"/>
<polygon fill="#000000" stroke="#000000" points="657.5001,-140.9774 661,-150.9775 664.5001,-140.9775 657.5001,-140.9774"/>
</g>
<!-- { : , : , : true }&#45;&gt;PropertyNameValidator -->
<g id="edge26" class="edge">
<title>{ : , : , : true }&#45;&gt;PropertyNameValidator</title>
<path fill="none" stroke="#000000" d="M1007.3309,-98C812.1915,-98 221,-98 221,-98 221,-98 221,-140.7157 221,-140.7157"/>
<polygon fill="#000000" stroke="#000000" points="217.5001,-140.7157 221,-150.7157 224.5001,-140.7158 217.5001,-140.7157"/>
</g>
<!-- SharedModule -->
<g id="node25" class="node">
<title>SharedModule</title>
<polygon fill="#8dd3c7" stroke="#000000" points="122.4231,-187 119.4231,-191 98.4231,-191 95.4231,-187 23.5769,-187 23.5769,-151 122.4231,-151 122.4231,-187"/>
<text text-anchor="middle" x="73" y="-164.8" font-family="Times,serif" font-size="14.00" fill="#000000">SharedModule</text>
</g>
<!-- SharedModule&#45;&gt;DocumentExplorerModule -->
<g id="edge27" class="edge">
<title>SharedModule&#45;&gt;DocumentExplorerModule</title>
<path fill="none" stroke="#000000" d="M73,-187.1532C73,-210.7566 73,-249 73,-249 73,-249 1663.4902,-249 1663.4902,-249"/>
<polygon fill="#000000" stroke="#000000" points="1663.4902,-252.5001 1673.4902,-249 1663.4901,-245.5001 1663.4902,-252.5001"/>
</g>
</g>
</svg>
