<?xml version="1.0" encoding="UTF-8" standalone="no"?>
<!DOCTYPE svg PUBLIC "-//W3C//DTD SVG 1.1//EN"
 "http://www.w3.org/Graphics/SVG/1.1/DTD/svg11.dtd">
<!-- Generated by graphviz version 2.40.1 (20161225.0304)
 -->
<!-- Title: dependencies Pages: 1 -->
<svg width="4643pt" height="349pt"
 viewBox="0.00 0.00 4643.00 349.00" xmlns="http://www.w3.org/2000/svg" xmlns:xlink="http://www.w3.org/1999/xlink">
<g id="graph0" class="graph" transform="scale(1 1) rotate(0) translate(4 345)">
<title>dependencies</title>
<polygon fill="#ffffff" stroke="transparent" points="-4,4 -4,-345 4639,-345 4639,4 -4,4"/>
<text text-anchor="start" x="2296.5091" y="-42.4" font-family="sans-serif" font-weight="bold" font-size="14.00" fill="#000000">Legend</text>
<polygon fill="#ffffb3" stroke="transparent" points="2083.5,-10 2083.5,-30 2103.5,-30 2103.5,-10 2083.5,-10"/>
<text text-anchor="start" x="2107.129" y="-15.4" font-family="sans-serif" font-size="14.00" fill="#000000"> &#160;Declarations</text>
<polygon fill="#8dd3c7" stroke="transparent" points="2196.5,-10 2196.5,-30 2216.5,-30 2216.5,-10 2196.5,-10"/>
<text text-anchor="start" x="2220.2251" y="-15.4" font-family="sans-serif" font-size="14.00" fill="#000000"> &#160;Module</text>
<polygon fill="#80b1d3" stroke="transparent" points="2282.5,-10 2282.5,-30 2302.5,-30 2302.5,-10 2282.5,-10"/>
<text text-anchor="start" x="2306.2812" y="-15.4" font-family="sans-serif" font-size="14.00" fill="#000000"> &#160;Bootstrap</text>
<polygon fill="#fdb462" stroke="transparent" points="2379.5,-10 2379.5,-30 2399.5,-30 2399.5,-10 2379.5,-10"/>
<text text-anchor="start" x="2403.1732" y="-15.4" font-family="sans-serif" font-size="14.00" fill="#000000"> &#160;Providers</text>
<polygon fill="#fb8072" stroke="transparent" points="2475.5,-10 2475.5,-30 2495.5,-30 2495.5,-10 2475.5,-10"/>
<text text-anchor="start" x="2499.2258" y="-15.4" font-family="sans-serif" font-size="14.00" fill="#000000"> &#160;Exports</text>
<g id="clust1" class="cluster">
<title>cluster_DocumentExplorerModule</title>
<polygon fill="none" stroke="#000000" stroke-dasharray="1,5" points="8,-70 8,-333 4627,-333 4627,-70 8,-70"/>
</g>
<g id="clust2" class="cluster">
<title>cluster_DocumentExplorerModule_declarations</title>
<polygon fill="none" stroke="#000000" points="419,-143 419,-195 4619,-195 4619,-143 419,-143"/>
</g>
<g id="clust24" class="cluster">
<title>cluster_DocumentExplorerModule_IdValidator_providers</title>
<polygon fill="none" stroke="#000000" points="1926,-78 1926,-130 2482,-130 2482,-78 1926,-78"/>
</g>
<g id="clust25" class="cluster">
<title>cluster_DocumentExplorerModule_PropertyNameValidator_providers</title>
<polygon fill="none" stroke="#000000" points="1266,-78 1266,-130 1918,-130 1918,-78 1266,-78"/>
</g>
<g id="clust26" class="cluster">
<title>cluster_DocumentExplorerModule_LiteralValueValidator_providers</title>
<polygon fill="none" stroke="#000000" points="620,-78 620,-130 1258,-130 1258,-78 620,-78"/>
</g>
<g id="clust27" class="cluster">
<title>cluster_DocumentExplorerModule_PointerValidator_providers</title>
<polygon fill="none" stroke="#000000" points="16,-78 16,-130 612,-130 612,-78 16,-78"/>
</g>
<g id="clust28" class="cluster">
<title>cluster_DocumentExplorerModule_imports</title>
<polygon fill="none" stroke="#000000" points="16,-143 16,-195 411,-195 411,-143 16,-143"/>
</g>
<g id="clust29" class="cluster">
<title>cluster_DocumentExplorerModule_exports</title>
<polygon fill="none" stroke="#000000" points="2304,-273 2304,-325 2512,-325 2512,-273 2304,-273"/>
</g>
<!-- LiteralComponent -->
<g id="node1" class="node">
<title>LiteralComponent</title>
<polygon fill="#ffffb3" stroke="#000000" points="4611.1471,-187 4492.8529,-187 4492.8529,-151 4611.1471,-151 4611.1471,-187"/>
<text text-anchor="middle" x="4552" y="-164.8" font-family="Times,serif" font-size="14.00" fill="#000000">LiteralComponent</text>
</g>
<!-- DocumentExplorerModule -->
<g id="node26" class="node">
<title>DocumentExplorerModule</title>
<polygon fill="#8dd3c7" stroke="#000000" points="2491.3459,-252 2488.3459,-256 2467.3459,-256 2464.3459,-252 2324.6541,-252 2324.6541,-216 2491.3459,-216 2491.3459,-252"/>
<text text-anchor="middle" x="2408" y="-229.8" font-family="Times,serif" font-size="14.00" fill="#000000">DocumentExplorerModule</text>
</g>
<!-- LiteralComponent&#45;&gt;DocumentExplorerModule -->
<g id="edge1" class="edge">
<title>LiteralComponent&#45;&gt;DocumentExplorerModule</title>
<path fill="none" stroke="#000000" d="M4552,-187.3802C4552,-211.2785 4552,-250 4552,-250 4552,-250 2501.3893,-250 2501.3893,-250"/>
<polygon fill="#000000" stroke="#000000" points="2501.3894,-246.5001 2491.3893,-250 2501.3893,-253.5001 2501.3894,-246.5001"/>
</g>
<!-- LiteralsComponent -->
<g id="node2" class="node">
<title>LiteralsComponent</title>
<polygon fill="#ffffb3" stroke="#000000" points="4475.0912,-187 4350.9088,-187 4350.9088,-151 4475.0912,-151 4475.0912,-187"/>
<text text-anchor="middle" x="4413" y="-164.8" font-family="Times,serif" font-size="14.00" fill="#000000">LiteralsComponent</text>
</g>
<!-- LiteralsComponent&#45;&gt;DocumentExplorerModule -->
<g id="edge2" class="edge">
<title>LiteralsComponent&#45;&gt;DocumentExplorerModule</title>
<path fill="none" stroke="#000000" d="M4413,-187.0908C4413,-210.1328 4413,-247 4413,-247 4413,-247 2501.5997,-247 2501.5997,-247"/>
<polygon fill="#000000" stroke="#000000" points="2501.5997,-243.5001 2491.5997,-247 2501.5997,-250.5001 2501.5997,-243.5001"/>
</g>
<!-- PointerComponent -->
<g id="node3" class="node">
<title>PointerComponent</title>
<polygon fill="#ffffb3" stroke="#000000" points="4332.7716,-187 4211.2284,-187 4211.2284,-151 4332.7716,-151 4332.7716,-187"/>
<text text-anchor="middle" x="4272" y="-164.8" font-family="Times,serif" font-size="14.00" fill="#000000">PointerComponent</text>
</g>
<!-- PointerComponent&#45;&gt;DocumentExplorerModule -->
<g id="edge3" class="edge">
<title>PointerComponent&#45;&gt;DocumentExplorerModule</title>
<path fill="none" stroke="#000000" d="M4272,-187.0109C4272,-209.4852 4272,-245 4272,-245 4272,-245 2501.409,-245 2501.409,-245"/>
<polygon fill="#000000" stroke="#000000" points="2501.4091,-241.5001 2491.409,-245 2501.409,-248.5001 2501.4091,-241.5001"/>
</g>
<!-- PointersComponent -->
<g id="node4" class="node">
<title>PointersComponent</title>
<polygon fill="#ffffb3" stroke="#000000" points="4193.7162,-187 4066.2838,-187 4066.2838,-151 4193.7162,-151 4193.7162,-187"/>
<text text-anchor="middle" x="4130" y="-164.8" font-family="Times,serif" font-size="14.00" fill="#000000">PointersComponent</text>
</g>
<!-- PointersComponent&#45;&gt;DocumentExplorerModule -->
<g id="edge4" class="edge">
<title>PointersComponent&#45;&gt;DocumentExplorerModule</title>
<path fill="none" stroke="#000000" d="M4130,-187.0449C4130,-208.6623 4130,-242 4130,-242 4130,-242 2501.3464,-242 2501.3464,-242"/>
<polygon fill="#000000" stroke="#000000" points="2501.3464,-238.5001 2491.3464,-242 2501.3464,-245.5001 2501.3464,-238.5001"/>
</g>
<!-- ListComponent -->
<g id="node5" class="node">
<title>ListComponent</title>
<polygon fill="#ffffb3" stroke="#000000" points="4048.6109,-187 3945.3891,-187 3945.3891,-151 4048.6109,-151 4048.6109,-187"/>
<text text-anchor="middle" x="3997" y="-164.8" font-family="Times,serif" font-size="14.00" fill="#000000">ListComponent</text>
</g>
<!-- ListComponent&#45;&gt;DocumentExplorerModule -->
<g id="edge5" class="edge">
<title>ListComponent&#45;&gt;DocumentExplorerModule</title>
<path fill="none" stroke="#000000" d="M3997,-187.2843C3997,-208.3211 3997,-240 3997,-240 3997,-240 2501.4725,-240 2501.4725,-240"/>
<polygon fill="#000000" stroke="#000000" points="2501.4725,-236.5001 2491.4725,-240 2501.4725,-243.5001 2501.4725,-236.5001"/>
</g>
<!-- ListsComponent -->
<g id="node6" class="node">
<title>ListsComponent</title>
<polygon fill="#ffffb3" stroke="#000000" points="3927.0563,-187 3818.9437,-187 3818.9437,-151 3927.0563,-151 3927.0563,-187"/>
<text text-anchor="middle" x="3873" y="-164.8" font-family="Times,serif" font-size="14.00" fill="#000000">ListsComponent</text>
</g>
<!-- ListsComponent&#45;&gt;DocumentExplorerModule -->
<g id="edge6" class="edge">
<title>ListsComponent&#45;&gt;DocumentExplorerModule</title>
<path fill="none" stroke="#000000" d="M3873,-187.2228C3873,-207.3652 3873,-237 3873,-237 3873,-237 2501.4937,-237 2501.4937,-237"/>
<polygon fill="#000000" stroke="#000000" points="2501.4937,-233.5001 2491.4937,-237 2501.4937,-240.5001 2501.4937,-233.5001"/>
</g>
<!-- PropertyComponent -->
<g id="node7" class="node">
<title>PropertyComponent</title>
<polygon fill="#ffffb3" stroke="#000000" points="3800.5422,-187 3671.4578,-187 3671.4578,-151 3800.5422,-151 3800.5422,-187"/>
<text text-anchor="middle" x="3736" y="-164.8" font-family="Times,serif" font-size="14.00" fill="#000000">PropertyComponent</text>
</g>
<!-- PropertyComponent&#45;&gt;DocumentExplorerModule -->
<g id="edge7" class="edge">
<title>PropertyComponent&#45;&gt;DocumentExplorerModule</title>
<path fill="none" stroke="#000000" d="M3736,-187.1061C3736,-206.3391 3736,-234 3736,-234 3736,-234 2501.5754,-234 2501.5754,-234"/>
<polygon fill="#000000" stroke="#000000" points="2501.5755,-230.5001 2491.5754,-234 2501.5754,-237.5001 2501.5755,-230.5001"/>
</g>
<!-- PropertyIDComponent -->
<g id="node8" class="node">
<title>PropertyIDComponent</title>
<polygon fill="#ffffb3" stroke="#000000" points="3653.3089,-187 3508.6911,-187 3508.6911,-151 3653.3089,-151 3653.3089,-187"/>
<text text-anchor="middle" x="3581" y="-164.8" font-family="Times,serif" font-size="14.00" fill="#000000">PropertyIDComponent</text>
</g>
<!-- PropertyIDComponent&#45;&gt;DocumentExplorerModule -->
<g id="edge8" class="edge">
<title>PropertyIDComponent&#45;&gt;DocumentExplorerModule</title>
<path fill="none" stroke="#000000" d="M3581,-187.2222C3581,-205.8285 3581,-232 3581,-232 3581,-232 2501.4189,-232 2501.4189,-232"/>
<polygon fill="#000000" stroke="#000000" points="2501.4189,-228.5001 2491.4189,-232 2501.4189,-235.5001 2501.4189,-228.5001"/>
</g>
<!-- PropertyTypeComponent -->
<g id="node9" class="node">
<title>PropertyTypeComponent</title>
<polygon fill="#ffffb3" stroke="#000000" points="3491.3089,-187 3332.6911,-187 3332.6911,-151 3491.3089,-151 3491.3089,-187"/>
<text text-anchor="middle" x="3412" y="-164.8" font-family="Times,serif" font-size="14.00" fill="#000000">PropertyTypeComponent</text>
</g>
<!-- PropertyTypeComponent&#45;&gt;DocumentExplorerModule -->
<g id="edge9" class="edge">
<title>PropertyTypeComponent&#45;&gt;DocumentExplorerModule</title>
<path fill="none" stroke="#000000" d="M3412,-187.002C3412,-204.6754 3412,-229 3412,-229 3412,-229 2501.4442,-229 2501.4442,-229"/>
<polygon fill="#000000" stroke="#000000" points="2501.4442,-225.5001 2491.4442,-229 2501.4442,-232.5001 2501.4442,-225.5001"/>
</g>
<!-- PropertyContentComponent -->
<g id="node10" class="node">
<title>PropertyContentComponent</title>
<polygon fill="#ffffb3" stroke="#000000" points="3314.8738,-187 3141.1262,-187 3141.1262,-151 3314.8738,-151 3314.8738,-187"/>
<text text-anchor="middle" x="3228" y="-164.8" font-family="Times,serif" font-size="14.00" fill="#000000">PropertyContentComponent</text>
</g>
<!-- PropertyContentComponent&#45;&gt;DocumentExplorerModule -->
<g id="edge10" class="edge">
<title>PropertyContentComponent&#45;&gt;DocumentExplorerModule</title>
<path fill="none" stroke="#000000" d="M3228,-187.0336C3228,-204.0597 3228,-227 3228,-227 3228,-227 2501.5193,-227 2501.5193,-227"/>
<polygon fill="#000000" stroke="#000000" points="2501.5194,-223.5001 2491.5193,-227 2501.5193,-230.5001 2501.5194,-223.5001"/>
</g>
<!-- BlankNodeComponent -->
<g id="node11" class="node">
<title>BlankNodeComponent</title>
<polygon fill="#ffffb3" stroke="#000000" points="3123.5954,-187 2978.4046,-187 2978.4046,-151 3123.5954,-151 3123.5954,-187"/>
<text text-anchor="middle" x="3051" y="-164.8" font-family="Times,serif" font-size="14.00" fill="#000000">BlankNodeComponent</text>
</g>
<!-- BlankNodeComponent&#45;&gt;DocumentExplorerModule -->
<g id="edge11" class="edge">
<title>BlankNodeComponent&#45;&gt;DocumentExplorerModule</title>
<path fill="none" stroke="#000000" d="M3051,-187.0091C3051,-203.0494 3051,-224 3051,-224 3051,-224 2501.4018,-224 2501.4018,-224"/>
<polygon fill="#000000" stroke="#000000" points="2501.4019,-220.5001 2491.4018,-224 2501.4018,-227.5001 2501.4019,-220.5001"/>
</g>
<!-- BlankNodesComponent -->
<g id="node12" class="node">
<title>BlankNodesComponent</title>
<polygon fill="#ffffb3" stroke="#000000" points="2960.0407,-187 2809.9593,-187 2809.9593,-151 2960.0407,-151 2960.0407,-187"/>
<text text-anchor="middle" x="2885" y="-164.8" font-family="Times,serif" font-size="14.00" fill="#000000">BlankNodesComponent</text>
</g>
<!-- BlankNodesComponent&#45;&gt;DocumentExplorerModule -->
<g id="edge12" class="edge">
<title>BlankNodesComponent&#45;&gt;DocumentExplorerModule</title>
<path fill="none" stroke="#000000" d="M2885,-187.2396C2885,-202.5706 2885,-222 2885,-222 2885,-222 2501.3598,-222 2501.3598,-222"/>
<polygon fill="#000000" stroke="#000000" points="2501.3599,-218.5001 2491.3598,-222 2501.3598,-225.5001 2501.3599,-218.5001"/>
</g>
<!-- NamedFragmentComponent -->
<g id="node13" class="node">
<title>NamedFragmentComponent</title>
<polygon fill="#ffffb3" stroke="#000000" points="2791.9129,-187 2616.0871,-187 2616.0871,-151 2791.9129,-151 2791.9129,-187"/>
<text text-anchor="middle" x="2704" y="-164.8" font-family="Times,serif" font-size="14.00" fill="#000000">NamedFragmentComponent</text>
</g>
<!-- NamedFragmentComponent&#45;&gt;DocumentExplorerModule -->
<g id="edge13" class="edge">
<title>NamedFragmentComponent&#45;&gt;DocumentExplorerModule</title>
<path fill="none" stroke="#000000" d="M2704,-187.0511C2704,-201.373 2704,-219 2704,-219 2704,-219 2501.6348,-219 2501.6348,-219"/>
<polygon fill="#000000" stroke="#000000" points="2501.6349,-215.5001 2491.6348,-219 2501.6348,-222.5001 2501.6349,-215.5001"/>
</g>
<!-- NamedFragmentsComponent -->
<g id="node14" class="node">
<title>NamedFragmentsComponent</title>
<polygon fill="#ffffb3" stroke="#000000" points="2598.3571,-187 2417.6429,-187 2417.6429,-151 2598.3571,-151 2598.3571,-187"/>
<text text-anchor="middle" x="2508" y="-164.8" font-family="Times,serif" font-size="14.00" fill="#000000">NamedFragmentsComponent</text>
</g>
<!-- NamedFragmentsComponent&#45;&gt;DocumentExplorerModule -->
<g id="edge14" class="edge">
<title>NamedFragmentsComponent&#45;&gt;DocumentExplorerModule</title>
<path fill="none" stroke="#000000" d="M2454.4972,-187.1061C2454.4972,-187.1061 2454.4972,-205.991 2454.4972,-205.991"/>
<polygon fill="#000000" stroke="#000000" points="2450.9973,-205.9909 2454.4972,-215.991 2457.9973,-205.991 2450.9973,-205.9909"/>
</g>
<!-- DocumentViewerComponent -->
<g id="node15" class="node">
<title>DocumentViewerComponent</title>
<polygon fill="#ffffb3" stroke="#000000" points="2399.3431,-187 2218.6569,-187 2218.6569,-151 2399.3431,-151 2399.3431,-187"/>
<text text-anchor="middle" x="2309" y="-164.8" font-family="Times,serif" font-size="14.00" fill="#000000">DocumentViewerComponent</text>
</g>
<!-- DocumentViewerComponent&#45;&gt;DocumentExplorerModule -->
<g id="edge15" class="edge">
<title>DocumentViewerComponent&#45;&gt;DocumentExplorerModule</title>
<path fill="none" stroke="#000000" d="M2361.9993,-187.1061C2361.9993,-187.1061 2361.9993,-205.991 2361.9993,-205.991"/>
<polygon fill="#000000" stroke="#000000" points="2358.4994,-205.9909 2361.9993,-215.991 2365.4994,-205.991 2358.4994,-205.9909"/>
</g>
<!-- DocumentTreeViewComponent -->
<g id="node16" class="node">
<title>DocumentTreeViewComponent</title>
<polygon fill="#ffffb3" stroke="#000000" points="2200.6106,-187 2005.3894,-187 2005.3894,-151 2200.6106,-151 2200.6106,-187"/>
<text text-anchor="middle" x="2103" y="-164.8" font-family="Times,serif" font-size="14.00" fill="#000000">DocumentTreeViewComponent</text>
</g>
<!-- DocumentTreeViewComponent&#45;&gt;DocumentExplorerModule -->
<g id="edge16" class="edge">
<title>DocumentTreeViewComponent&#45;&gt;DocumentExplorerModule</title>
<path fill="none" stroke="#000000" d="M2103,-187.0511C2103,-201.373 2103,-219 2103,-219 2103,-219 2314.254,-219 2314.254,-219"/>
<polygon fill="#000000" stroke="#000000" points="2314.254,-222.5001 2324.254,-219 2314.254,-215.5001 2314.254,-222.5001"/>
</g>
<!-- DocumentResourceComponent -->
<g id="node17" class="node">
<title>DocumentResourceComponent</title>
<polygon fill="#ffffb3" stroke="#000000" points="1986.7352,-187 1795.2648,-187 1795.2648,-151 1986.7352,-151 1986.7352,-187"/>
<text text-anchor="middle" x="1891" y="-164.8" font-family="Times,serif" font-size="14.00" fill="#000000">DocumentResourceComponent</text>
</g>
<!-- DocumentResourceComponent&#45;&gt;DocumentExplorerModule -->
<g id="edge17" class="edge">
<title>DocumentResourceComponent&#45;&gt;DocumentExplorerModule</title>
<path fill="none" stroke="#000000" d="M1891,-187.2396C1891,-202.5706 1891,-222 1891,-222 1891,-222 2314.6479,-222 2314.6479,-222"/>
<polygon fill="#000000" stroke="#000000" points="2314.6479,-225.5001 2324.6479,-222 2314.6479,-218.5001 2314.6479,-225.5001"/>
</g>
<!-- DocumentExplorerComponent -->
<g id="node18" class="node">
<title>DocumentExplorerComponent</title>
<polygon fill="#ffffb3" stroke="#000000" points="1777.1288,-187 1588.8712,-187 1588.8712,-151 1777.1288,-151 1777.1288,-187"/>
<text text-anchor="middle" x="1683" y="-164.8" font-family="Times,serif" font-size="14.00" fill="#000000">DocumentExplorerComponent</text>
</g>
<!-- DocumentExplorerComponent&#45;&gt;DocumentExplorerModule -->
<g id="edge18" class="edge">
<title>DocumentExplorerComponent&#45;&gt;DocumentExplorerModule</title>
<path fill="none" stroke="#000000" d="M1683,-187.0091C1683,-203.0494 1683,-224 1683,-224 1683,-224 2314.4795,-224 2314.4795,-224"/>
<polygon fill="#000000" stroke="#000000" points="2314.4795,-227.5001 2324.4795,-224 2314.4794,-220.5001 2314.4795,-227.5001"/>
</g>
<!-- AccessPointCreatorComponent -->
<g id="node19" class="node">
<title>AccessPointCreatorComponent</title>
<polygon fill="#ffffb3" stroke="#000000" points="1570.014,-187 1377.986,-187 1377.986,-151 1570.014,-151 1570.014,-187"/>
<text text-anchor="middle" x="1474" y="-164.8" font-family="Times,serif" font-size="14.00" fill="#000000">AccessPointCreatorComponent</text>
</g>
<!-- AccessPointCreatorComponent&#45;&gt;DocumentExplorerModule -->
<g id="edge19" class="edge">
<title>AccessPointCreatorComponent&#45;&gt;DocumentExplorerModule</title>
<path fill="none" stroke="#000000" d="M1474,-187.0336C1474,-204.0597 1474,-227 1474,-227 1474,-227 2314.2918,-227 2314.2918,-227"/>
<polygon fill="#000000" stroke="#000000" points="2314.2918,-230.5001 2324.2918,-227 2314.2917,-223.5001 2314.2918,-230.5001"/>
</g>
<!-- DocumentCreatorComponent -->
<g id="node20" class="node">
<title>DocumentCreatorComponent</title>
<polygon fill="#ffffb3" stroke="#000000" points="1359.6274,-187 1178.3726,-187 1178.3726,-151 1359.6274,-151 1359.6274,-187"/>
<text text-anchor="middle" x="1269" y="-164.8" font-family="Times,serif" font-size="14.00" fill="#000000">DocumentCreatorComponent</text>
</g>
<!-- DocumentCreatorComponent&#45;&gt;DocumentExplorerModule -->
<g id="edge20" class="edge">
<title>DocumentCreatorComponent&#45;&gt;DocumentExplorerModule</title>
<path fill="none" stroke="#000000" d="M1269,-187.002C1269,-204.6754 1269,-229 1269,-229 1269,-229 2314.2466,-229 2314.2466,-229"/>
<polygon fill="#000000" stroke="#000000" points="2314.2466,-232.5001 2324.2466,-229 2314.2466,-225.5001 2314.2466,-232.5001"/>
</g>
<!-- DocumentDeleterComponent -->
<g id="node21" class="node">
<title>DocumentDeleterComponent</title>
<polygon fill="#ffffb3" stroke="#000000" points="1160.3417,-187 979.6583,-187 979.6583,-151 1160.3417,-151 1160.3417,-187"/>
<text text-anchor="middle" x="1070" y="-164.8" font-family="Times,serif" font-size="14.00" fill="#000000">DocumentDeleterComponent</text>
</g>
<!-- DocumentDeleterComponent&#45;&gt;DocumentExplorerModule -->
<g id="edge21" class="edge">
<title>DocumentDeleterComponent&#45;&gt;DocumentExplorerModule</title>
<path fill="none" stroke="#000000" d="M1070,-187.2222C1070,-205.8285 1070,-232 1070,-232 1070,-232 2314.555,-232 2314.555,-232"/>
<polygon fill="#000000" stroke="#000000" points="2314.5551,-235.5001 2324.555,-232 2314.555,-228.5001 2314.5551,-235.5001"/>
</g>
<!-- IdValidator -->
<g id="node22" class="node">
<title>IdValidator</title>
<polygon fill="#ffffb3" stroke="#000000" points="961.0302,-187 880.9698,-187 880.9698,-151 961.0302,-151 961.0302,-187"/>
<text text-anchor="middle" x="921" y="-164.8" font-family="Times,serif" font-size="14.00" fill="#000000">IdValidator</text>
</g>
<!-- IdValidator&#45;&gt;DocumentExplorerModule -->
<g id="edge22" class="edge">
<title>IdValidator&#45;&gt;DocumentExplorerModule</title>
<path fill="none" stroke="#000000" d="M921,-187.1061C921,-206.3391 921,-234 921,-234 921,-234 2314.5981,-234 2314.5981,-234"/>
<polygon fill="#000000" stroke="#000000" points="2314.5982,-237.5001 2324.5981,-234 2314.5981,-230.5001 2314.5982,-237.5001"/>
</g>
<!-- PropertyNameValidator -->
<g id="node23" class="node">
<title>PropertyNameValidator</title>
<polygon fill="#ffffb3" stroke="#000000" points="862.0044,-187 711.9956,-187 711.9956,-151 862.0044,-151 862.0044,-187"/>
<text text-anchor="middle" x="787" y="-164.8" font-family="Times,serif" font-size="14.00" fill="#000000">PropertyNameValidator</text>
</g>
<!-- PropertyNameValidator&#45;&gt;DocumentExplorerModule -->
<g id="edge24" class="edge">
<title>PropertyNameValidator&#45;&gt;DocumentExplorerModule</title>
<path fill="none" stroke="#000000" d="M787,-187.2228C787,-207.3652 787,-237 787,-237 787,-237 2314.5432,-237 2314.5432,-237"/>
<polygon fill="#000000" stroke="#000000" points="2314.5432,-240.5001 2324.5432,-237 2314.5431,-233.5001 2314.5432,-240.5001"/>
</g>
<!-- LiteralValueValidator -->
<g id="node24" class="node">
<title>LiteralValueValidator</title>
<polygon fill="#ffffb3" stroke="#000000" points="693.6093,-187 554.3907,-187 554.3907,-151 693.6093,-151 693.6093,-187"/>
<text text-anchor="middle" x="624" y="-164.8" font-family="Times,serif" font-size="14.00" fill="#000000">LiteralValueValidator</text>
</g>
<!-- LiteralValueValidator&#45;&gt;DocumentExplorerModule -->
<g id="edge26" class="edge">
<title>LiteralValueValidator&#45;&gt;DocumentExplorerModule</title>
<path fill="none" stroke="#000000" d="M624,-187.2843C624,-208.3211 624,-240 624,-240 624,-240 2314.6438,-240 2314.6438,-240"/>
<polygon fill="#000000" stroke="#000000" points="2314.6438,-243.5001 2324.6438,-240 2314.6437,-236.5001 2314.6438,-243.5001"/>
</g>
<!-- PointerValidator -->
<g id="node25" class="node">
<title>PointerValidator</title>
<polygon fill="#ffffb3" stroke="#000000" points="536.8076,-187 427.1924,-187 427.1924,-151 536.8076,-151 536.8076,-187"/>
<text text-anchor="middle" x="482" y="-164.8" font-family="Times,serif" font-size="14.00" fill="#000000">PointerValidator</text>
</g>
<!-- PointerValidator&#45;&gt;DocumentExplorerModule -->
<g id="edge28" class="edge">
<title>PointerValidator&#45;&gt;DocumentExplorerModule</title>
<path fill="none" stroke="#000000" d="M482,-187.0449C482,-208.6623 482,-242 482,-242 482,-242 2314.624,-242 2314.624,-242"/>
<polygon fill="#000000" stroke="#000000" points="2314.624,-245.5001 2324.624,-242 2314.624,-238.5001 2314.624,-245.5001"/>
</g>
<!-- DocumentExplorerComponent  -->
<g id="node34" class="node">
<title>DocumentExplorerComponent </title>
<polygon fill="#fb8072" stroke="#000000" points="2504.1284,-317 2311.8716,-317 2311.8716,-281 2504.1284,-281 2504.1284,-317"/>
<text text-anchor="middle" x="2408" y="-294.8" font-family="Times,serif" font-size="14.00" fill="#000000">DocumentExplorerComponent </text>
</g>
<!-- DocumentExplorerModule&#45;&gt;DocumentExplorerComponent  -->
<g id="edge33" class="edge">
<title>DocumentExplorerModule&#45;&gt;DocumentExplorerComponent </title>
<path fill="none" stroke="#000000" stroke-dasharray="5,2" d="M2408,-252.1061C2408,-252.1061 2408,-270.991 2408,-270.991"/>
<polygon fill="#000000" stroke="#000000" points="2404.5001,-270.9909 2408,-280.991 2411.5001,-270.991 2404.5001,-270.9909"/>
</g>
<!-- { provide: NG_VALIDATORS, useExisting: IdValidator, multi: &#160;} -->
<g id="node27" class="node">
<title>{ provide: NG_VALIDATORS, useExisting: IdValidator, multi: &#160;}</title>
<ellipse fill="#fdb462" stroke="#000000" cx="2204" cy="-104" rx="269.9962" ry="18"/>
<text text-anchor="middle" x="2204" y="-99.8" font-family="Times,serif" font-size="14.00" fill="#000000">{ provide: NG_VALIDATORS, useExisting: IdValidator, multi: &#160;}</text>
</g>
<!-- { provide: NG_VALIDATORS, useExisting: IdValidator, multi: &#160;}&#45;&gt;IdValidator -->
<g id="edge23" class="edge">
<title>{ provide: NG_VALIDATORS, useExisting: IdValidator, multi: &#160;}&#45;&gt;IdValidator</title>
<path fill="none" stroke="#000000" d="M1960.4347,-112.0588C1960.4347,-123.2134 1960.4347,-142 1960.4347,-142 1960.4347,-142 921,-142 921,-142 921,-142 921,-142.8841 921,-142.8841"/>
<polygon fill="#000000" stroke="#000000" points="917.5001,-140.8408 921,-150.8408 924.5001,-140.8409 917.5001,-140.8408"/>
</g>
<!-- { provide: NG_VALIDATORS, useExisting: PropertyNameValidator, multi: &#160;} -->
<g id="node28" class="node">
<title>{ provide: NG_VALIDATORS, useExisting: PropertyNameValidator, multi: &#160;}</title>
<ellipse fill="#fdb462" stroke="#000000" cx="1592" cy="-104" rx="318.0311" ry="18"/>
<text text-anchor="middle" x="1592" y="-99.8" font-family="Times,serif" font-size="14.00" fill="#000000">{ provide: NG_VALIDATORS, useExisting: PropertyNameValidator, multi: &#160;}</text>
</g>
<!-- { provide: NG_VALIDATORS, useExisting: PropertyNameValidator, multi: &#160;}&#45;&gt;PropertyNameValidator -->
<g id="edge25" class="edge">
<title>{ provide: NG_VALIDATORS, useExisting: PropertyNameValidator, multi: &#160;}&#45;&gt;PropertyNameValidator</title>
<path fill="none" stroke="#000000" d="M1316.774,-113.1682C1316.774,-121.3342 1316.774,-132 1316.774,-132 1316.774,-132 787,-132 787,-132 787,-132 787,-140.9336 787,-140.9336"/>
<polygon fill="#000000" stroke="#000000" points="783.5001,-140.9335 787,-150.9336 790.5001,-140.9336 783.5001,-140.9335"/>
</g>
<!-- { provide: NG_VALIDATORS, useExisting: LiteralValueValidator, multi: &#160;} -->
<g id="node29" class="node">
<title>{ provide: NG_VALIDATORS, useExisting: LiteralValueValidator, multi: &#160;}</title>
<ellipse fill="#fdb462" stroke="#000000" cx="939" cy="-104" rx="310.501" ry="18"/>
<text text-anchor="middle" x="939" y="-99.8" font-family="Times,serif" font-size="14.00" fill="#000000">{ provide: NG_VALIDATORS, useExisting: LiteralValueValidator, multi: &#160;}</text>
</g>
<!-- { provide: NG_VALIDATORS, useExisting: LiteralValueValidator, multi: &#160;}&#45;&gt;LiteralValueValidator -->
<g id="edge27" class="edge">
<title>{ provide: NG_VALIDATORS, useExisting: LiteralValueValidator, multi: &#160;}&#45;&gt;LiteralValueValidator</title>
<path fill="none" stroke="#000000" d="M661.027,-112.2323C661.027,-112.2323 661.027,-140.7574 661.027,-140.7574"/>
<polygon fill="#000000" stroke="#000000" points="657.5271,-140.7574 661.027,-150.7574 664.5271,-140.7575 657.5271,-140.7574"/>
</g>
<!-- { provide: NG_VALIDATORS, useExisting: PointerValidator, multi: &#160;} -->
<g id="node30" class="node">
<title>{ provide: NG_VALIDATORS, useExisting: PointerValidator, multi: &#160;}</title>
<ellipse fill="#fdb462" stroke="#000000" cx="314" cy="-104" rx="289.6979" ry="18"/>
<text text-anchor="middle" x="314" y="-99.8" font-family="Times,serif" font-size="14.00" fill="#000000">{ provide: NG_VALIDATORS, useExisting: PointerValidator, multi: &#160;}</text>
</g>
<!-- { provide: NG_VALIDATORS, useExisting: PointerValidator, multi: &#160;}&#45;&gt;PointerValidator -->
<g id="edge29" class="edge">
<title>{ provide: NG_VALIDATORS, useExisting: PointerValidator, multi: &#160;}&#45;&gt;PointerValidator</title>
<path fill="none" stroke="#000000" d="M482,-118.7495C482,-118.7495 482,-140.5882 482,-140.5882"/>
<polygon fill="#000000" stroke="#000000" points="478.5001,-140.5881 482,-150.5882 485.5001,-140.5882 478.5001,-140.5881"/>
</g>
<!-- CommonModule -->
<g id="node31" class="node">
<title>CommonModule</title>
<polygon fill="#8dd3c7" stroke="#000000" points="402.6681,-187 399.6681,-191 378.6681,-191 375.6681,-187 291.3319,-187 291.3319,-151 402.6681,-151 402.6681,-187"/>
<text text-anchor="middle" x="347" y="-164.8" font-family="Times,serif" font-size="14.00" fill="#000000">CommonModule</text>
</g>
<!-- CommonModule&#45;&gt;DocumentExplorerModule -->
<g id="edge30" class="edge">
<title>CommonModule&#45;&gt;DocumentExplorerModule</title>
<path fill="none" stroke="#000000" d="M347,-187.0109C347,-209.4852 347,-245 347,-245 347,-245 2314.6537,-245 2314.6537,-245"/>
<polygon fill="#000000" stroke="#000000" points="2314.6538,-248.5001 2324.6537,-245 2314.6537,-241.5001 2314.6538,-248.5001"/>
</g>
<!-- FormsModule -->
<g id="node32" class="node">
<title>FormsModule</title>
<polygon fill="#8dd3c7" stroke="#000000" points="273.8288,-187 270.8288,-191 249.8288,-191 246.8288,-187 178.1712,-187 178.1712,-151 273.8288,-151 273.8288,-187"/>
<text text-anchor="middle" x="226" y="-164.8" font-family="Times,serif" font-size="14.00" fill="#000000">FormsModule</text>
</g>
<!-- FormsModule&#45;&gt;DocumentExplorerModule -->
<g id="edge31" class="edge">
<title>FormsModule&#45;&gt;DocumentExplorerModule</title>
<path fill="none" stroke="#000000" d="M226,-187.0908C226,-210.1328 226,-247 226,-247 226,-247 2314.4649,-247 2314.4649,-247"/>
<polygon fill="#000000" stroke="#000000" points="2314.465,-250.5001 2324.4649,-247 2314.4649,-243.5001 2314.465,-250.5001"/>
</g>
<!-- AppCommonModule -->
<g id="node33" class="node">
<title>AppCommonModule</title>
<polygon fill="#8dd3c7" stroke="#000000" points="159.7744,-187 156.7744,-191 135.7744,-191 132.7744,-187 24.2256,-187 24.2256,-151 159.7744,-151 159.7744,-187"/>
<text text-anchor="middle" x="92" y="-164.8" font-family="Times,serif" font-size="14.00" fill="#000000">AppCommonModule</text>
</g>
<!-- AppCommonModule&#45;&gt;DocumentExplorerModule -->
<g id="edge32" class="edge">
<title>AppCommonModule&#45;&gt;DocumentExplorerModule</title>
<path fill="none" stroke="#000000" d="M92,-187.3802C92,-211.2785 92,-250 92,-250 92,-250 2314.5471,-250 2314.5471,-250"/>
<polygon fill="#000000" stroke="#000000" points="2314.5471,-253.5001 2324.5471,-250 2314.5471,-246.5001 2314.5471,-253.5001"/>
</g>
</g>
</svg>
