<?xml version="1.0" encoding="UTF-8" standalone="no"?>
<!DOCTYPE svg PUBLIC "-//W3C//DTD SVG 1.1//EN"
 "http://www.w3.org/Graphics/SVG/1.1/DTD/svg11.dtd">
<!-- Generated by graphviz version 2.40.1 (20161225.0304)
 -->
<!-- Title: dependencies Pages: 1 -->
<svg width="1638pt" height="349pt"
 viewBox="0.00 0.00 1638.00 349.00" xmlns="http://www.w3.org/2000/svg" xmlns:xlink="http://www.w3.org/1999/xlink">
<g id="graph0" class="graph" transform="scale(1 1) rotate(0) translate(4 345)">
<title>dependencies</title>
<polygon fill="#ffffff" stroke="transparent" points="-4,4 -4,-345 1634,-345 1634,4 -4,4"/>
<text text-anchor="start" x="794.0091" y="-42.4" font-family="sans-serif" font-weight="bold" font-size="14.00" fill="#000000">Legend</text>
<polygon fill="#ffffb3" stroke="transparent" points="581,-10 581,-30 601,-30 601,-10 581,-10"/>
<text text-anchor="start" x="604.629" y="-15.4" font-family="sans-serif" font-size="14.00" fill="#000000"> &#160;Declarations</text>
<polygon fill="#8dd3c7" stroke="transparent" points="694,-10 694,-30 714,-30 714,-10 694,-10"/>
<text text-anchor="start" x="717.7251" y="-15.4" font-family="sans-serif" font-size="14.00" fill="#000000"> &#160;Module</text>
<polygon fill="#80b1d3" stroke="transparent" points="780,-10 780,-30 800,-30 800,-10 780,-10"/>
<text text-anchor="start" x="803.7812" y="-15.4" font-family="sans-serif" font-size="14.00" fill="#000000"> &#160;Bootstrap</text>
<polygon fill="#fdb462" stroke="transparent" points="877,-10 877,-30 897,-30 897,-10 877,-10"/>
<text text-anchor="start" x="900.6732" y="-15.4" font-family="sans-serif" font-size="14.00" fill="#000000"> &#160;Providers</text>
<polygon fill="#fb8072" stroke="transparent" points="973,-10 973,-30 993,-30 993,-10 973,-10"/>
<text text-anchor="start" x="996.7258" y="-15.4" font-family="sans-serif" font-size="14.00" fill="#000000"> &#160;Exports</text>
<g id="clust1" class="cluster">
<title>cluster_SPARQLClientModule</title>
<polygon fill="none" stroke="#000000" stroke-dasharray="1,5" points="8,-70 8,-333 1622,-333 1622,-70 8,-70"/>
</g>
<g id="clust2" class="cluster">
<title>cluster_SPARQLClientModule_declarations</title>
<polygon fill="none" stroke="#000000" points="536,-143 536,-195 1614,-195 1614,-143 536,-143"/>
</g>
<g id="clust3" class="cluster">
<title>cluster_SPARQLClientModule_SPARQLClientComponent_providers</title>
<polygon fill="none" stroke="#000000" points="1422,-78 1422,-130 1614,-130 1614,-78 1422,-78"/>
</g>
<g id="clust11" class="cluster">
<title>cluster_SPARQLClientModule_imports</title>
<polygon fill="none" stroke="#000000" points="16,-143 16,-195 528,-195 528,-143 16,-143"/>
</g>
<g id="clust12" class="cluster">
<title>cluster_SPARQLClientModule_exports</title>
<polygon fill="none" stroke="#000000" points="619,-273 619,-325 807,-325 807,-273 619,-273"/>
</g>
<!-- SPARQLClientComponent -->
<g id="node1" class="node">
<title>SPARQLClientComponent</title>
<polygon fill="#ffffb3" stroke="#000000" points="1605.7231,-187 1436.2769,-187 1436.2769,-151 1605.7231,-151 1605.7231,-187"/>
<text text-anchor="middle" x="1521" y="-164.8" font-family="Times,serif" font-size="14.00" fill="#000000">SPARQLClientComponent</text>
</g>
<!-- SPARQLClientModule -->
<g id="node9" class="node">
<title>SPARQLClientModule</title>
<polygon fill="#8dd3c7" stroke="#000000" points="786.9411,-252 783.9411,-256 762.9411,-256 759.9411,-252 639.0589,-252 639.0589,-216 786.9411,-216 786.9411,-252"/>
<text text-anchor="middle" x="713" y="-229.8" font-family="Times,serif" font-size="14.00" fill="#000000">SPARQLClientModule</text>
</g>
<!-- SPARQLClientComponent&#45;&gt;SPARQLClientModule -->
<g id="edge1" class="edge">
<title>SPARQLClientComponent&#45;&gt;SPARQLClientModule</title>
<path fill="none" stroke="#000000" d="M1521,-187.2479C1521,-210.0179 1521,-246 1521,-246 1521,-246 796.8466,-246 796.8466,-246"/>
<polygon fill="#000000" stroke="#000000" points="796.8466,-242.5001 786.8466,-246 796.8466,-249.5001 796.8466,-242.5001"/>
</g>
<!-- QueryBuilderComponent -->
<g id="node2" class="node">
<title>QueryBuilderComponent</title>
<polygon fill="#ffffb3" stroke="#000000" points="1418.3075,-187 1259.6925,-187 1259.6925,-151 1418.3075,-151 1418.3075,-187"/>
<text text-anchor="middle" x="1339" y="-164.8" font-family="Times,serif" font-size="14.00" fill="#000000">QueryBuilderComponent</text>
</g>
<!-- QueryBuilderComponent&#45;&gt;SPARQLClientModule -->
<g id="edge3" class="edge">
<title>QueryBuilderComponent&#45;&gt;SPARQLClientModule</title>
<path fill="none" stroke="#000000" d="M1339,-187.2843C1339,-208.3211 1339,-240 1339,-240 1339,-240 796.9596,-240 796.9596,-240"/>
<polygon fill="#000000" stroke="#000000" points="796.9596,-236.5001 786.9596,-240 796.9595,-243.5001 796.9596,-236.5001"/>
</g>
<!-- ResponseComponent -->
<g id="node3" class="node">
<title>ResponseComponent</title>
<polygon fill="#ffffb3" stroke="#000000" points="1241.4874,-187 1106.5126,-187 1106.5126,-151 1241.4874,-151 1241.4874,-187"/>
<text text-anchor="middle" x="1174" y="-164.8" font-family="Times,serif" font-size="14.00" fill="#000000">ResponseComponent</text>
</g>
<!-- ResponseComponent&#45;&gt;SPARQLClientModule -->
<g id="edge4" class="edge">
<title>ResponseComponent&#45;&gt;SPARQLClientModule</title>
<path fill="none" stroke="#000000" d="M1174,-187.1061C1174,-206.3391 1174,-234 1174,-234 1174,-234 796.8119,-234 796.8119,-234"/>
<polygon fill="#000000" stroke="#000000" points="796.812,-230.5001 786.8119,-234 796.8119,-237.5001 796.812,-230.5001"/>
</g>
<!-- ResultsetTableComponent -->
<g id="node4" class="node">
<title>ResultsetTableComponent</title>
<polygon fill="#ffffb3" stroke="#000000" points="1088.0323,-187 923.9677,-187 923.9677,-151 1088.0323,-151 1088.0323,-187"/>
<text text-anchor="middle" x="1006" y="-164.8" font-family="Times,serif" font-size="14.00" fill="#000000">ResultsetTableComponent</text>
</g>
<!-- ResultsetTableComponent&#45;&gt;SPARQLClientModule -->
<g id="edge5" class="edge">
<title>ResultsetTableComponent&#45;&gt;SPARQLClientModule</title>
<path fill="none" stroke="#000000" d="M1006,-187.0225C1006,-204.3734 1006,-228 1006,-228 1006,-228 796.9363,-228 796.9363,-228"/>
<polygon fill="#000000" stroke="#000000" points="796.9363,-224.5001 786.9363,-228 796.9362,-231.5001 796.9363,-224.5001"/>
</g>
<!-- BNodePipe -->
<g id="node5" class="node">
<title>BNodePipe</title>
<polygon fill="#ffffb3" stroke="#000000" points="905.0469,-187 824.9531,-187 824.9531,-151 905.0469,-151 905.0469,-187"/>
<text text-anchor="middle" x="865" y="-164.8" font-family="Times,serif" font-size="14.00" fill="#000000">BNodePipe</text>
</g>
<!-- BNodePipe&#45;&gt;SPARQLClientModule -->
<g id="edge6" class="edge">
<title>BNodePipe&#45;&gt;SPARQLClientModule</title>
<path fill="none" stroke="#000000" d="M865,-187.2396C865,-202.5706 865,-222 865,-222 865,-222 796.7737,-222 796.7737,-222"/>
<polygon fill="#000000" stroke="#000000" points="796.7738,-218.5001 786.7737,-222 796.7737,-225.5001 796.7738,-218.5001"/>
</g>
<!-- RelativePipe -->
<g id="node6" class="node">
<title>RelativePipe</title>
<polygon fill="#ffffb3" stroke="#000000" points="806.5412,-187 719.4588,-187 719.4588,-151 806.5412,-151 806.5412,-187"/>
<text text-anchor="middle" x="763" y="-164.8" font-family="Times,serif" font-size="14.00" fill="#000000">RelativePipe</text>
</g>
<!-- RelativePipe&#45;&gt;SPARQLClientModule -->
<g id="edge7" class="edge">
<title>RelativePipe&#45;&gt;SPARQLClientModule</title>
<path fill="none" stroke="#000000" d="M752.9751,-187.1061C752.9751,-187.1061 752.9751,-205.991 752.9751,-205.991"/>
<polygon fill="#000000" stroke="#000000" points="749.4752,-205.9909 752.9751,-215.991 756.4752,-205.991 749.4752,-205.9909"/>
</g>
<!-- PrefixPipe -->
<g id="node7" class="node">
<title>PrefixPipe</title>
<polygon fill="#ffffb3" stroke="#000000" points="701.5969,-187 626.4031,-187 626.4031,-151 701.5969,-151 701.5969,-187"/>
<text text-anchor="middle" x="664" y="-164.8" font-family="Times,serif" font-size="14.00" fill="#000000">PrefixPipe</text>
</g>
<!-- PrefixPipe&#45;&gt;SPARQLClientModule -->
<g id="edge8" class="edge">
<title>PrefixPipe&#45;&gt;SPARQLClientModule</title>
<path fill="none" stroke="#000000" d="M670.4141,-187.1061C670.4141,-187.1061 670.4141,-205.991 670.4141,-205.991"/>
<polygon fill="#000000" stroke="#000000" points="666.9142,-205.9909 670.4141,-215.991 673.9142,-205.991 666.9142,-205.9909"/>
</g>
<!-- URIPipe -->
<g id="node8" class="node">
<title>URIPipe</title>
<polygon fill="#ffffb3" stroke="#000000" points="608.4916,-187 543.5084,-187 543.5084,-151 608.4916,-151 608.4916,-187"/>
<text text-anchor="middle" x="576" y="-164.8" font-family="Times,serif" font-size="14.00" fill="#000000">URIPipe</text>
</g>
<!-- URIPipe&#45;&gt;SPARQLClientModule -->
<g id="edge9" class="edge">
<title>URIPipe&#45;&gt;SPARQLClientModule</title>
<path fill="none" stroke="#000000" d="M576,-187.2396C576,-202.5706 576,-222 576,-222 576,-222 628.8865,-222 628.8865,-222"/>
<polygon fill="#000000" stroke="#000000" points="628.8865,-225.5001 638.8865,-222 628.8864,-218.5001 628.8865,-225.5001"/>
</g>
<!-- SPARQLClientComponent  -->
<g id="node15" class="node">
<title>SPARQLClientComponent </title>
<polygon fill="#fb8072" stroke="#000000" points="799.2232,-317 626.7768,-317 626.7768,-281 799.2232,-281 799.2232,-317"/>
<text text-anchor="middle" x="713" y="-294.8" font-family="Times,serif" font-size="14.00" fill="#000000">SPARQLClientComponent </text>
</g>
<!-- SPARQLClientModule&#45;&gt;SPARQLClientComponent  -->
<g id="edge14" class="edge">
<title>SPARQLClientModule&#45;&gt;SPARQLClientComponent </title>
<path fill="none" stroke="#000000" stroke-dasharray="5,2" d="M713,-252.1061C713,-252.1061 713,-270.991 713,-270.991"/>
<polygon fill="#000000" stroke="#000000" points="709.5001,-270.9909 713,-280.991 716.5001,-270.991 709.5001,-270.9909"/>
</g>
<!-- SavedQueryService -->
<g id="node10" class="node">
<title>SavedQueryService</title>
<ellipse fill="#fdb462" stroke="#000000" cx="1518" cy="-104" rx="87.9413" ry="18"/>
<text text-anchor="middle" x="1518" y="-99.8" font-family="Times,serif" font-size="14.00" fill="#000000">SavedQueryService</text>
</g>
<!-- SavedQueryService&#45;&gt;SPARQLClientComponent -->
<g id="edge2" class="edge">
<title>SavedQueryService&#45;&gt;SPARQLClientComponent</title>
<path fill="none" stroke="#000000" d="M1521,-122.1061C1521,-122.1061 1521,-140.991 1521,-140.991"/>
<polygon fill="#000000" stroke="#000000" points="1517.5001,-140.9909 1521,-150.991 1524.5001,-140.991 1517.5001,-140.9909"/>
</g>
<!-- CommonModule -->
<g id="node11" class="node">
<title>CommonModule</title>
<polygon fill="#8dd3c7" stroke="#000000" points="519.6681,-187 516.6681,-191 495.6681,-191 492.6681,-187 408.3319,-187 408.3319,-151 519.6681,-151 519.6681,-187"/>
<text text-anchor="middle" x="464" y="-164.8" font-family="Times,serif" font-size="14.00" fill="#000000">CommonModule</text>
</g>
<!-- CommonModule&#45;&gt;SPARQLClientModule -->
<g id="edge10" class="edge">
<title>CommonModule&#45;&gt;SPARQLClientModule</title>
<path fill="none" stroke="#000000" d="M464,-187.0225C464,-204.3734 464,-228 464,-228 464,-228 628.966,-228 628.966,-228"/>
<polygon fill="#000000" stroke="#000000" points="628.966,-231.5001 638.966,-228 628.9659,-224.5001 628.966,-231.5001"/>
</g>
<!-- RouterModule -->
<g id="node12" class="node">
<title>RouterModule</title>
<polygon fill="#8dd3c7" stroke="#000000" points="389.6528,-187 386.6528,-191 365.6528,-191 362.6528,-187 292.3472,-187 292.3472,-151 389.6528,-151 389.6528,-187"/>
<text text-anchor="middle" x="341" y="-164.8" font-family="Times,serif" font-size="14.00" fill="#000000">RouterModule</text>
</g>
<!-- RouterModule&#45;&gt;SPARQLClientModule -->
<g id="edge11" class="edge">
<title>RouterModule&#45;&gt;SPARQLClientModule</title>
<path fill="none" stroke="#000000" d="M341,-187.1061C341,-206.3391 341,-234 341,-234 341,-234 629.06,-234 629.06,-234"/>
<polygon fill="#000000" stroke="#000000" points="629.06,-237.5001 639.06,-234 629.06,-230.5001 629.06,-237.5001"/>
</g>
<!-- AppCommonModule -->
<g id="node13" class="node">
<title>AppCommonModule</title>
<polygon fill="#8dd3c7" stroke="#000000" points="273.7744,-187 270.7744,-191 249.7744,-191 246.7744,-187 138.2256,-187 138.2256,-151 273.7744,-151 273.7744,-187"/>
<text text-anchor="middle" x="206" y="-164.8" font-family="Times,serif" font-size="14.00" fill="#000000">AppCommonModule</text>
</g>
<!-- AppCommonModule&#45;&gt;SPARQLClientModule -->
<g id="edge12" class="edge">
<title>AppCommonModule&#45;&gt;SPARQLClientModule</title>
<path fill="none" stroke="#000000" d="M206,-187.2843C206,-208.3211 206,-240 206,-240 206,-240 629.2778,-240 629.2778,-240"/>
<polygon fill="#000000" stroke="#000000" points="629.2779,-243.5001 639.2778,-240 629.2778,-236.5001 629.2779,-243.5001"/>
</g>
<!-- FormsModule -->
<g id="node14" class="node">
<title>FormsModule</title>
<polygon fill="#8dd3c7" stroke="#000000" points="119.8288,-187 116.8288,-191 95.8288,-191 92.8288,-187 24.1712,-187 24.1712,-151 119.8288,-151 119.8288,-187"/>
<text text-anchor="middle" x="72" y="-164.8" font-family="Times,serif" font-size="14.00" fill="#000000">FormsModule</text>
</g>
<!-- FormsModule&#45;&gt;SPARQLClientModule -->
<g id="edge13" class="edge">
<title>FormsModule&#45;&gt;SPARQLClientModule</title>
<path fill="none" stroke="#000000" d="M72,-187.2479C72,-210.0179 72,-246 72,-246 72,-246 629.1563,-246 629.1563,-246"/>
<polygon fill="#000000" stroke="#000000" points="629.1564,-249.5001 639.1563,-246 629.1563,-242.5001 629.1564,-249.5001"/>
</g>
</g>
</svg>
