<?xml version="1.0" encoding="UTF-8" standalone="no"?>
<!DOCTYPE svg PUBLIC "-//W3C//DTD SVG 1.1//EN"
 "http://www.w3.org/Graphics/SVG/1.1/DTD/svg11.dtd">
<!-- Generated by graphviz version 2.40.1 (20161225.0304)
 -->
<!-- Title: dependencies Pages: 1 -->
<svg width="940pt" height="284pt"
 viewBox="0.00 0.00 940.00 284.00" xmlns="http://www.w3.org/2000/svg" xmlns:xlink="http://www.w3.org/1999/xlink">
<g id="graph0" class="graph" transform="scale(1 1) rotate(0) translate(4 280)">
<title>dependencies</title>
<polygon fill="#ffffff" stroke="transparent" points="-4,4 -4,-280 936,-280 936,4 -4,4"/>
<text text-anchor="start" x="445.0091" y="-42.4" font-family="sans-serif" font-weight="bold" font-size="14.00" fill="#000000">Legend</text>
<polygon fill="#ffffb3" stroke="transparent" points="232,-10 232,-30 252,-30 252,-10 232,-10"/>
<text text-anchor="start" x="255.629" y="-15.4" font-family="sans-serif" font-size="14.00" fill="#000000"> &#160;Declarations</text>
<polygon fill="#8dd3c7" stroke="transparent" points="345,-10 345,-30 365,-30 365,-10 345,-10"/>
<text text-anchor="start" x="368.7251" y="-15.4" font-family="sans-serif" font-size="14.00" fill="#000000"> &#160;Module</text>
<polygon fill="#80b1d3" stroke="transparent" points="431,-10 431,-30 451,-30 451,-10 431,-10"/>
<text text-anchor="start" x="454.7812" y="-15.4" font-family="sans-serif" font-size="14.00" fill="#000000"> &#160;Bootstrap</text>
<polygon fill="#fdb462" stroke="transparent" points="528,-10 528,-30 548,-30 548,-10 528,-10"/>
<text text-anchor="start" x="551.6732" y="-15.4" font-family="sans-serif" font-size="14.00" fill="#000000"> &#160;Providers</text>
<polygon fill="#fb8072" stroke="transparent" points="624,-10 624,-30 644,-30 644,-10 624,-10"/>
<text text-anchor="start" x="647.7258" y="-15.4" font-family="sans-serif" font-size="14.00" fill="#000000"> &#160;Exports</text>
<g id="clust1" class="cluster">
<title>cluster_SPARQLClientModule</title>
<polygon fill="none" stroke="#000000" stroke-dasharray="1,5" points="8,-70 8,-268 924,-268 924,-70 8,-70"/>
</g>
<g id="clust2" class="cluster">
<title>cluster_SPARQLClientModule_declarations</title>
<polygon fill="none" stroke="#000000" points="138,-78 138,-130 916,-130 916,-78 138,-78"/>
</g>
<g id="clust8" class="cluster">
<title>cluster_SPARQLClientModule_imports</title>
<polygon fill="none" stroke="#000000" points="16,-78 16,-130 130,-130 130,-78 16,-78"/>
</g>
<g id="clust9" class="cluster">
<title>cluster_SPARQLClientModule_exports</title>
<polygon fill="none" stroke="#000000" points="490,-208 490,-260 678,-260 678,-208 490,-208"/>
</g>
<!-- PrefixURIPipe -->
<g id="node1" class="node">
<title>PrefixURIPipe</title>
<polygon fill="#ffffb3" stroke="#000000" points="907.7008,-122 808.2992,-122 808.2992,-86 907.7008,-86 907.7008,-122"/>
<text text-anchor="middle" x="858" y="-99.8" font-family="Times,serif" font-size="14.00" fill="#000000">PrefixURIPipe</text>
</g>
<!-- SPARQLClientModule -->
<g id="node6" class="node">
<title>SPARQLClientModule</title>
<polygon fill="#8dd3c7" stroke="#000000" points="657.9411,-187 654.9411,-191 633.9411,-191 630.9411,-187 510.0589,-187 510.0589,-151 657.9411,-151 657.9411,-187"/>
<text text-anchor="middle" x="584" y="-164.8" font-family="Times,serif" font-size="14.00" fill="#000000">SPARQLClientModule</text>
</g>
<!-- PrefixURIPipe&#45;&gt;SPARQLClientModule -->
<g id="edge1" class="edge">
<title>PrefixURIPipe&#45;&gt;SPARQLClientModule</title>
<path fill="none" stroke="#000000" d="M874.5334,-122.2921C874.5334,-144.2057 874.5334,-178 874.5334,-178 874.5334,-178 668.0656,-178 668.0656,-178"/>
<polygon fill="#000000" stroke="#000000" points="668.0656,-174.5001 658.0656,-178 668.0656,-181.5001 668.0656,-174.5001"/>
</g>
<!-- PrefixURIPipe&#45;&gt;SPARQLClientModule -->
<g id="edge2" class="edge">
<title>PrefixURIPipe&#45;&gt;SPARQLClientModule</title>
<path fill="none" stroke="#000000" d="M841.4666,-122.1061C841.4666,-141.3391 841.4666,-169 841.4666,-169 841.4666,-169 667.7796,-169 667.7796,-169"/>
<polygon fill="#000000" stroke="#000000" points="667.7796,-165.5001 657.7796,-169 667.7795,-172.5001 667.7796,-165.5001"/>
</g>
<!-- RelativizeURIPipe -->
<g id="node2" class="node">
<title>RelativizeURIPipe</title>
<polygon fill="#ffffb3" stroke="#000000" points="790.7493,-122 669.2507,-122 669.2507,-86 790.7493,-86 790.7493,-122"/>
<text text-anchor="middle" x="730" y="-99.8" font-family="Times,serif" font-size="14.00" fill="#000000">RelativizeURIPipe</text>
</g>
<!-- RelativizeURIPipe&#45;&gt;SPARQLClientModule -->
<g id="edge3" class="edge">
<title>RelativizeURIPipe&#45;&gt;SPARQLClientModule</title>
<path fill="none" stroke="#000000" d="M730.618,-122.027C730.618,-138.3976 730.618,-160 730.618,-160 730.618,-160 667.7385,-160 667.7385,-160"/>
<polygon fill="#000000" stroke="#000000" points="667.7386,-156.5001 657.7385,-160 667.7385,-163.5001 667.7386,-156.5001"/>
</g>
<!-- ResponseComponent -->
<g id="node3" class="node">
<title>ResponseComponent</title>
<polygon fill="#ffffb3" stroke="#000000" points="651.4874,-122 516.5126,-122 516.5126,-86 651.4874,-86 651.4874,-122"/>
<text text-anchor="middle" x="584" y="-99.8" font-family="Times,serif" font-size="14.00" fill="#000000">ResponseComponent</text>
</g>
<!-- ResponseComponent&#45;&gt;SPARQLClientModule -->
<g id="edge4" class="edge">
<title>ResponseComponent&#45;&gt;SPARQLClientModule</title>
<path fill="none" stroke="#000000" d="M584,-122.1061C584,-122.1061 584,-140.991 584,-140.991"/>
<polygon fill="#000000" stroke="#000000" points="580.5001,-140.9909 584,-150.991 587.5001,-140.991 580.5001,-140.9909"/>
</g>
<!-- ResultsetTableComponent -->
<g id="node4" class="node">
<title>ResultsetTableComponent</title>
<polygon fill="#ffffb3" stroke="#000000" points="498.0323,-122 333.9677,-122 333.9677,-86 498.0323,-86 498.0323,-122"/>
<text text-anchor="middle" x="416" y="-99.8" font-family="Times,serif" font-size="14.00" fill="#000000">ResultsetTableComponent</text>
</g>
<!-- ResultsetTableComponent&#45;&gt;SPARQLClientModule -->
<g id="edge5" class="edge">
<title>ResultsetTableComponent&#45;&gt;SPARQLClientModule</title>
<path fill="none" stroke="#000000" d="M415.6864,-122.027C415.6864,-138.3976 415.6864,-160 415.6864,-160 415.6864,-160 500.1752,-160 500.1752,-160"/>
<polygon fill="#000000" stroke="#000000" points="500.1752,-163.5001 510.1752,-160 500.1751,-156.5001 500.1752,-163.5001"/>
</g>
<!-- SPARQLClientComponent -->
<g id="node5" class="node">
<title>SPARQLClientComponent</title>
<polygon fill="#ffffb3" stroke="#000000" points="315.7231,-122 146.2769,-122 146.2769,-86 315.7231,-86 315.7231,-122"/>
<text text-anchor="middle" x="231" y="-99.8" font-family="Times,serif" font-size="14.00" fill="#000000">SPARQLClientComponent</text>
</g>
<!-- SPARQLClientComponent&#45;&gt;SPARQLClientModule -->
<g id="edge6" class="edge">
<title>SPARQLClientComponent&#45;&gt;SPARQLClientModule</title>
<path fill="none" stroke="#000000" d="M231,-122.1061C231,-141.3391 231,-169 231,-169 231,-169 499.9996,-169 499.9996,-169"/>
<polygon fill="#000000" stroke="#000000" points="499.9997,-172.5001 509.9996,-169 499.9996,-165.5001 499.9997,-172.5001"/>
</g>
<!-- SPARQLClientComponent  -->
<g id="node8" class="node">
<title>SPARQLClientComponent </title>
<polygon fill="#fb8072" stroke="#000000" points="670.2232,-252 497.7768,-252 497.7768,-216 670.2232,-216 670.2232,-252"/>
<text text-anchor="middle" x="584" y="-229.8" font-family="Times,serif" font-size="14.00" fill="#000000">SPARQLClientComponent </text>
</g>
<!-- SPARQLClientModule&#45;&gt;SPARQLClientComponent  -->
<g id="edge8" class="edge">
<title>SPARQLClientModule&#45;&gt;SPARQLClientComponent </title>
<path fill="none" stroke="#000000" stroke-dasharray="5,2" d="M584,-187.1061C584,-187.1061 584,-205.991 584,-205.991"/>
<polygon fill="#000000" stroke="#000000" points="580.5001,-205.9909 584,-215.991 587.5001,-205.991 580.5001,-205.9909"/>
</g>
<!-- SharedModule -->
<g id="node7" class="node">
<title>SharedModule</title>
<polygon fill="#8dd3c7" stroke="#000000" points="122.4231,-122 119.4231,-126 98.4231,-126 95.4231,-122 23.5769,-122 23.5769,-86 122.4231,-86 122.4231,-122"/>
<text text-anchor="middle" x="73" y="-99.8" font-family="Times,serif" font-size="14.00" fill="#000000">SharedModule</text>
</g>
<!-- SharedModule&#45;&gt;SPARQLClientModule -->
<g id="edge7" class="edge">
<title>SharedModule&#45;&gt;SPARQLClientModule</title>
<path fill="none" stroke="#000000" d="M73,-122.2921C73,-144.2057 73,-178 73,-178 73,-178 500.2419,-178 500.2419,-178"/>
<polygon fill="#000000" stroke="#000000" points="500.242,-181.5001 510.2419,-178 500.2419,-174.5001 500.242,-181.5001"/>
</g>
</g>
</svg>
