<?xml version="1.0" encoding="UTF-8" standalone="no"?>
<!DOCTYPE svg PUBLIC "-//W3C//DTD SVG 1.1//EN"
 "http://www.w3.org/Graphics/SVG/1.1/DTD/svg11.dtd">
<!-- Generated by graphviz version 2.40.1 (20161225.0304)
 -->
<!-- Title: dependencies Pages: 1 -->
<svg width="1668pt" height="284pt"
 viewBox="0.00 0.00 1668.00 284.00" xmlns="http://www.w3.org/2000/svg" xmlns:xlink="http://www.w3.org/1999/xlink">
<g id="graph0" class="graph" transform="scale(1 1) rotate(0) translate(4 280)">
<title>dependencies</title>
<polygon fill="#ffffff" stroke="transparent" points="-4,4 -4,-280 1664,-280 1664,4 -4,4"/>
<text text-anchor="start" x="809.0091" y="-42.4" font-family="sans-serif" font-weight="bold" font-size="14.00" fill="#000000">Legend</text>
<polygon fill="#ffffb3" stroke="transparent" points="596,-10 596,-30 616,-30 616,-10 596,-10"/>
<text text-anchor="start" x="619.629" y="-15.4" font-family="sans-serif" font-size="14.00" fill="#000000"> &#160;Declarations</text>
<polygon fill="#8dd3c7" stroke="transparent" points="709,-10 709,-30 729,-30 729,-10 709,-10"/>
<text text-anchor="start" x="732.7251" y="-15.4" font-family="sans-serif" font-size="14.00" fill="#000000"> &#160;Module</text>
<polygon fill="#80b1d3" stroke="transparent" points="795,-10 795,-30 815,-30 815,-10 795,-10"/>
<text text-anchor="start" x="818.7812" y="-15.4" font-family="sans-serif" font-size="14.00" fill="#000000"> &#160;Bootstrap</text>
<polygon fill="#fdb462" stroke="transparent" points="892,-10 892,-30 912,-30 912,-10 892,-10"/>
<text text-anchor="start" x="915.6732" y="-15.4" font-family="sans-serif" font-size="14.00" fill="#000000"> &#160;Providers</text>
<polygon fill="#fb8072" stroke="transparent" points="988,-10 988,-30 1008,-30 1008,-10 988,-10"/>
<text text-anchor="start" x="1011.7258" y="-15.4" font-family="sans-serif" font-size="14.00" fill="#000000"> &#160;Exports</text>
<g id="clust1" class="cluster">
<title>cluster_LayoutModule</title>
<polygon fill="none" stroke="#000000" stroke-dasharray="1,5" points="8,-70 8,-268 1652,-268 1652,-70 8,-70"/>
</g>
<g id="clust2" class="cluster">
<title>cluster_LayoutModule_declarations</title>
<polygon fill="none" stroke="#000000" points="850,-78 850,-130 1644,-130 1644,-78 850,-78"/>
</g>
<g id="clust8" class="cluster">
<title>cluster_LayoutModule_imports</title>
<polygon fill="none" stroke="#000000" points="332,-78 332,-130 842,-130 842,-78 332,-78"/>
</g>
<g id="clust9" class="cluster">
<title>cluster_LayoutModule_exports</title>
<polygon fill="none" stroke="#000000" points="352,-208 352,-260 1161,-260 1161,-208 352,-208"/>
</g>
<g id="clust11" class="cluster">
<title>cluster_LayoutModule_providers</title>
<polygon fill="none" stroke="#000000" points="16,-78 16,-130 324,-130 324,-78 16,-78"/>
</g>
<!-- HeaderItemComponent -->
<g id="node1" class="node">
<title>HeaderItemComponent</title>
<polygon fill="#ffffb3" stroke="#000000" points="1635.9003,-122 1488.0997,-122 1488.0997,-86 1635.9003,-86 1635.9003,-122"/>
<text text-anchor="middle" x="1562" y="-99.8" font-family="Times,serif" font-size="14.00" fill="#000000">HeaderItemComponent</text>
</g>
<!-- LayoutModule -->
<g id="node6" class="node">
<title>LayoutModule</title>
<polygon fill="#8dd3c7" stroke="#000000" points="827.7078,-187 824.7078,-191 803.7078,-191 800.7078,-187 728.2922,-187 728.2922,-151 827.7078,-151 827.7078,-187"/>
<text text-anchor="middle" x="778" y="-164.8" font-family="Times,serif" font-size="14.00" fill="#000000">LayoutModule</text>
</g>
<!-- HeaderItemComponent&#45;&gt;LayoutModule -->
<g id="edge1" class="edge">
<title>HeaderItemComponent&#45;&gt;LayoutModule</title>
<path fill="none" stroke="#000000" d="M1562,-122.0267C1562,-142.7672 1562,-174 1562,-174 1562,-174 837.6375,-174 837.6375,-174"/>
<polygon fill="#000000" stroke="#000000" points="837.6375,-170.5001 827.6375,-174 837.6374,-177.5001 837.6375,-170.5001"/>
</g>
<!-- HeaderComponent -->
<g id="node2" class="node">
<title>HeaderComponent</title>
<polygon fill="#ffffb3" stroke="#000000" points="1469.7437,-122 1348.2563,-122 1348.2563,-86 1469.7437,-86 1469.7437,-122"/>
<text text-anchor="middle" x="1409" y="-99.8" font-family="Times,serif" font-size="14.00" fill="#000000">HeaderComponent</text>
</g>
<!-- HeaderComponent&#45;&gt;LayoutModule -->
<g id="edge2" class="edge">
<title>HeaderComponent&#45;&gt;LayoutModule</title>
<path fill="none" stroke="#000000" d="M1409,-122.1061C1409,-141.3391 1409,-169 1409,-169 1409,-169 837.7769,-169 837.7769,-169"/>
<polygon fill="#000000" stroke="#000000" points="837.777,-165.5001 827.7769,-169 837.7769,-172.5001 837.777,-165.5001"/>
</g>
<!-- SidebarComponent -->
<g id="node3" class="node">
<title>SidebarComponent</title>
<polygon fill="#ffffb3" stroke="#000000" points="1330.0954,-122 1205.9046,-122 1205.9046,-86 1330.0954,-86 1330.0954,-122"/>
<text text-anchor="middle" x="1268" y="-99.8" font-family="Times,serif" font-size="14.00" fill="#000000">SidebarComponent</text>
</g>
<!-- SidebarComponent&#45;&gt;LayoutModule -->
<g id="edge3" class="edge">
<title>SidebarComponent&#45;&gt;LayoutModule</title>
<path fill="none" stroke="#000000" d="M1268,-122.302C1268,-140.2699 1268,-165 1268,-165 1268,-165 837.6804,-165 837.6804,-165"/>
<polygon fill="#000000" stroke="#000000" points="837.6804,-161.5001 827.6804,-165 837.6803,-168.5001 837.6804,-161.5001"/>
</g>
<!-- SidebarItemsComponent -->
<g id="node4" class="node">
<title>SidebarItemsComponent</title>
<polygon fill="#ffffb3" stroke="#000000" points="1187.6965,-122 1032.3035,-122 1032.3035,-86 1187.6965,-86 1187.6965,-122"/>
<text text-anchor="middle" x="1110" y="-99.8" font-family="Times,serif" font-size="14.00" fill="#000000">SidebarItemsComponent</text>
</g>
<!-- SidebarItemsComponent&#45;&gt;LayoutModule -->
<g id="edge4" class="edge">
<title>SidebarItemsComponent&#45;&gt;LayoutModule</title>
<path fill="none" stroke="#000000" d="M1092.9259,-122.027C1092.9259,-138.3976 1092.9259,-160 1092.9259,-160 1092.9259,-160 837.9009,-160 837.9009,-160"/>
<polygon fill="#000000" stroke="#000000" points="837.901,-156.5001 827.9009,-160 837.9009,-163.5001 837.901,-156.5001"/>
</g>
<!-- BreadcrumbsComponent -->
<g id="node5" class="node">
<title>BreadcrumbsComponent</title>
<polygon fill="#ffffb3" stroke="#000000" points="1013.9692,-122 858.0308,-122 858.0308,-86 1013.9692,-86 1013.9692,-122"/>
<text text-anchor="middle" x="936" y="-99.8" font-family="Times,serif" font-size="14.00" fill="#000000">BreadcrumbsComponent</text>
</g>
<!-- BreadcrumbsComponent&#45;&gt;LayoutModule -->
<g id="edge5" class="edge">
<title>BreadcrumbsComponent&#45;&gt;LayoutModule</title>
<path fill="none" stroke="#000000" d="M901.1261,-122.1871C901.1261,-137.1824 901.1261,-156 901.1261,-156 901.1261,-156 837.7252,-156 837.7252,-156"/>
<polygon fill="#000000" stroke="#000000" points="837.7252,-152.5001 827.7252,-156 837.7252,-159.5001 837.7252,-152.5001"/>
</g>
<!-- HeaderItemComponent  -->
<g id="node11" class="node">
<title>HeaderItemComponent </title>
<polygon fill="#fb8072" stroke="#000000" points="1153.3998,-252 1002.6002,-252 1002.6002,-216 1153.3998,-216 1153.3998,-252"/>
<text text-anchor="middle" x="1078" y="-229.8" font-family="Times,serif" font-size="14.00" fill="#000000">HeaderItemComponent </text>
</g>
<!-- LayoutModule&#45;&gt;HeaderItemComponent  -->
<g id="edge10" class="edge">
<title>LayoutModule&#45;&gt;HeaderItemComponent </title>
<path fill="none" stroke="#000000" stroke-dasharray="5,2" d="M827.6811,-178C895.3734,-178 1008.2674,-178 1008.2674,-178 1008.2674,-178 1008.2674,-205.973 1008.2674,-205.973"/>
<polygon fill="#000000" stroke="#000000" points="1004.7674,-205.973 1008.2674,-215.973 1011.7674,-205.973 1004.7674,-205.973"/>
</g>
<!-- HeaderComponent  -->
<g id="node12" class="node">
<title>HeaderComponent </title>
<polygon fill="#fb8072" stroke="#000000" points="984.7436,-252 859.2564,-252 859.2564,-216 984.7436,-216 984.7436,-252"/>
<text text-anchor="middle" x="922" y="-229.8" font-family="Times,serif" font-size="14.00" fill="#000000">HeaderComponent </text>
</g>
<!-- LayoutModule&#45;&gt;HeaderComponent  -->
<g id="edge11" class="edge">
<title>LayoutModule&#45;&gt;HeaderComponent </title>
<path fill="none" stroke="#000000" stroke-dasharray="5,2" d="M827.915,-183C876.4417,-183 942.8739,-183 942.8739,-183 942.8739,-183 942.8739,-205.8757 942.8739,-205.8757"/>
<polygon fill="#000000" stroke="#000000" points="939.374,-205.8757 942.8739,-215.8757 946.374,-205.8757 939.374,-205.8757"/>
</g>
<!-- SidebarComponent  -->
<g id="node13" class="node">
<title>SidebarComponent </title>
<polygon fill="#fb8072" stroke="#000000" points="841.596,-252 714.404,-252 714.404,-216 841.596,-216 841.596,-252"/>
<text text-anchor="middle" x="778" y="-229.8" font-family="Times,serif" font-size="14.00" fill="#000000">SidebarComponent </text>
</g>
<!-- LayoutModule&#45;&gt;SidebarComponent  -->
<g id="edge12" class="edge">
<title>LayoutModule&#45;&gt;SidebarComponent </title>
<path fill="none" stroke="#000000" stroke-dasharray="5,2" d="M778,-187.1061C778,-187.1061 778,-205.991 778,-205.991"/>
<polygon fill="#000000" stroke="#000000" points="774.5001,-205.9909 778,-215.991 781.5001,-205.991 774.5001,-205.9909"/>
</g>
<!-- SidebarItemsComponent  -->
<g id="node14" class="node">
<title>SidebarItemsComponent </title>
<polygon fill="#fb8072" stroke="#000000" points="696.1967,-252 537.8033,-252 537.8033,-216 696.1967,-216 696.1967,-252"/>
<text text-anchor="middle" x="617" y="-229.8" font-family="Times,serif" font-size="14.00" fill="#000000">SidebarItemsComponent </text>
</g>
<!-- LayoutModule&#45;&gt;SidebarItemsComponent  -->
<g id="edge13" class="edge">
<title>LayoutModule&#45;&gt;SidebarItemsComponent </title>
<path fill="none" stroke="#000000" stroke-dasharray="5,2" d="M728.1746,-183C693.2721,-183 652.8421,-183 652.8421,-183 652.8421,-183 652.8421,-205.8757 652.8421,-205.8757"/>
<polygon fill="#000000" stroke="#000000" points="649.3421,-205.8757 652.8421,-215.8757 656.3421,-205.8757 649.3421,-205.8757"/>
</g>
<!-- BreadcrumbsComponent  -->
<g id="node15" class="node">
<title>BreadcrumbsComponent </title>
<polygon fill="#fb8072" stroke="#000000" points="519.9699,-252 360.0301,-252 360.0301,-216 519.9699,-216 519.9699,-252"/>
<text text-anchor="middle" x="440" y="-229.8" font-family="Times,serif" font-size="14.00" fill="#000000">BreadcrumbsComponent </text>
</g>
<!-- LayoutModule&#45;&gt;BreadcrumbsComponent  -->
<g id="edge14" class="edge">
<title>LayoutModule&#45;&gt;BreadcrumbsComponent </title>
<path fill="none" stroke="#000000" stroke-dasharray="5,2" d="M728.286,-178C650.0374,-178 506.9543,-178 506.9543,-178 506.9543,-178 506.9543,-205.973 506.9543,-205.973"/>
<polygon fill="#000000" stroke="#000000" points="503.4543,-205.973 506.9543,-215.973 510.4543,-205.973 503.4543,-205.973"/>
</g>
<!-- CommonModule -->
<g id="node7" class="node">
<title>CommonModule</title>
<polygon fill="#8dd3c7" stroke="#000000" points="833.6681,-122 830.6681,-126 809.6681,-126 806.6681,-122 722.3319,-122 722.3319,-86 833.6681,-86 833.6681,-122"/>
<text text-anchor="middle" x="778" y="-99.8" font-family="Times,serif" font-size="14.00" fill="#000000">CommonModule</text>
</g>
<!-- CommonModule&#45;&gt;LayoutModule -->
<g id="edge6" class="edge">
<title>CommonModule&#45;&gt;LayoutModule</title>
<path fill="none" stroke="#000000" d="M778,-122.1061C778,-122.1061 778,-140.991 778,-140.991"/>
<polygon fill="#000000" stroke="#000000" points="774.5001,-140.9909 778,-150.991 781.5001,-140.991 774.5001,-140.9909"/>
</g>
<!-- FormsModule -->
<g id="node8" class="node">
<title>FormsModule</title>
<polygon fill="#8dd3c7" stroke="#000000" points="704.8288,-122 701.8288,-126 680.8288,-126 677.8288,-122 609.1712,-122 609.1712,-86 704.8288,-86 704.8288,-122"/>
<text text-anchor="middle" x="657" y="-99.8" font-family="Times,serif" font-size="14.00" fill="#000000">FormsModule</text>
</g>
<!-- FormsModule&#45;&gt;LayoutModule -->
<g id="edge7" class="edge">
<title>FormsModule&#45;&gt;LayoutModule</title>
<path fill="none" stroke="#000000" d="M700.5061,-122.1871C700.5061,-137.1824 700.5061,-156 700.5061,-156 700.5061,-156 718.0458,-156 718.0458,-156"/>
<polygon fill="#000000" stroke="#000000" points="718.0458,-159.5001 728.0458,-156 718.0457,-152.5001 718.0458,-159.5001"/>
</g>
<!-- RouterModule -->
<g id="node9" class="node">
<title>RouterModule</title>
<polygon fill="#8dd3c7" stroke="#000000" points="591.6528,-122 588.6528,-126 567.6528,-126 564.6528,-122 494.3472,-122 494.3472,-86 591.6528,-86 591.6528,-122"/>
<text text-anchor="middle" x="543" y="-99.8" font-family="Times,serif" font-size="14.00" fill="#000000">RouterModule</text>
</g>
<!-- RouterModule&#45;&gt;LayoutModule -->
<g id="edge8" class="edge">
<title>RouterModule&#45;&gt;LayoutModule</title>
<path fill="none" stroke="#000000" d="M564.7389,-122.027C564.7389,-138.3976 564.7389,-160 564.7389,-160 564.7389,-160 718.2689,-160 718.2689,-160"/>
<polygon fill="#000000" stroke="#000000" points="718.2689,-163.5001 728.2689,-160 718.2689,-156.5001 718.2689,-163.5001"/>
</g>
<!-- AppCommonModule -->
<g id="node10" class="node">
<title>AppCommonModule</title>
<polygon fill="#8dd3c7" stroke="#000000" points="475.7744,-122 472.7744,-126 451.7744,-126 448.7744,-122 340.2256,-122 340.2256,-86 475.7744,-86 475.7744,-122"/>
<text text-anchor="middle" x="408" y="-99.8" font-family="Times,serif" font-size="14.00" fill="#000000">AppCommonModule</text>
</g>
<!-- AppCommonModule&#45;&gt;LayoutModule -->
<g id="edge9" class="edge">
<title>AppCommonModule&#45;&gt;LayoutModule</title>
<path fill="none" stroke="#000000" d="M418.0762,-122.302C418.0762,-140.2699 418.0762,-165 418.0762,-165 418.0762,-165 718.332,-165 718.332,-165"/>
<polygon fill="#000000" stroke="#000000" points="718.3321,-168.5001 728.332,-165 718.332,-161.5001 718.3321,-168.5001"/>
</g>
<!-- HeaderService -->
<g id="node16" class="node">
<title>HeaderService</title>
<ellipse fill="#fdb462" stroke="#000000" cx="248" cy="-104" rx="67.7336" ry="18"/>
<text text-anchor="middle" x="248" y="-99.8" font-family="Times,serif" font-size="14.00" fill="#000000">HeaderService</text>
</g>
<!-- HeaderService&#45;&gt;LayoutModule -->
<g id="edge15" class="edge">
<title>HeaderService&#45;&gt;LayoutModule</title>
<path fill="none" stroke="#000000" d="M248,-122.1061C248,-141.3391 248,-169 248,-169 248,-169 718.1389,-169 718.1389,-169"/>
<polygon fill="#000000" stroke="#000000" points="718.1389,-172.5001 728.1389,-169 718.1389,-165.5001 718.1389,-172.5001"/>
</g>
<!-- SidebarService -->
<g id="node17" class="node">
<title>SidebarService</title>
<ellipse fill="#fdb462" stroke="#000000" cx="93" cy="-104" rx="69.4781" ry="18"/>
<text text-anchor="middle" x="93" y="-99.8" font-family="Times,serif" font-size="14.00" fill="#000000">SidebarService</text>
</g>
<!-- SidebarService&#45;&gt;LayoutModule -->
<g id="edge16" class="edge">
<title>SidebarService&#45;&gt;LayoutModule</title>
<path fill="none" stroke="#000000" d="M93,-122.0267C93,-142.7672 93,-174 93,-174 93,-174 718.1847,-174 718.1847,-174"/>
<polygon fill="#000000" stroke="#000000" points="718.1847,-177.5001 728.1847,-174 718.1847,-170.5001 718.1847,-177.5001"/>
</g>
</g>
</svg>
