<?xml version="1.0" encoding="UTF-8" standalone="no"?>
<!DOCTYPE svg PUBLIC "-//W3C//DTD SVG 1.1//EN"
 "http://www.w3.org/Graphics/SVG/1.1/DTD/svg11.dtd">
<!-- Generated by graphviz version 2.40.1 (20161225.0304)
 -->
<!-- Title: dependencies Pages: 1 -->
<svg width="1272pt" height="284pt"
 viewBox="0.00 0.00 1272.00 284.00" xmlns="http://www.w3.org/2000/svg" xmlns:xlink="http://www.w3.org/1999/xlink">
<g id="graph0" class="graph" transform="scale(1 1) rotate(0) translate(4 280)">
<title>dependencies</title>
<polygon fill="#ffffff" stroke="transparent" points="-4,4 -4,-280 1268,-280 1268,4 -4,4"/>
<text text-anchor="start" x="611.0091" y="-42.4" font-family="sans-serif" font-weight="bold" font-size="14.00" fill="#000000">Legend</text>
<polygon fill="#ffffb3" stroke="transparent" points="398,-10 398,-30 418,-30 418,-10 398,-10"/>
<text text-anchor="start" x="421.629" y="-15.4" font-family="sans-serif" font-size="14.00" fill="#000000"> &#160;Declarations</text>
<polygon fill="#8dd3c7" stroke="transparent" points="511,-10 511,-30 531,-30 531,-10 511,-10"/>
<text text-anchor="start" x="534.7251" y="-15.4" font-family="sans-serif" font-size="14.00" fill="#000000"> &#160;Module</text>
<polygon fill="#80b1d3" stroke="transparent" points="597,-10 597,-30 617,-30 617,-10 597,-10"/>
<text text-anchor="start" x="620.7812" y="-15.4" font-family="sans-serif" font-size="14.00" fill="#000000"> &#160;Bootstrap</text>
<polygon fill="#fdb462" stroke="transparent" points="694,-10 694,-30 714,-30 714,-10 694,-10"/>
<text text-anchor="start" x="717.6732" y="-15.4" font-family="sans-serif" font-size="14.00" fill="#000000"> &#160;Providers</text>
<polygon fill="#fb8072" stroke="transparent" points="790,-10 790,-30 810,-30 810,-10 790,-10"/>
<text text-anchor="start" x="813.7258" y="-15.4" font-family="sans-serif" font-size="14.00" fill="#000000"> &#160;Exports</text>
<g id="clust1" class="cluster">
<title>cluster_LayoutModule</title>
<polygon fill="none" stroke="#000000" stroke-dasharray="1,5" points="8,-70 8,-268 1256,-268 1256,-70 8,-70"/>
</g>
<g id="clust2" class="cluster">
<title>cluster_LayoutModule_declarations</title>
<polygon fill="none" stroke="#000000" points="454,-78 454,-130 1248,-130 1248,-78 454,-78"/>
</g>
<g id="clust8" class="cluster">
<title>cluster_LayoutModule_imports</title>
<polygon fill="none" stroke="#000000" points="332,-78 332,-130 446,-130 446,-78 332,-78"/>
</g>
<g id="clust9" class="cluster">
<title>cluster_LayoutModule_exports</title>
<polygon fill="none" stroke="#000000" points="214,-208 214,-260 1023,-260 1023,-208 214,-208"/>
</g>
<g id="clust11" class="cluster">
<title>cluster_LayoutModule_providers</title>
<polygon fill="none" stroke="#000000" points="16,-78 16,-130 324,-130 324,-78 16,-78"/>
</g>
<!-- BreadcrumbsComponent -->
<g id="node1" class="node">
<title>BreadcrumbsComponent</title>
<polygon fill="#ffffb3" stroke="#000000" points="1239.9692,-122 1084.0308,-122 1084.0308,-86 1239.9692,-86 1239.9692,-122"/>
<text text-anchor="middle" x="1162" y="-99.8" font-family="Times,serif" font-size="14.00" fill="#000000">BreadcrumbsComponent</text>
</g>
<!-- LayoutModule -->
<g id="node6" class="node">
<title>LayoutModule</title>
<polygon fill="#8dd3c7" stroke="#000000" points="668.7078,-187 665.7078,-191 644.7078,-191 641.7078,-187 569.2922,-187 569.2922,-151 668.7078,-151 668.7078,-187"/>
<text text-anchor="middle" x="619" y="-164.8" font-family="Times,serif" font-size="14.00" fill="#000000">LayoutModule</text>
</g>
<!-- BreadcrumbsComponent&#45;&gt;LayoutModule -->
<g id="edge1" class="edge">
<title>BreadcrumbsComponent&#45;&gt;LayoutModule</title>
<path fill="none" stroke="#000000" d="M1162,-122.1061C1162,-141.3391 1162,-169 1162,-169 1162,-169 678.6271,-169 678.6271,-169"/>
<polygon fill="#000000" stroke="#000000" points="678.6271,-165.5001 668.6271,-169 678.6271,-172.5001 678.6271,-165.5001"/>
</g>
<!-- HeaderComponent -->
<g id="node2" class="node">
<title>HeaderComponent</title>
<polygon fill="#ffffb3" stroke="#000000" points="1065.7437,-122 944.2563,-122 944.2563,-86 1065.7437,-86 1065.7437,-122"/>
<text text-anchor="middle" x="1005" y="-99.8" font-family="Times,serif" font-size="14.00" fill="#000000">HeaderComponent</text>
</g>
<!-- HeaderComponent&#45;&gt;LayoutModule -->
<g id="edge2" class="edge">
<title>HeaderComponent&#45;&gt;LayoutModule</title>
<path fill="none" stroke="#000000" d="M979.4315,-122.0225C979.4315,-139.3734 979.4315,-163 979.4315,-163 979.4315,-163 678.738,-163 678.738,-163"/>
<polygon fill="#000000" stroke="#000000" points="678.7381,-159.5001 668.738,-163 678.738,-166.5001 678.7381,-159.5001"/>
</g>
<!-- HeaderItemComponent -->
<g id="node3" class="node">
<title>HeaderItemComponent</title>
<polygon fill="#ffffb3" stroke="#000000" points="925.9003,-122 778.0997,-122 778.0997,-86 925.9003,-86 925.9003,-122"/>
<text text-anchor="middle" x="852" y="-99.8" font-family="Times,serif" font-size="14.00" fill="#000000">HeaderItemComponent</text>
</g>
<!-- HeaderItemComponent&#45;&gt;LayoutModule -->
<g id="edge3" class="edge">
<title>HeaderItemComponent&#45;&gt;LayoutModule</title>
<path fill="none" stroke="#000000" d="M807.9609,-122.2396C807.9609,-137.5706 807.9609,-157 807.9609,-157 807.9609,-157 678.6473,-157 678.6473,-157"/>
<polygon fill="#000000" stroke="#000000" points="678.6473,-153.5001 668.6473,-157 678.6472,-160.5001 678.6473,-153.5001"/>
</g>
<!-- SidebarComponent -->
<g id="node4" class="node">
<title>SidebarComponent</title>
<polygon fill="#ffffb3" stroke="#000000" points="760.0954,-122 635.9046,-122 635.9046,-86 760.0954,-86 760.0954,-122"/>
<text text-anchor="middle" x="698" y="-99.8" font-family="Times,serif" font-size="14.00" fill="#000000">SidebarComponent</text>
</g>
<!-- SidebarComponent&#45;&gt;LayoutModule -->
<g id="edge4" class="edge">
<title>SidebarComponent&#45;&gt;LayoutModule</title>
<path fill="none" stroke="#000000" d="M652.2781,-122.1061C652.2781,-122.1061 652.2781,-140.991 652.2781,-140.991"/>
<polygon fill="#000000" stroke="#000000" points="648.7781,-140.9909 652.2781,-150.991 655.7781,-140.991 648.7781,-140.9909"/>
</g>
<!-- SidebarItemsComponent -->
<g id="node5" class="node">
<title>SidebarItemsComponent</title>
<polygon fill="#ffffb3" stroke="#000000" points="617.6965,-122 462.3035,-122 462.3035,-86 617.6965,-86 617.6965,-122"/>
<text text-anchor="middle" x="540" y="-99.8" font-family="Times,serif" font-size="14.00" fill="#000000">SidebarItemsComponent</text>
</g>
<!-- SidebarItemsComponent&#45;&gt;LayoutModule -->
<g id="edge5" class="edge">
<title>SidebarItemsComponent&#45;&gt;LayoutModule</title>
<path fill="none" stroke="#000000" d="M593.4972,-122.1061C593.4972,-122.1061 593.4972,-140.991 593.4972,-140.991"/>
<polygon fill="#000000" stroke="#000000" points="589.9973,-140.9909 593.4972,-150.991 596.9973,-140.991 589.9973,-140.9909"/>
</g>
<!-- BreadcrumbsComponent  -->
<g id="node8" class="node">
<title>BreadcrumbsComponent </title>
<polygon fill="#fb8072" stroke="#000000" points="1014.9699,-252 855.0301,-252 855.0301,-216 1014.9699,-216 1014.9699,-252"/>
<text text-anchor="middle" x="935" y="-229.8" font-family="Times,serif" font-size="14.00" fill="#000000">BreadcrumbsComponent </text>
</g>
<!-- LayoutModule&#45;&gt;BreadcrumbsComponent  -->
<g id="edge7" class="edge">
<title>LayoutModule&#45;&gt;BreadcrumbsComponent </title>
<path fill="none" stroke="#000000" stroke-dasharray="5,2" d="M668.7941,-175C747.1688,-175 890.4827,-175 890.4827,-175 890.4827,-175 890.4827,-205.9775 890.4827,-205.9775"/>
<polygon fill="#000000" stroke="#000000" points="886.9827,-205.9774 890.4827,-215.9775 893.9827,-205.9775 886.9827,-205.9774"/>
</g>
<!-- HeaderComponent  -->
<g id="node9" class="node">
<title>HeaderComponent </title>
<polygon fill="#fb8072" stroke="#000000" points="837.7436,-252 712.2564,-252 712.2564,-216 837.7436,-216 837.7436,-252"/>
<text text-anchor="middle" x="775" y="-229.8" font-family="Times,serif" font-size="14.00" fill="#000000">HeaderComponent </text>
</g>
<!-- LayoutModule&#45;&gt;HeaderComponent  -->
<g id="edge8" class="edge">
<title>LayoutModule&#45;&gt;HeaderComponent </title>
<path fill="none" stroke="#000000" stroke-dasharray="5,2" d="M668.7089,-181C700.6553,-181 736.213,-181 736.213,-181 736.213,-181 736.213,-205.7604 736.213,-205.7604"/>
<polygon fill="#000000" stroke="#000000" points="732.7131,-205.7604 736.213,-215.7604 739.7131,-205.7604 732.7131,-205.7604"/>
</g>
<!-- HeaderItemComponent  -->
<g id="node10" class="node">
<title>HeaderItemComponent </title>
<polygon fill="#fb8072" stroke="#000000" points="694.3998,-252 543.6002,-252 543.6002,-216 694.3998,-216 694.3998,-252"/>
<text text-anchor="middle" x="619" y="-229.8" font-family="Times,serif" font-size="14.00" fill="#000000">HeaderItemComponent </text>
</g>
<!-- LayoutModule&#45;&gt;HeaderItemComponent  -->
<g id="edge9" class="edge">
<title>LayoutModule&#45;&gt;HeaderItemComponent </title>
<path fill="none" stroke="#000000" stroke-dasharray="5,2" d="M619,-187.1061C619,-187.1061 619,-205.991 619,-205.991"/>
<polygon fill="#000000" stroke="#000000" points="615.5001,-205.9909 619,-215.991 622.5001,-205.991 615.5001,-205.9909"/>
</g>
<!-- SidebarComponent  -->
<g id="node11" class="node">
<title>SidebarComponent </title>
<polygon fill="#fb8072" stroke="#000000" points="525.596,-252 398.404,-252 398.404,-216 525.596,-216 525.596,-252"/>
<text text-anchor="middle" x="462" y="-229.8" font-family="Times,serif" font-size="14.00" fill="#000000">SidebarComponent </text>
</g>
<!-- LayoutModule&#45;&gt;SidebarComponent  -->
<g id="edge10" class="edge">
<title>LayoutModule&#45;&gt;SidebarComponent </title>
<path fill="none" stroke="#000000" stroke-dasharray="5,2" d="M569.2772,-181C534.4466,-181 494.0998,-181 494.0998,-181 494.0998,-181 494.0998,-205.7604 494.0998,-205.7604"/>
<polygon fill="#000000" stroke="#000000" points="490.5998,-205.7604 494.0998,-215.7604 497.5998,-205.7604 490.5998,-205.7604"/>
</g>
<!-- SidebarItemsComponent  -->
<g id="node12" class="node">
<title>SidebarItemsComponent </title>
<polygon fill="#fb8072" stroke="#000000" points="380.1967,-252 221.8033,-252 221.8033,-216 380.1967,-216 380.1967,-252"/>
<text text-anchor="middle" x="301" y="-229.8" font-family="Times,serif" font-size="14.00" fill="#000000">SidebarItemsComponent </text>
</g>
<!-- LayoutModule&#45;&gt;SidebarItemsComponent  -->
<g id="edge11" class="edge">
<title>LayoutModule&#45;&gt;SidebarItemsComponent </title>
<path fill="none" stroke="#000000" stroke-dasharray="5,2" d="M569.3818,-175C494.1967,-175 360.0686,-175 360.0686,-175 360.0686,-175 360.0686,-205.9775 360.0686,-205.9775"/>
<polygon fill="#000000" stroke="#000000" points="356.5686,-205.9774 360.0686,-215.9775 363.5686,-205.9775 356.5686,-205.9774"/>
</g>
<!-- SharedModule -->
<g id="node7" class="node">
<title>SharedModule</title>
<polygon fill="#8dd3c7" stroke="#000000" points="438.4231,-122 435.4231,-126 414.4231,-126 411.4231,-122 339.5769,-122 339.5769,-86 438.4231,-86 438.4231,-122"/>
<text text-anchor="middle" x="389" y="-99.8" font-family="Times,serif" font-size="14.00" fill="#000000">SharedModule</text>
</g>
<!-- SharedModule&#45;&gt;LayoutModule -->
<g id="edge6" class="edge">
<title>SharedModule&#45;&gt;LayoutModule</title>
<path fill="none" stroke="#000000" d="M418.2067,-122.2396C418.2067,-137.5706 418.2067,-157 418.2067,-157 418.2067,-157 559.3657,-157 559.3657,-157"/>
<polygon fill="#000000" stroke="#000000" points="559.3657,-160.5001 569.3657,-157 559.3657,-153.5001 559.3657,-160.5001"/>
</g>
<!-- HeaderService -->
<g id="node13" class="node">
<title>HeaderService</title>
<ellipse fill="#fdb462" stroke="#000000" cx="248" cy="-104" rx="67.7336" ry="18"/>
<text text-anchor="middle" x="248" y="-99.8" font-family="Times,serif" font-size="14.00" fill="#000000">HeaderService</text>
</g>
<!-- HeaderService&#45;&gt;LayoutModule -->
<g id="edge12" class="edge">
<title>HeaderService&#45;&gt;LayoutModule</title>
<path fill="none" stroke="#000000" d="M268.7592,-121.3828C268.7592,-138.7864 268.7592,-163 268.7592,-163 268.7592,-163 559.191,-163 559.191,-163"/>
<polygon fill="#000000" stroke="#000000" points="559.191,-166.5001 569.191,-163 559.191,-159.5001 559.191,-166.5001"/>
</g>
<!-- SidebarService -->
<g id="node14" class="node">
<title>SidebarService</title>
<ellipse fill="#fdb462" stroke="#000000" cx="93" cy="-104" rx="69.4781" ry="18"/>
<text text-anchor="middle" x="93" y="-99.8" font-family="Times,serif" font-size="14.00" fill="#000000">SidebarService</text>
</g>
<!-- SidebarService&#45;&gt;LayoutModule -->
<g id="edge13" class="edge">
<title>SidebarService&#45;&gt;LayoutModule</title>
<path fill="none" stroke="#000000" d="M93,-122.1061C93,-141.3391 93,-169 93,-169 93,-169 559.041,-169 559.041,-169"/>
<polygon fill="#000000" stroke="#000000" points="559.041,-172.5001 569.041,-169 559.0409,-165.5001 559.041,-172.5001"/>
</g>
</g>
</svg>
