<?xml version="1.0" encoding="UTF-8" standalone="no"?>
<!DOCTYPE svg PUBLIC "-//W3C//DTD SVG 1.1//EN"
 "http://www.w3.org/Graphics/SVG/1.1/DTD/svg11.dtd">
<!-- Generated by graphviz version 2.40.1 (20161225.0304)
 -->
<!-- Title: dependencies Pages: 1 -->
<svg width="1487pt" height="284pt"
 viewBox="0.00 0.00 1487.00 284.00" xmlns="http://www.w3.org/2000/svg" xmlns:xlink="http://www.w3.org/1999/xlink">
<g id="graph0" class="graph" transform="scale(1 1) rotate(0) translate(4 280)">
<title>dependencies</title>
<polygon fill="#ffffff" stroke="transparent" points="-4,4 -4,-280 1483,-280 1483,4 -4,4"/>
<text text-anchor="start" x="718.5091" y="-42.4" font-family="sans-serif" font-weight="bold" font-size="14.00" fill="#000000">Legend</text>
<polygon fill="#ffffb3" stroke="transparent" points="505.5,-10 505.5,-30 525.5,-30 525.5,-10 505.5,-10"/>
<text text-anchor="start" x="529.129" y="-15.4" font-family="sans-serif" font-size="14.00" fill="#000000"> &#160;Declarations</text>
<polygon fill="#8dd3c7" stroke="transparent" points="618.5,-10 618.5,-30 638.5,-30 638.5,-10 618.5,-10"/>
<text text-anchor="start" x="642.2251" y="-15.4" font-family="sans-serif" font-size="14.00" fill="#000000"> &#160;Module</text>
<polygon fill="#80b1d3" stroke="transparent" points="704.5,-10 704.5,-30 724.5,-30 724.5,-10 704.5,-10"/>
<text text-anchor="start" x="728.2812" y="-15.4" font-family="sans-serif" font-size="14.00" fill="#000000"> &#160;Bootstrap</text>
<polygon fill="#fdb462" stroke="transparent" points="801.5,-10 801.5,-30 821.5,-30 821.5,-10 801.5,-10"/>
<text text-anchor="start" x="825.1732" y="-15.4" font-family="sans-serif" font-size="14.00" fill="#000000"> &#160;Providers</text>
<polygon fill="#fb8072" stroke="transparent" points="897.5,-10 897.5,-30 917.5,-30 917.5,-10 897.5,-10"/>
<text text-anchor="start" x="921.2258" y="-15.4" font-family="sans-serif" font-size="14.00" fill="#000000"> &#160;Exports</text>
<g id="clust1" class="cluster">
<title>cluster_AppCommonModule</title>
<polygon fill="none" stroke="#000000" stroke-dasharray="1,5" points="8,-70 8,-268 1471,-268 1471,-70 8,-70"/>
</g>
<g id="clust2" class="cluster">
<title>cluster_AppCommonModule_declarations</title>
<polygon fill="none" stroke="#000000" points="248,-78 248,-130 1290,-130 1290,-78 248,-78"/>
</g>
<g id="clust9" class="cluster">
<title>cluster_AppCommonModule_imports</title>
<polygon fill="none" stroke="#000000" points="112,-78 112,-130 240,-130 240,-78 112,-78"/>
</g>
<g id="clust10" class="cluster">
<title>cluster_AppCommonModule_exports</title>
<polygon fill="none" stroke="#000000" points="16,-208 16,-260 1463,-260 1463,-208 16,-208"/>
</g>
<!-- MessageComponent -->
<g id="node1" class="node">
<title>MessageComponent</title>
<polygon fill="#ffffb3" stroke="#000000" points="1282.3104,-122 1151.6896,-122 1151.6896,-86 1282.3104,-86 1282.3104,-122"/>
<text text-anchor="middle" x="1217" y="-99.8" font-family="Times,serif" font-size="14.00" fill="#000000">MessageComponent</text>
</g>
<!-- AppCommonModule -->
<g id="node7" class="node">
<title>AppCommonModule</title>
<polygon fill="#8dd3c7" stroke="#000000" points="749.7744,-187 746.7744,-191 725.7744,-191 722.7744,-187 614.2256,-187 614.2256,-151 749.7744,-151 749.7744,-187"/>
<text text-anchor="middle" x="682" y="-164.8" font-family="Times,serif" font-size="14.00" fill="#000000">AppCommonModule</text>
</g>
<!-- MessageComponent&#45;&gt;AppCommonModule -->
<g id="edge1" class="edge">
<title>MessageComponent&#45;&gt;AppCommonModule</title>
<path fill="none" stroke="#000000" d="M1217,-122.302C1217,-140.2699 1217,-165 1217,-165 1217,-165 760.0296,-165 760.0296,-165"/>
<polygon fill="#000000" stroke="#000000" points="760.0297,-161.5001 750.0296,-165 760.0296,-168.5001 760.0297,-161.5001"/>
</g>
<!-- MessagesAreaComponent -->
<g id="node2" class="node">
<title>MessagesAreaComponent</title>
<polygon fill="#ffffb3" stroke="#000000" points="1133.451,-122 970.549,-122 970.549,-86 1133.451,-86 1133.451,-122"/>
<text text-anchor="middle" x="1052" y="-99.8" font-family="Times,serif" font-size="14.00" fill="#000000">MessagesAreaComponent</text>
</g>
<!-- MessagesAreaComponent&#45;&gt;AppCommonModule -->
<g id="edge2" class="edge">
<title>MessagesAreaComponent&#45;&gt;AppCommonModule</title>
<path fill="none" stroke="#000000" d="M1044.6451,-122.027C1044.6451,-138.3976 1044.6451,-160 1044.6451,-160 1044.6451,-160 759.7854,-160 759.7854,-160"/>
<polygon fill="#000000" stroke="#000000" points="759.7854,-156.5001 749.7854,-160 759.7853,-163.5001 759.7854,-156.5001"/>
</g>
<!-- CodeMirrorComponent.Class -->
<g id="node3" class="node">
<title>CodeMirrorComponent.Class</title>
<polygon fill="#ffffb3" stroke="#000000" points="953.0316,-122 770.9684,-122 770.9684,-86 953.0316,-86 953.0316,-122"/>
<text text-anchor="middle" x="862" y="-99.8" font-family="Times,serif" font-size="14.00" fill="#000000">CodeMirrorComponent.Class</text>
</g>
<!-- CodeMirrorComponent.Class&#45;&gt;AppCommonModule -->
<g id="edge3" class="edge">
<title>CodeMirrorComponent.Class&#45;&gt;AppCommonModule</title>
<path fill="none" stroke="#000000" d="M819.0293,-122.1871C819.0293,-137.1824 819.0293,-156 819.0293,-156 819.0293,-156 760.1132,-156 760.1132,-156"/>
<polygon fill="#000000" stroke="#000000" points="760.1133,-152.5001 750.1132,-156 760.1132,-159.5001 760.1133,-152.5001"/>
</g>
<!-- ErrorLabelComponent -->
<g id="node4" class="node">
<title>ErrorLabelComponent</title>
<polygon fill="#ffffb3" stroke="#000000" points="753.2394,-122 610.7606,-122 610.7606,-86 753.2394,-86 753.2394,-122"/>
<text text-anchor="middle" x="682" y="-99.8" font-family="Times,serif" font-size="14.00" fill="#000000">ErrorLabelComponent</text>
</g>
<!-- ErrorLabelComponent&#45;&gt;AppCommonModule -->
<g id="edge4" class="edge">
<title>ErrorLabelComponent&#45;&gt;AppCommonModule</title>
<path fill="none" stroke="#000000" d="M682,-122.1061C682,-122.1061 682,-140.991 682,-140.991"/>
<polygon fill="#000000" stroke="#000000" points="678.5001,-140.9909 682,-150.991 685.5001,-140.991 678.5001,-140.9909"/>
</g>
<!-- PaginatorComponent -->
<g id="node5" class="node">
<title>PaginatorComponent</title>
<polygon fill="#ffffb3" stroke="#000000" points="592.486,-122 457.514,-122 457.514,-86 592.486,-86 592.486,-122"/>
<text text-anchor="middle" x="525" y="-99.8" font-family="Times,serif" font-size="14.00" fill="#000000">PaginatorComponent</text>
</g>
<!-- PaginatorComponent&#45;&gt;AppCommonModule -->
<g id="edge5" class="edge">
<title>PaginatorComponent&#45;&gt;AppCommonModule</title>
<path fill="none" stroke="#000000" d="M547.4977,-122.1871C547.4977,-137.1824 547.4977,-156 547.4977,-156 547.4977,-156 603.9607,-156 603.9607,-156"/>
<polygon fill="#000000" stroke="#000000" points="603.9608,-159.5001 613.9607,-156 603.9607,-152.5001 603.9608,-159.5001"/>
</g>
<!-- VersionsPresenterComponent -->
<g id="node6" class="node">
<title>VersionsPresenterComponent</title>
<polygon fill="#ffffb3" stroke="#000000" points="439.6769,-122 256.3231,-122 256.3231,-86 439.6769,-86 439.6769,-122"/>
<text text-anchor="middle" x="348" y="-99.8" font-family="Times,serif" font-size="14.00" fill="#000000">VersionsPresenterComponent</text>
</g>
<!-- VersionsPresenterComponent&#45;&gt;AppCommonModule -->
<g id="edge6" class="edge">
<title>VersionsPresenterComponent&#45;&gt;AppCommonModule</title>
<path fill="none" stroke="#000000" d="M423.625,-122.027C423.625,-138.3976 423.625,-160 423.625,-160 423.625,-160 604.115,-160 604.115,-160"/>
<polygon fill="#000000" stroke="#000000" points="604.115,-163.5001 614.115,-160 604.115,-156.5001 604.115,-163.5001"/>
</g>
<!-- MessageComponent  -->
<g id="node9" class="node">
<title>MessageComponent </title>
<polygon fill="#fb8072" stroke="#000000" points="1454.8101,-252 1321.1899,-252 1321.1899,-216 1454.8101,-216 1454.8101,-252"/>
<text text-anchor="middle" x="1388" y="-229.8" font-family="Times,serif" font-size="14.00" fill="#000000">MessageComponent </text>
</g>
<!-- AppCommonModule&#45;&gt;MessageComponent  -->
<g id="edge8" class="edge">
<title>AppCommonModule&#45;&gt;MessageComponent </title>
<path fill="none" stroke="#000000" stroke-dasharray="5,2" d="M750.0147,-169C926.9577,-169 1388,-169 1388,-169 1388,-169 1388,-205.8939 1388,-205.8939"/>
<polygon fill="#000000" stroke="#000000" points="1384.5001,-205.8938 1388,-215.8939 1391.5001,-205.8939 1384.5001,-205.8938"/>
</g>
<!-- MessagesAreaComponent  -->
<g id="node10" class="node">
<title>MessagesAreaComponent </title>
<polygon fill="#fb8072" stroke="#000000" points="1303.4516,-252 1136.5484,-252 1136.5484,-216 1303.4516,-216 1303.4516,-252"/>
<text text-anchor="middle" x="1220" y="-229.8" font-family="Times,serif" font-size="14.00" fill="#000000">MessagesAreaComponent </text>
</g>
<!-- AppCommonModule&#45;&gt;MessagesAreaComponent  -->
<g id="edge9" class="edge">
<title>AppCommonModule&#45;&gt;MessagesAreaComponent </title>
<path fill="none" stroke="#000000" stroke-dasharray="5,2" d="M750.2154,-174C878.8146,-174 1144.3097,-174 1144.3097,-174 1144.3097,-174 1144.3097,-205.998 1144.3097,-205.998"/>
<polygon fill="#000000" stroke="#000000" points="1140.8098,-205.998 1144.3097,-215.998 1147.8098,-205.9981 1140.8098,-205.998"/>
</g>
<!-- CodeMirrorComponent.Class  -->
<g id="node11" class="node">
<title>CodeMirrorComponent.Class </title>
<polygon fill="#fb8072" stroke="#000000" points="1118.5322,-252 933.4678,-252 933.4678,-216 1118.5322,-216 1118.5322,-252"/>
<text text-anchor="middle" x="1026" y="-229.8" font-family="Times,serif" font-size="14.00" fill="#000000">CodeMirrorComponent.Class </text>
</g>
<!-- AppCommonModule&#45;&gt;CodeMirrorComponent.Class  -->
<g id="edge10" class="edge">
<title>AppCommonModule&#45;&gt;CodeMirrorComponent.Class </title>
<path fill="none" stroke="#000000" stroke-dasharray="5,2" d="M749.9259,-178C827.296,-178 943.125,-178 943.125,-178 943.125,-178 943.125,-205.973 943.125,-205.973"/>
<polygon fill="#000000" stroke="#000000" points="939.6251,-205.973 943.125,-215.973 946.6251,-205.973 939.6251,-205.973"/>
</g>
<!-- ErrorLabelComponent  -->
<g id="node12" class="node">
<title>ErrorLabelComponent </title>
<polygon fill="#fb8072" stroke="#000000" points="915.2394,-252 768.7606,-252 768.7606,-216 915.2394,-216 915.2394,-252"/>
<text text-anchor="middle" x="842" y="-229.8" font-family="Times,serif" font-size="14.00" fill="#000000">ErrorLabelComponent </text>
</g>
<!-- AppCommonModule&#45;&gt;ErrorLabelComponent  -->
<g id="edge11" class="edge">
<title>AppCommonModule&#45;&gt;ErrorLabelComponent </title>
<path fill="none" stroke="#000000" stroke-dasharray="5,2" d="M749.864,-183C802.6842,-183 867.0745,-183 867.0745,-183 867.0745,-183 867.0745,-205.8757 867.0745,-205.8757"/>
<polygon fill="#000000" stroke="#000000" points="863.5746,-205.8757 867.0745,-215.8757 870.5746,-205.8757 863.5746,-205.8757"/>
</g>
<!-- PaginatorComponent  -->
<g id="node13" class="node">
<title>PaginatorComponent </title>
<polygon fill="#fb8072" stroke="#000000" points="751.4869,-252 612.5131,-252 612.5131,-216 751.4869,-216 751.4869,-252"/>
<text text-anchor="middle" x="682" y="-229.8" font-family="Times,serif" font-size="14.00" fill="#000000">PaginatorComponent </text>
</g>
<!-- AppCommonModule&#45;&gt;PaginatorComponent  -->
<g id="edge12" class="edge">
<title>AppCommonModule&#45;&gt;PaginatorComponent </title>
<path fill="none" stroke="#000000" stroke-dasharray="5,2" d="M682,-187.1061C682,-187.1061 682,-205.991 682,-205.991"/>
<polygon fill="#000000" stroke="#000000" points="678.5001,-205.9909 682,-215.991 685.5001,-205.991 678.5001,-205.9909"/>
</g>
<!-- VersionsPresenterComponent  -->
<g id="node14" class="node">
<title>VersionsPresenterComponent </title>
<polygon fill="#fb8072" stroke="#000000" points="594.1771,-252 407.8229,-252 407.8229,-216 594.1771,-216 594.1771,-252"/>
<text text-anchor="middle" x="501" y="-229.8" font-family="Times,serif" font-size="14.00" fill="#000000">VersionsPresenterComponent </text>
</g>
<!-- AppCommonModule&#45;&gt;VersionsPresenterComponent  -->
<g id="edge13" class="edge">
<title>AppCommonModule&#45;&gt;VersionsPresenterComponent </title>
<path fill="none" stroke="#000000" stroke-dasharray="5,2" d="M614.1396,-183C563.309,-183 502.5023,-183 502.5023,-183 502.5023,-183 502.5023,-205.8757 502.5023,-205.8757"/>
<polygon fill="#000000" stroke="#000000" points="499.0024,-205.8757 502.5023,-215.8757 506.0024,-205.8757 499.0024,-205.8757"/>
</g>
<!-- PipesModule  -->
<g id="node15" class="node">
<title>PipesModule </title>
<polygon fill="#fb8072" stroke="#000000" points="389.883,-252 296.117,-252 296.117,-216 389.883,-216 389.883,-252"/>
<text text-anchor="middle" x="343" y="-229.8" font-family="Times,serif" font-size="14.00" fill="#000000">PipesModule </text>
</g>
<!-- AppCommonModule&#45;&gt;PipesModule  -->
<g id="edge14" class="edge">
<title>AppCommonModule&#45;&gt;PipesModule </title>
<path fill="none" stroke="#000000" stroke-dasharray="5,2" d="M614.2131,-178C515.2842,-178 343,-178 343,-178 343,-178 343,-205.973 343,-205.973"/>
<polygon fill="#000000" stroke="#000000" points="339.5001,-205.973 343,-215.973 346.5001,-205.973 339.5001,-205.973"/>
</g>
<!-- DirectivesModule  -->
<g id="node16" class="node">
<title>DirectivesModule </title>
<polygon fill="#fb8072" stroke="#000000" points="278.0779,-252 157.9221,-252 157.9221,-216 278.0779,-216 278.0779,-252"/>
<text text-anchor="middle" x="218" y="-229.8" font-family="Times,serif" font-size="14.00" fill="#000000">DirectivesModule </text>
</g>
<!-- AppCommonModule&#45;&gt;DirectivesModule  -->
<g id="edge15" class="edge">
<title>AppCommonModule&#45;&gt;DirectivesModule </title>
<path fill="none" stroke="#000000" stroke-dasharray="5,2" d="M613.9933,-174C496.3583,-174 267.3501,-174 267.3501,-174 267.3501,-174 267.3501,-205.998 267.3501,-205.998"/>
<polygon fill="#000000" stroke="#000000" points="263.8502,-205.998 267.3501,-215.998 270.8502,-205.9981 263.8502,-205.998"/>
</g>
<!-- SemanticModule  -->
<g id="node17" class="node">
<title>SemanticModule </title>
<polygon fill="#fb8072" stroke="#000000" points="139.6481,-252 24.3519,-252 24.3519,-216 139.6481,-216 139.6481,-252"/>
<text text-anchor="middle" x="82" y="-229.8" font-family="Times,serif" font-size="14.00" fill="#000000">SemanticModule </text>
</g>
<!-- AppCommonModule&#45;&gt;SemanticModule  -->
<g id="edge16" class="edge">
<title>AppCommonModule&#45;&gt;SemanticModule </title>
<path fill="none" stroke="#000000" stroke-dasharray="5,2" d="M614.0214,-169C466.4423,-169 129.8701,-169 129.8701,-169 129.8701,-169 129.8701,-205.8939 129.8701,-205.8939"/>
<polygon fill="#000000" stroke="#000000" points="126.3702,-205.8938 129.8701,-215.8939 133.3702,-205.8939 126.3702,-205.8938"/>
</g>
<!-- CommonModule -->
<g id="node8" class="node">
<title>CommonModule</title>
<polygon fill="#8dd3c7" stroke="#000000" points="231.6681,-122 228.6681,-126 207.6681,-126 204.6681,-122 120.3319,-122 120.3319,-86 231.6681,-86 231.6681,-122"/>
<text text-anchor="middle" x="176" y="-99.8" font-family="Times,serif" font-size="14.00" fill="#000000">CommonModule</text>
</g>
<!-- CommonModule&#45;&gt;AppCommonModule -->
<g id="edge7" class="edge">
<title>CommonModule&#45;&gt;AppCommonModule</title>
<path fill="none" stroke="#000000" d="M194.7726,-122.302C194.7726,-140.2699 194.7726,-165 194.7726,-165 194.7726,-165 603.9968,-165 603.9968,-165"/>
<polygon fill="#000000" stroke="#000000" points="603.9968,-168.5001 613.9968,-165 603.9968,-161.5001 603.9968,-168.5001"/>
</g>
</g>
</svg>
