<svg version="1" xmlns="http://www.w3.org/2000/svg" width="682.667" height="682.667" viewBox="0 0 512.000000 512.000000">
	<path
		d="M168.7 15.1c-19.6 4.4-30.9 27-22.5 45 3.1 6.8 8.7 13.1 14.4 16.5 3.4 2 4.3 3 4 4.7-.3 1.2-.5 2.2-.6 2.2-.1 0-.3 1.6-.4 3.5-.1 1.9-.6 4.8-.9 6.5-.4 1.6-.9 4.6-1.2 6.5-.3 1.9-.7 4.6-1 6-.7 4.3-1.7 10.4-2 13-.2 1.4-.4 2.5-.5 2.5-.2 0-.3 1.1-1.4 9.5-.4 3-.9 6.2-1.1 7-.2.8-.7 3.1-1 5-.7 3.8-1 4.3-2.8 4.6-3.4.5-11.7 5.3-15.2 8.9-3.5 3.4-7.3 9.6-8.1 13-.2.5-.6 2.1-.9 3.5-.4 1.4-.6 3.9-.6 5.7 0 2.7-.6 3.4-4 5.2-2.1 1.2-4.3 2-4.7 1.9-.4 0-2.3.6-4.2 1.4-3.6 1.5-7.1 3-8 3.3-.3.1-1.8.7-3.3 1.3-1.6.7-3 1.2-3.2 1.2-.2 0-1.6.5-3.2 1.2-1.5.6-3 1.2-3.3 1.3-.3.1-1.8.8-3.5 1.5-1.6.7-3.2 1.4-3.5 1.4-.3.1-1.8.7-3.5 1.3-5.4 2.2-9 3.6-10 3.9-.5.2-3.2 1.1-5.9 2.1-4 1.5-5 1.6-5.4.4-.6-1.6-8.1-9.1-9.2-9.1-.5 0-1.5-.6-2.2-1.3-2.7-2.6-20.8-5.7-20.8-3.5 0 .4-.7.5-1.5.2s-2-.2-2.7.2c-.7.5-2.1 1-3.1 1.1-2.2.4-12.7 7.2-12.7 8.2 0 .4-.8 1.6-1.9 2.7-4.4 4.8-7 12.7-6.6 20.7.4 7.9.9 9.8 3.7 14.9 2 3.7 10.8 13.8 10.8 12.4 0-.3 1.6.6 3.6 1.9 2 1.4 4.5 2.5 5.5 2.5s2 .4 2.3.8c.5.9 12.6.7 17.1-.3 4.9-1 12.4-5.6 16-9.7 5.8-6.7 8-12.6 8.4-22.9.1-1 2.7-2.6 7.4-4.4 3.9-1.6 11.4-4.6 16.6-6.7 5.2-2.1 10-3.8 10.8-3.8.7 0 1.3-.5 1.3-1.2 0-.6.3-.9.6-.5.3.3 3.1-.5 6.2-1.9s6.3-2.6 7.2-2.8c.8-.2 3.5-1.2 6-2.3 8.1-3.7 8.2-3.7 12 1 1.9 2.4 4.4 4.8 5.5 5.4 9.2 4.8 11.3 5.5 16.9 5.8 7.4.4 13.6-.9 19.4-4.2 3.5-2 4.5-2.2 5.6-1.1.7.7 2.8 2.4 4.6 3.8 1.8 1.4 3.8 2.9 4.4 3.5.6.5 3.2 2.6 5.6 4.5 2.5 1.9 5 3.8 5.5 4.2.6.5 3.7 3 7 5.6 3.3 2.6 6.9 5.5 8 6.4 1.1.9 3 2.5 4.3 3.5 2.2 1.7 2.2 2 .8 6-3.3 9.4 0 24.2 7.1 31.8 3.8 4.1 11.9 9.6 12.8 8.7.7-.7-.2 10.6-1 11.8-.2.3-.7 3.3-1 6.5-.4 3.3-1 6.4-1.2 6.9-.3.4-.7 2.7-.9 5-.2 2.2-.6 5.1-.8 6.3-.2 1.1-.8 4.3-1.2 7-.3 2.6-1.1 5.6-1.6 6.6-.6 1.1-.5 1.7.2 1.7.6 0 .8.4.5 1-.6 1-.9 2.1-2 8.6-.4 2.2-.8 4.6-1 5.4-.2.8-.4 1.8-.4 2.2-.1.5-.7.8-1.3.8-3 0-12.6 5.4-16 9-6 6.2-8.9 13.9-9.3 25-.4 11 8 23.7 19 28.9 2.5 1.2 5.3 2.1 6.3 2.1s2.2.3 2.5.7c.6.5 8.1.8 9 .3.1-.1 1.7-.3 3.6-.6 1.8-.2 5.5-1.5 8.2-2.9 5.5-2.7 8.8-2.3 11.1 1.5.7 1.1 1.7 2 2.3 2 .6 0 2.1 1 3.5 2.3 1.4 1.2 7 5.8 12.5 10.2 5.5 4.3 10.5 8.3 11 8.7 4.7 3.7 8.8 7.8 7.9 7.8-.6 0-1.1.6-1.1 1.2-.1.7-.5 3.3-.9 5.8-2.5 15.5 5.1 29.7 19.5 36.7 7.8 3.8 20 3.8 28.2.1 15.6-7.1 23.1-25.5 16.9-42-2-5.5-10.3-15.8-12.7-15.8-.7 0-1.6-.6-2-1.3-.7-1.1-5.9-3.1-11.3-4.4-2.1-.5-10.1-.4-12.5.1-2.4.5-6.9 2.2-11.2 4.3-3.1 1.4-3.3 1.4-7-1.4-2.1-1.5-4.3-3.3-4.9-3.8-1-1-2.6-2.2-14.8-11.8-3.3-2.6-6.8-5.3-7.6-6-.8-.7-3.5-2.8-6-4.7-5.9-4.6-5.9-4.6-4.4-8.8.7-2 1.1-6.6.9-10.2-.3-7.2-.6-8.5-2.3-11.7-.7-1.2-1.2-2.6-1.2-3.2 0-2.9-10.1-12.4-16.1-15.2-2.6-1.3-4.5-2.8-4.3-3.3.3-1 1-5.1 1.9-11.6.2-1.4.6-4 .9-5.8.3-1.7.8-4.4 1-6 1.2-7.5 1.9-11.9 2.2-13.7.2-1 .6-3.7.9-6 .3-2.2.8-4.7 1-5.5.2-.8.7-3.8 1-6.5 1-9.1 1.8-10.9 5.3-11.6 5.7-1.2 13.8-6 17.8-10.6 2.1-2.4 3.9-4.8 4-5.1 0-.4.8-2.4 1.7-4.5 1.5-3.4 2.4-7.9 2.6-12.7.1-.8 1.3-2 2.9-2.7 5.4-2.3 15.7-6.5 16.7-6.7 1.4-.4 6.6-2.4 9-3.6 1.1-.5 7.4-3 14-5.6 6.6-2.5 13.4-5.2 15-5.9 5.4-2.3 6.5-2.5 7.7-.9 5.5 6.7 13.1 12 19 13.2 5.3 1.1 17.7.5 19.3-.8.8-.7 1.5-1 1.5-.6 0 .3 1.9-.5 4.2-1.8l4.2-2.3 6.2 4.7c3.4 2.6 9.5 7.4 13.5 10.6 4.1 3.2 8 6.3 8.7 6.9.7.5 2.1 1.7 3 2.5 1 .8 3.3 2.6 5.2 4 5.7 3.9 7.1 5.9 5.9 8.2-1.8 3.4-2.6 12.3-1.5 17.3 1.8 7.8 6.8 16.2 11.6 19.5 1.3.8 2.8 2 3.4 2.5 2.8 2.6 17.8 7 19.1 5.7.3-.3 2-.6 3.7-.7 7.4-.3 14.8-4.1 20.6-10.4 11.8-12.8 11.5-31.6-.7-44.9-3.7-4-11.1-8.8-15.3-9.9-8.4-2.1-20.4-.6-27.2 3.6l-3.2 2-6.9-5.6c-3.9-3-7.1-5.9-7.3-6.4-.2-.5-1-.9-1.7-.9-.8 0-2-.8-2.7-1.8-.7-.9-3-2.8-5-4.2-2.1-1.4-3.8-2.8-3.8-3.3 0-.4-.7-.7-1.6-.7-.8 0-1.2-.5-.9-1 .3-.6 0-1-.9-1-.8 0-1.6-.3-1.8-.8-.1-.4-2.6-2.4-5.5-4.6l-5.1-3.9 1.3-3.7c1.3-3.8 1.4-15.3.2-20.2-.8-3-4.4-9.5-6.4-11.6-.7-.7-1.3-1.6-1.3-2 0-.4-1.7-1.8-3.8-3.2-2-1.4-3.9-2.7-4.2-3-.3-.4-2-1.2-3.8-1.9-3.1-1.3-3.2-1.6-2.7-5 .4-2 .8-5 1.1-6.6.2-1.7.6-4.6 1-6.5.3-1.9.8-4.9 1-6.5.3-1.7.7-3.9.9-5 .3-1.7.9-5.9 2-14 .2-1.1.4-2 .5-2 .2 0 .7-2.7 1.3-7.5 1.7-12.7 2.5-16.5 3.4-15.7.2.3 1.9.1 3.6-.5 1.8-.5 3.7-1 4.2-1.2.6-.1 2.4-.9 4-1.8 4-2.1 14.8-12.8 12.9-12.8-.3 0 .1-1.1.9-2.4 2.9-4.4 4-15.2 2.2-22.1-3.1-11.8-15.1-23-27-25.1-7.6-1.4-22.5 1.8-25.2 5.4-.7.8-1.3 1.2-1.3.7 0-1.7-8 7.9-9.9 11.9-4.7 9.6-4.3 20.7 1.1 31.3C370 98.3 379.1 107 381 107c.5 0 1 .4 1 1 0 .5.7 1 1.6 1 1.3 0 1.5.8 1 5.2-.4 2.8-.9 6.1-1.1 7.2-.3 1.2-.7 3.7-.9 5.6-.3 1.9-.5 3.5-.6 3.5-.1 0-.6 2.7-1.5 9-.7 5.1-1.4 9.9-2 12.5-.2 1.3-.7 4.2-1 6.5-.8 5.5-1.3 8.4-2.1 12.5-.3 1.9-.7 4.1-.7 4.8 0 .8-1 1.8-2.1 2.2-8.1 3.1-11.4 4.9-15.1 8.6-6.9 6.7-10.1 14.4-10.4 25.2-.1 1.2-.4 2.1-.8 2-.5-.1-2.1.4-3.8 1.1-1.6.7-3.4 1.4-4 1.5-.5.1-2.1.8-3.5 1.6-1.4.7-2.5 1.2-2.5 1.1 0-.1-1.3.3-3 .9-7 2.7-34.2 13.2-36 14-8.9 3.9-12.5 4.4-12.5 1.9 0-1-7.1-7.9-8.1-7.9-.4 0-1.4-.6-2.1-1.3-6.2-5.9-26.2-5.7-34.9.4-2.5 1.8-2.6 1.8-6.5-1.4-2.1-1.7-4.6-3.9-5.5-4.9-.9-1-2-1.8-2.5-1.8s-2.7-1.7-5-3.8c-2.2-2-6-5.3-8.5-7.2-5.9-4.6-5.8-4.5-10.4-8.5-2.2-1.9-4.3-3.5-4.8-3.5-.7 0-.6-1.3 1.1-8 .9-3.5.8-11.5-.2-15.8-1.9-8.2-9.8-17.8-17.9-21.5l-4.8-2.2.6-5c.3-2.8.7-6.4 1-8 .9-5.2 1.4-8.9 2-13 .4-2.2.8-5.1 1.1-6.5.2-1.4.7-4.1.9-6 .3-1.9.7-4.4 1-5.5.2-1.1.7-4 1-6.5.7-5 1.2-8.2 1.6-9 .3-.6.6-2.8.8-5.6.1-1.7 1-2.3 3.8-2.9 2.1-.4 4.2-1 4.8-1.3.5-.4 1.6-.7 2.3-.8 1.7-.3 8.1-5.1 11-8.3 2.3-2.6 5.2-7.4 5.3-8.8 0-.5.6-1.4 1.2-2.1.5-.7 1.2-4.9 1.3-9.3.5-11-2-17.5-9.5-24.9-3.1-3.1-7.8-6.6-10.6-7.9-5.4-2.5-15.3-3.4-21.8-2z"/>
</svg>
