<?xml version="1.0" encoding="UTF-8" standalone="no"?>
<!DOCTYPE svg PUBLIC "-//W3C//DTD SVG 1.1//EN"
 "http://www.w3.org/Graphics/SVG/1.1/DTD/svg11.dtd">
<!-- Generated by graphviz version 2.40.1 (20161225.0304)
 -->
<!-- Title: dependencies Pages: 1 -->
<svg width="3389pt" height="211pt"
 viewBox="0.00 0.00 3389.00 211.00" xmlns="http://www.w3.org/2000/svg" xmlns:xlink="http://www.w3.org/1999/xlink">
<g id="graph0" class="graph" transform="scale(1 1) rotate(0) translate(4 207)">
<title>dependencies</title>
<polygon fill="#ffffff" stroke="transparent" points="-4,4 -4,-207 3385,-207 3385,4 -4,4"/>
<text text-anchor="start" x="1669.5091" y="-42.4" font-family="sans-serif" font-weight="bold" font-size="14.00" fill="#000000">Legend</text>
<polygon fill="#ffffb3" stroke="transparent" points="1456.5,-10 1456.5,-30 1476.5,-30 1476.5,-10 1456.5,-10"/>
<text text-anchor="start" x="1480.129" y="-15.4" font-family="sans-serif" font-size="14.00" fill="#000000"> &#160;Declarations</text>
<polygon fill="#8dd3c7" stroke="transparent" points="1569.5,-10 1569.5,-30 1589.5,-30 1589.5,-10 1569.5,-10"/>
<text text-anchor="start" x="1593.2251" y="-15.4" font-family="sans-serif" font-size="14.00" fill="#000000"> &#160;Module</text>
<polygon fill="#80b1d3" stroke="transparent" points="1655.5,-10 1655.5,-30 1675.5,-30 1675.5,-10 1655.5,-10"/>
<text text-anchor="start" x="1679.2812" y="-15.4" font-family="sans-serif" font-size="14.00" fill="#000000"> &#160;Bootstrap</text>
<polygon fill="#fdb462" stroke="transparent" points="1752.5,-10 1752.5,-30 1772.5,-30 1772.5,-10 1752.5,-10"/>
<text text-anchor="start" x="1776.1732" y="-15.4" font-family="sans-serif" font-size="14.00" fill="#000000"> &#160;Providers</text>
<polygon fill="#fb8072" stroke="transparent" points="1848.5,-10 1848.5,-30 1868.5,-30 1868.5,-10 1848.5,-10"/>
<text text-anchor="start" x="1872.2258" y="-15.4" font-family="sans-serif" font-size="14.00" fill="#000000"> &#160;Exports</text>
<g id="clust1" class="cluster">
<title>cluster_SecurityModule</title>
<polygon fill="none" stroke="#000000" stroke-dasharray="1,5" points="8,-70 8,-195 3373,-195 3373,-70 8,-70"/>
</g>
<g id="clust2" class="cluster">
<title>cluster_SecurityModule_declarations</title>
<polygon fill="none" stroke="#000000" points="720,-78 720,-130 3365,-130 3365,-78 720,-78"/>
</g>
<g id="clust21" class="cluster">
<title>cluster_SecurityModule_imports</title>
<polygon fill="none" stroke="#000000" points="598,-78 598,-130 712,-130 712,-78 598,-78"/>
</g>
<g id="clust24" class="cluster">
<title>cluster_SecurityModule_providers</title>
<polygon fill="none" stroke="#000000" points="16,-78 16,-130 590,-130 590,-78 16,-78"/>
</g>
<!-- RoleDeleterComponent -->
<g id="node1" class="node">
<title>RoleDeleterComponent</title>
<polygon fill="#ffffb3" stroke="#000000" points="3357.4664,-122 3208.5336,-122 3208.5336,-86 3357.4664,-86 3357.4664,-122"/>
<text text-anchor="middle" x="3283" y="-99.8" font-family="Times,serif" font-size="14.00" fill="#000000">RoleDeleterComponent</text>
</g>
<!-- SecurityModule -->
<g id="node19" class="node">
<title>SecurityModule</title>
<polygon fill="#8dd3c7" stroke="#000000" points="1661.2036,-187 1658.2036,-191 1637.2036,-191 1634.2036,-187 1554.7964,-187 1554.7964,-151 1661.2036,-151 1661.2036,-187"/>
<text text-anchor="middle" x="1608" y="-164.8" font-family="Times,serif" font-size="14.00" fill="#000000">SecurityModule</text>
</g>
<!-- RoleDeleterComponent&#45;&gt;SecurityModule -->
<g id="edge1" class="edge">
<title>RoleDeleterComponent&#45;&gt;SecurityModule</title>
<path fill="none" stroke="#000000" d="M3283,-122.1532C3283,-145.7566 3283,-184 3283,-184 3283,-184 1671.3636,-184 1671.3636,-184"/>
<polygon fill="#000000" stroke="#000000" points="1671.3636,-180.5001 1661.3636,-184 1671.3635,-187.5001 1671.3636,-180.5001"/>
</g>
<!-- RoleDetailsComponent -->
<g id="node2" class="node">
<title>RoleDetailsComponent</title>
<polygon fill="#ffffb3" stroke="#000000" points="3190.927,-122 3043.073,-122 3043.073,-86 3190.927,-86 3190.927,-122"/>
<text text-anchor="middle" x="3117" y="-99.8" font-family="Times,serif" font-size="14.00" fill="#000000">RoleDetailsComponent</text>
</g>
<!-- RoleDetailsComponent&#45;&gt;SecurityModule -->
<g id="edge2" class="edge">
<title>RoleDetailsComponent&#45;&gt;SecurityModule</title>
<path fill="none" stroke="#000000" d="M3117,-122.0908C3117,-145.1328 3117,-182 3117,-182 3117,-182 1671.2629,-182 1671.2629,-182"/>
<polygon fill="#000000" stroke="#000000" points="1671.2629,-178.5001 1661.2629,-182 1671.2628,-185.5001 1671.2629,-178.5001"/>
</g>
<!-- RolesBrowserComponent -->
<g id="node3" class="node">
<title>RolesBrowserComponent</title>
<polygon fill="#ffffb3" stroke="#000000" points="3025.1428,-122 2864.8572,-122 2864.8572,-86 3025.1428,-86 3025.1428,-122"/>
<text text-anchor="middle" x="2945" y="-99.8" font-family="Times,serif" font-size="14.00" fill="#000000">RolesBrowserComponent</text>
</g>
<!-- RolesBrowserComponent&#45;&gt;SecurityModule -->
<g id="edge3" class="edge">
<title>RolesBrowserComponent&#45;&gt;SecurityModule</title>
<path fill="none" stroke="#000000" d="M2945,-122.2921C2945,-144.2057 2945,-178 2945,-178 2945,-178 1671.237,-178 1671.237,-178"/>
<polygon fill="#000000" stroke="#000000" points="1671.2371,-174.5001 1661.237,-178 1671.237,-181.5001 1671.2371,-174.5001"/>
</g>
<!-- RolesBrowserView -->
<g id="node4" class="node">
<title>RolesBrowserView</title>
<polygon fill="#ffffb3" stroke="#000000" points="2846.6289,-122 2721.3711,-122 2721.3711,-86 2846.6289,-86 2846.6289,-122"/>
<text text-anchor="middle" x="2784" y="-99.8" font-family="Times,serif" font-size="14.00" fill="#000000">RolesBrowserView</text>
</g>
<!-- RolesBrowserView&#45;&gt;SecurityModule -->
<g id="edge4" class="edge">
<title>RolesBrowserView&#45;&gt;SecurityModule</title>
<path fill="none" stroke="#000000" d="M2784,-122.2843C2784,-143.3211 2784,-175 2784,-175 2784,-175 1671.1999,-175 1671.1999,-175"/>
<polygon fill="#000000" stroke="#000000" points="1671.1999,-171.5001 1661.1999,-175 1671.1999,-178.5001 1671.1999,-171.5001"/>
</g>
<!-- RolesChooserComponent -->
<g id="node5" class="node">
<title>RolesChooserComponent</title>
<polygon fill="#ffffb3" stroke="#000000" points="2702.8752,-122 2543.1248,-122 2543.1248,-86 2702.8752,-86 2702.8752,-122"/>
<text text-anchor="middle" x="2623" y="-99.8" font-family="Times,serif" font-size="14.00" fill="#000000">RolesChooserComponent</text>
</g>
<!-- RolesChooserComponent&#45;&gt;SecurityModule -->
<g id="edge5" class="edge">
<title>RolesChooserComponent&#45;&gt;SecurityModule</title>
<path fill="none" stroke="#000000" d="M2623,-122.2228C2623,-142.3652 2623,-172 2623,-172 2623,-172 1671.1417,-172 1671.1417,-172"/>
<polygon fill="#000000" stroke="#000000" points="1671.1418,-168.5001 1661.1417,-172 1671.1417,-175.5001 1671.1418,-168.5001"/>
</g>
<!-- RolesTreeViewComponent -->
<g id="node6" class="node">
<title>RolesTreeViewComponent</title>
<polygon fill="#ffffb3" stroke="#000000" points="2524.6797,-122 2355.3203,-122 2355.3203,-86 2524.6797,-86 2524.6797,-122"/>
<text text-anchor="middle" x="2440" y="-99.8" font-family="Times,serif" font-size="14.00" fill="#000000">RolesTreeViewComponent</text>
</g>
<!-- RolesTreeViewComponent&#45;&gt;SecurityModule -->
<g id="edge6" class="edge">
<title>RolesTreeViewComponent&#45;&gt;SecurityModule</title>
<path fill="none" stroke="#000000" d="M2440,-122.1061C2440,-141.3391 2440,-169 2440,-169 2440,-169 1671.311,-169 1671.311,-169"/>
<polygon fill="#000000" stroke="#000000" points="1671.311,-165.5001 1661.311,-169 1671.311,-172.5001 1671.311,-165.5001"/>
</g>
<!-- RolesView -->
<g id="node7" class="node">
<title>RolesView</title>
<polygon fill="#ffffb3" stroke="#000000" points="2337.2051,-122 2258.7949,-122 2258.7949,-86 2337.2051,-86 2337.2051,-122"/>
<text text-anchor="middle" x="2298" y="-99.8" font-family="Times,serif" font-size="14.00" fill="#000000">RolesView</text>
</g>
<!-- RolesView&#45;&gt;SecurityModule -->
<g id="edge7" class="edge">
<title>RolesView&#45;&gt;SecurityModule</title>
<path fill="none" stroke="#000000" d="M2298,-122.2222C2298,-140.8285 2298,-167 2298,-167 2298,-167 1671.2829,-167 1671.2829,-167"/>
<polygon fill="#000000" stroke="#000000" points="1671.2829,-163.5001 1661.2829,-167 1671.2828,-170.5001 1671.2829,-163.5001"/>
</g>
<!-- SecurityView -->
<g id="node8" class="node">
<title>SecurityView</title>
<polygon fill="#ffffb3" stroke="#000000" points="2240.472,-122 2147.528,-122 2147.528,-86 2240.472,-86 2240.472,-122"/>
<text text-anchor="middle" x="2194" y="-99.8" font-family="Times,serif" font-size="14.00" fill="#000000">SecurityView</text>
</g>
<!-- SecurityView&#45;&gt;SecurityModule -->
<g id="edge8" class="edge">
<title>SecurityView&#45;&gt;SecurityModule</title>
<path fill="none" stroke="#000000" d="M2194,-122.0225C2194,-139.3734 2194,-163 2194,-163 2194,-163 1671.2968,-163 1671.2968,-163"/>
<polygon fill="#000000" stroke="#000000" points="1671.2969,-159.5001 1661.2968,-163 1671.2968,-166.5001 1671.2969,-159.5001"/>
</g>
<!-- UserCreatorView -->
<g id="node9" class="node">
<title>UserCreatorView</title>
<polygon fill="#ffffb3" stroke="#000000" points="2129.2227,-122 2014.7773,-122 2014.7773,-86 2129.2227,-86 2129.2227,-122"/>
<text text-anchor="middle" x="2072" y="-99.8" font-family="Times,serif" font-size="14.00" fill="#000000">UserCreatorView</text>
</g>
<!-- UserCreatorView&#45;&gt;SecurityModule -->
<g id="edge9" class="edge">
<title>UserCreatorView&#45;&gt;SecurityModule</title>
<path fill="none" stroke="#000000" d="M2072,-122.027C2072,-138.3976 2072,-160 2072,-160 2072,-160 1671.2267,-160 1671.2267,-160"/>
<polygon fill="#000000" stroke="#000000" points="1671.2267,-156.5001 1661.2267,-160 1671.2267,-163.5001 1671.2267,-156.5001"/>
</g>
<!-- UserDeleterComponent -->
<g id="node10" class="node">
<title>UserDeleterComponent</title>
<polygon fill="#ffffb3" stroke="#000000" points="1996.451,-122 1847.549,-122 1847.549,-86 1996.451,-86 1996.451,-122"/>
<text text-anchor="middle" x="1922" y="-99.8" font-family="Times,serif" font-size="14.00" fill="#000000">UserDeleterComponent</text>
</g>
<!-- UserDeleterComponent&#45;&gt;SecurityModule -->
<g id="edge10" class="edge">
<title>UserDeleterComponent&#45;&gt;SecurityModule</title>
<path fill="none" stroke="#000000" d="M1922,-122.2396C1922,-137.5706 1922,-157 1922,-157 1922,-157 1671.2658,-157 1671.2658,-157"/>
<polygon fill="#000000" stroke="#000000" points="1671.2659,-153.5001 1661.2658,-157 1671.2658,-160.5001 1671.2659,-153.5001"/>
</g>
<!-- UserDetailsComponent -->
<g id="node11" class="node">
<title>UserDetailsComponent</title>
<polygon fill="#ffffb3" stroke="#000000" points="1829.9116,-122 1682.0884,-122 1682.0884,-86 1829.9116,-86 1829.9116,-122"/>
<text text-anchor="middle" x="1756" y="-99.8" font-family="Times,serif" font-size="14.00" fill="#000000">UserDetailsComponent</text>
</g>
<!-- UserDetailsComponent&#45;&gt;SecurityModule -->
<g id="edge11" class="edge">
<title>UserDetailsComponent&#45;&gt;SecurityModule</title>
<path fill="none" stroke="#000000" d="M1756,-122.0511C1756,-136.373 1756,-154 1756,-154 1756,-154 1671.4314,-154 1671.4314,-154"/>
<polygon fill="#000000" stroke="#000000" points="1671.4314,-150.5001 1661.4314,-154 1671.4314,-157.5001 1671.4314,-150.5001"/>
</g>
<!-- UserDetailsView -->
<g id="node12" class="node">
<title>UserDetailsView</title>
<polygon fill="#ffffb3" stroke="#000000" points="1664.3977,-122 1551.6023,-122 1551.6023,-86 1664.3977,-86 1664.3977,-122"/>
<text text-anchor="middle" x="1608" y="-99.8" font-family="Times,serif" font-size="14.00" fill="#000000">UserDetailsView</text>
</g>
<!-- UserDetailsView&#45;&gt;SecurityModule -->
<g id="edge12" class="edge">
<title>UserDetailsView&#45;&gt;SecurityModule</title>
<path fill="none" stroke="#000000" d="M1608,-122.1061C1608,-122.1061 1608,-140.991 1608,-140.991"/>
<polygon fill="#000000" stroke="#000000" points="1604.5001,-140.9909 1608,-150.991 1611.5001,-140.991 1604.5001,-140.9909"/>
</g>
<!-- UserNotFoundView -->
<g id="node13" class="node">
<title>UserNotFoundView</title>
<polygon fill="#ffffb3" stroke="#000000" points="1533.5255,-122 1404.4745,-122 1404.4745,-86 1533.5255,-86 1533.5255,-122"/>
<text text-anchor="middle" x="1469" y="-99.8" font-family="Times,serif" font-size="14.00" fill="#000000">UserNotFoundView</text>
</g>
<!-- UserNotFoundView&#45;&gt;SecurityModule -->
<g id="edge13" class="edge">
<title>UserNotFoundView&#45;&gt;SecurityModule</title>
<path fill="none" stroke="#000000" d="M1469,-122.0511C1469,-136.373 1469,-154 1469,-154 1469,-154 1544.6565,-154 1544.6565,-154"/>
<polygon fill="#000000" stroke="#000000" points="1544.6565,-157.5001 1554.6565,-154 1544.6565,-150.5001 1544.6565,-157.5001"/>
</g>
<!-- UsersChooserComponent -->
<g id="node14" class="node">
<title>UsersChooserComponent</title>
<polygon fill="#ffffb3" stroke="#000000" points="1385.8599,-122 1226.1401,-122 1226.1401,-86 1385.8599,-86 1385.8599,-122"/>
<text text-anchor="middle" x="1306" y="-99.8" font-family="Times,serif" font-size="14.00" fill="#000000">UsersChooserComponent</text>
</g>
<!-- UsersChooserComponent&#45;&gt;SecurityModule -->
<g id="edge14" class="edge">
<title>UsersChooserComponent&#45;&gt;SecurityModule</title>
<path fill="none" stroke="#000000" d="M1306,-122.2396C1306,-137.5706 1306,-157 1306,-157 1306,-157 1544.7036,-157 1544.7036,-157"/>
<polygon fill="#000000" stroke="#000000" points="1544.7037,-160.5001 1554.7036,-157 1544.7036,-153.5001 1544.7037,-160.5001"/>
</g>
<!-- UsersComponent -->
<g id="node15" class="node">
<title>UsersComponent</title>
<polygon fill="#ffffb3" stroke="#000000" points="1207.7036,-122 1094.2964,-122 1094.2964,-86 1207.7036,-86 1207.7036,-122"/>
<text text-anchor="middle" x="1151" y="-99.8" font-family="Times,serif" font-size="14.00" fill="#000000">UsersComponent</text>
</g>
<!-- UsersComponent&#45;&gt;SecurityModule -->
<g id="edge15" class="edge">
<title>UsersComponent&#45;&gt;SecurityModule</title>
<path fill="none" stroke="#000000" d="M1151,-122.027C1151,-138.3976 1151,-160 1151,-160 1151,-160 1544.6819,-160 1544.6819,-160"/>
<polygon fill="#000000" stroke="#000000" points="1544.6819,-163.5001 1554.6819,-160 1544.6819,-156.5001 1544.6819,-163.5001"/>
</g>
<!-- UsersListComponent -->
<g id="node16" class="node">
<title>UsersListComponent</title>
<polygon fill="#ffffb3" stroke="#000000" points="1076.4818,-122 941.5182,-122 941.5182,-86 1076.4818,-86 1076.4818,-122"/>
<text text-anchor="middle" x="1009" y="-99.8" font-family="Times,serif" font-size="14.00" fill="#000000">UsersListComponent</text>
</g>
<!-- UsersListComponent&#45;&gt;SecurityModule -->
<g id="edge16" class="edge">
<title>UsersListComponent&#45;&gt;SecurityModule</title>
<path fill="none" stroke="#000000" d="M1009,-122.0225C1009,-139.3734 1009,-163 1009,-163 1009,-163 1544.8427,-163 1544.8427,-163"/>
<polygon fill="#000000" stroke="#000000" points="1544.8428,-166.5001 1554.8427,-163 1544.8427,-159.5001 1544.8428,-166.5001"/>
</g>
<!-- UsersListView -->
<g id="node17" class="node">
<title>UsersListView</title>
<polygon fill="#ffffb3" stroke="#000000" points="923.9678,-122 824.0322,-122 824.0322,-86 923.9678,-86 923.9678,-122"/>
<text text-anchor="middle" x="874" y="-99.8" font-family="Times,serif" font-size="14.00" fill="#000000">UsersListView</text>
</g>
<!-- UsersListView&#45;&gt;SecurityModule -->
<g id="edge17" class="edge">
<title>UsersListView&#45;&gt;SecurityModule</title>
<path fill="none" stroke="#000000" d="M874,-122.2222C874,-140.8285 874,-167 874,-167 874,-167 1544.6213,-167 1544.6213,-167"/>
<polygon fill="#000000" stroke="#000000" points="1544.6213,-170.5001 1554.6213,-167 1544.6213,-163.5001 1544.6213,-170.5001"/>
</g>
<!-- UsersView -->
<g id="node18" class="node">
<title>UsersView</title>
<polygon fill="#ffffb3" stroke="#000000" points="806.1896,-122 727.8104,-122 727.8104,-86 806.1896,-86 806.1896,-122"/>
<text text-anchor="middle" x="767" y="-99.8" font-family="Times,serif" font-size="14.00" fill="#000000">UsersView</text>
</g>
<!-- UsersView&#45;&gt;SecurityModule -->
<g id="edge18" class="edge">
<title>UsersView&#45;&gt;SecurityModule</title>
<path fill="none" stroke="#000000" d="M767,-122.1061C767,-141.3391 767,-169 767,-169 767,-169 1544.7537,-169 1544.7537,-169"/>
<polygon fill="#000000" stroke="#000000" points="1544.7537,-172.5001 1554.7537,-169 1544.7536,-165.5001 1544.7537,-172.5001"/>
</g>
<!-- SharedModule -->
<g id="node20" class="node">
<title>SharedModule</title>
<polygon fill="#8dd3c7" stroke="#000000" points="704.4231,-122 701.4231,-126 680.4231,-126 677.4231,-122 605.5769,-122 605.5769,-86 704.4231,-86 704.4231,-122"/>
<text text-anchor="middle" x="655" y="-99.8" font-family="Times,serif" font-size="14.00" fill="#000000">SharedModule</text>
</g>
<!-- SharedModule&#45;&gt;SecurityModule -->
<g id="edge19" class="edge">
<title>SharedModule&#45;&gt;SecurityModule</title>
<path fill="none" stroke="#000000" d="M655,-122.2228C655,-142.3652 655,-172 655,-172 655,-172 1544.7205,-172 1544.7205,-172"/>
<polygon fill="#000000" stroke="#000000" points="1544.7206,-175.5001 1554.7205,-172 1544.7205,-168.5001 1544.7206,-175.5001"/>
</g>
<!-- RoleResolver -->
<g id="node21" class="node">
<title>RoleResolver</title>
<ellipse fill="#fdb462" stroke="#000000" cx="518" cy="-104" rx="63.7006" ry="18"/>
<text text-anchor="middle" x="518" y="-99.8" font-family="Times,serif" font-size="14.00" fill="#000000">RoleResolver</text>
</g>
<!-- RoleResolver&#45;&gt;SecurityModule -->
<g id="edge20" class="edge">
<title>RoleResolver&#45;&gt;SecurityModule</title>
<path fill="none" stroke="#000000" d="M518,-122.2843C518,-143.3211 518,-175 518,-175 518,-175 1544.6892,-175 1544.6892,-175"/>
<polygon fill="#000000" stroke="#000000" points="1544.6892,-178.5001 1554.6892,-175 1544.6891,-171.5001 1544.6892,-178.5001"/>
</g>
<!-- RolesService -->
<g id="node22" class="node">
<title>RolesService</title>
<ellipse fill="#fdb462" stroke="#000000" cx="374" cy="-104" rx="61.9731" ry="18"/>
<text text-anchor="middle" x="374" y="-99.8" font-family="Times,serif" font-size="14.00" fill="#000000">RolesService</text>
</g>
<!-- RolesService&#45;&gt;SecurityModule -->
<g id="edge21" class="edge">
<title>RolesService&#45;&gt;SecurityModule</title>
<path fill="none" stroke="#000000" d="M374,-122.2921C374,-144.2057 374,-178 374,-178 374,-178 1544.5805,-178 1544.5805,-178"/>
<polygon fill="#000000" stroke="#000000" points="1544.5805,-181.5001 1554.5805,-178 1544.5804,-174.5001 1544.5805,-181.5001"/>
</g>
<!-- UserResolver -->
<g id="node23" class="node">
<title>UserResolver</title>
<ellipse fill="#fdb462" stroke="#000000" cx="230" cy="-104" rx="63.6793" ry="18"/>
<text text-anchor="middle" x="230" y="-99.8" font-family="Times,serif" font-size="14.00" fill="#000000">UserResolver</text>
</g>
<!-- UserResolver&#45;&gt;SecurityModule -->
<g id="edge22" class="edge">
<title>UserResolver&#45;&gt;SecurityModule</title>
<path fill="none" stroke="#000000" d="M230,-122.0908C230,-145.1328 230,-182 230,-182 230,-182 1544.8251,-182 1544.8251,-182"/>
<polygon fill="#000000" stroke="#000000" points="1544.8252,-185.5001 1554.8251,-182 1544.8251,-178.5001 1544.8252,-185.5001"/>
</g>
<!-- UsersService -->
<g id="node24" class="node">
<title>UsersService</title>
<ellipse fill="#fdb462" stroke="#000000" cx="86" cy="-104" rx="61.9519" ry="18"/>
<text text-anchor="middle" x="86" y="-99.8" font-family="Times,serif" font-size="14.00" fill="#000000">UsersService</text>
</g>
<!-- UsersService&#45;&gt;SecurityModule -->
<g id="edge23" class="edge">
<title>UsersService&#45;&gt;SecurityModule</title>
<path fill="none" stroke="#000000" d="M86,-122.1532C86,-145.7566 86,-184 86,-184 86,-184 1544.7236,-184 1544.7236,-184"/>
<polygon fill="#000000" stroke="#000000" points="1544.7237,-187.5001 1554.7236,-184 1544.7236,-180.5001 1544.7237,-187.5001"/>
</g>
</g>
</svg>
