<?xml version="1.0" encoding="UTF-8" standalone="no"?>
<!DOCTYPE svg PUBLIC "-//W3C//DTD SVG 1.1//EN"
 "http://www.w3.org/Graphics/SVG/1.1/DTD/svg11.dtd">
<!-- Generated by graphviz version 2.40.1 (20161225.0304)
 -->
<!-- Title: dependencies Pages: 1 -->
<svg width="1903pt" height="211pt"
 viewBox="0.00 0.00 1903.00 211.00" xmlns="http://www.w3.org/2000/svg" xmlns:xlink="http://www.w3.org/1999/xlink">
<g id="graph0" class="graph" transform="scale(1 1) rotate(0) translate(4 207)">
<title>dependencies</title>
<polygon fill="#ffffff" stroke="transparent" points="-4,4 -4,-207 1899,-207 1899,4 -4,4"/>
<text text-anchor="start" x="926.5091" y="-42.4" font-family="sans-serif" font-weight="bold" font-size="14.00" fill="#000000">Legend</text>
<polygon fill="#ffffb3" stroke="transparent" points="713.5,-10 713.5,-30 733.5,-30 733.5,-10 713.5,-10"/>
<text text-anchor="start" x="737.129" y="-15.4" font-family="sans-serif" font-size="14.00" fill="#000000"> &#160;Declarations</text>
<polygon fill="#8dd3c7" stroke="transparent" points="826.5,-10 826.5,-30 846.5,-30 846.5,-10 826.5,-10"/>
<text text-anchor="start" x="850.2251" y="-15.4" font-family="sans-serif" font-size="14.00" fill="#000000"> &#160;Module</text>
<polygon fill="#80b1d3" stroke="transparent" points="912.5,-10 912.5,-30 932.5,-30 932.5,-10 912.5,-10"/>
<text text-anchor="start" x="936.2812" y="-15.4" font-family="sans-serif" font-size="14.00" fill="#000000"> &#160;Bootstrap</text>
<polygon fill="#fdb462" stroke="transparent" points="1009.5,-10 1009.5,-30 1029.5,-30 1029.5,-10 1009.5,-10"/>
<text text-anchor="start" x="1033.1732" y="-15.4" font-family="sans-serif" font-size="14.00" fill="#000000"> &#160;Providers</text>
<polygon fill="#fb8072" stroke="transparent" points="1105.5,-10 1105.5,-30 1125.5,-30 1125.5,-10 1105.5,-10"/>
<text text-anchor="start" x="1129.2258" y="-15.4" font-family="sans-serif" font-size="14.00" fill="#000000"> &#160;Exports</text>
<g id="clust1" class="cluster">
<title>cluster_WorkbenchModule</title>
<polygon fill="none" stroke="#000000" stroke-dasharray="1,5" points="8,-70 8,-195 1887,-195 1887,-70 8,-70"/>
</g>
<g id="clust2" class="cluster">
<title>cluster_WorkbenchModule_declarations</title>
<polygon fill="none" stroke="#000000" points="1360,-78 1360,-130 1879,-130 1879,-78 1360,-78"/>
</g>
<g id="clust7" class="cluster">
<title>cluster_WorkbenchModule_imports</title>
<polygon fill="none" stroke="#000000" points="276,-78 276,-130 1352,-130 1352,-78 276,-78"/>
</g>
<g id="clust10" class="cluster">
<title>cluster_WorkbenchModule_providers</title>
<polygon fill="none" stroke="#000000" points="16,-78 16,-130 268,-130 268,-78 16,-78"/>
</g>
<!-- WorkbenchView -->
<g id="node1" class="node">
<title>WorkbenchView</title>
<polygon fill="#ffffb3" stroke="#000000" points="1870.6234,-122 1759.3766,-122 1759.3766,-86 1870.6234,-86 1870.6234,-122"/>
<text text-anchor="middle" x="1815" y="-99.8" font-family="Times,serif" font-size="14.00" fill="#000000">WorkbenchView</text>
</g>
<!-- WorkbenchModule -->
<g id="node5" class="node">
<title>WorkbenchModule</title>
<polygon fill="#8dd3c7" stroke="#000000" points="1135.3543,-187 1132.3543,-191 1111.3543,-191 1108.3543,-187 1010.6457,-187 1010.6457,-151 1135.3543,-151 1135.3543,-187"/>
<text text-anchor="middle" x="1073" y="-164.8" font-family="Times,serif" font-size="14.00" fill="#000000">WorkbenchModule</text>
</g>
<!-- WorkbenchView&#45;&gt;WorkbenchModule -->
<g id="edge1" class="edge">
<title>WorkbenchView&#45;&gt;WorkbenchModule</title>
<path fill="none" stroke="#000000" d="M1815,-122.0908C1815,-145.1328 1815,-182 1815,-182 1815,-182 1145.623,-182 1145.623,-182"/>
<polygon fill="#000000" stroke="#000000" points="1145.6231,-178.5001 1135.623,-182 1145.623,-185.5001 1145.6231,-178.5001"/>
</g>
<!-- DashboardView -->
<g id="node2" class="node">
<title>DashboardView</title>
<polygon fill="#ffffb3" stroke="#000000" points="1741.4594,-122 1634.5406,-122 1634.5406,-86 1741.4594,-86 1741.4594,-122"/>
<text text-anchor="middle" x="1688" y="-99.8" font-family="Times,serif" font-size="14.00" fill="#000000">DashboardView</text>
</g>
<!-- DashboardView&#45;&gt;WorkbenchModule -->
<g id="edge2" class="edge">
<title>DashboardView&#45;&gt;WorkbenchModule</title>
<path fill="none" stroke="#000000" d="M1688,-122.2843C1688,-143.3211 1688,-175 1688,-175 1688,-175 1145.6395,-175 1145.6395,-175"/>
<polygon fill="#000000" stroke="#000000" points="1145.6395,-171.5001 1135.6395,-175 1145.6395,-178.5001 1145.6395,-171.5001"/>
</g>
<!-- SPARQLClientView -->
<g id="node3" class="node">
<title>SPARQLClientView</title>
<polygon fill="#ffffb3" stroke="#000000" points="1616.2092,-122 1481.7908,-122 1481.7908,-86 1616.2092,-86 1616.2092,-122"/>
<text text-anchor="middle" x="1549" y="-99.8" font-family="Times,serif" font-size="14.00" fill="#000000">SPARQLClientView</text>
</g>
<!-- SPARQLClientView&#45;&gt;WorkbenchModule -->
<g id="edge3" class="edge">
<title>SPARQLClientView&#45;&gt;WorkbenchModule</title>
<path fill="none" stroke="#000000" d="M1549,-122.1061C1549,-141.3391 1549,-169 1549,-169 1549,-169 1145.7182,-169 1145.7182,-169"/>
<polygon fill="#000000" stroke="#000000" points="1145.7182,-165.5001 1135.7182,-169 1145.7181,-172.5001 1145.7182,-165.5001"/>
</g>
<!-- ExplorerView -->
<g id="node4" class="node">
<title>ExplorerView</title>
<polygon fill="#ffffb3" stroke="#000000" points="1463.7979,-122 1368.2021,-122 1368.2021,-86 1463.7979,-86 1463.7979,-122"/>
<text text-anchor="middle" x="1416" y="-99.8" font-family="Times,serif" font-size="14.00" fill="#000000">ExplorerView</text>
</g>
<!-- ExplorerView&#45;&gt;WorkbenchModule -->
<g id="edge4" class="edge">
<title>ExplorerView&#45;&gt;WorkbenchModule</title>
<path fill="none" stroke="#000000" d="M1416,-122.0225C1416,-139.3734 1416,-163 1416,-163 1416,-163 1145.5127,-163 1145.5127,-163"/>
<polygon fill="#000000" stroke="#000000" points="1145.5127,-159.5001 1135.5127,-163 1145.5126,-166.5001 1145.5127,-159.5001"/>
</g>
<!-- CommonModule -->
<g id="node6" class="node">
<title>CommonModule</title>
<polygon fill="#8dd3c7" stroke="#000000" points="1343.6681,-122 1340.6681,-126 1319.6681,-126 1316.6681,-122 1232.3319,-122 1232.3319,-86 1343.6681,-86 1343.6681,-122"/>
<text text-anchor="middle" x="1288" y="-99.8" font-family="Times,serif" font-size="14.00" fill="#000000">CommonModule</text>
</g>
<!-- CommonModule&#45;&gt;WorkbenchModule -->
<g id="edge5" class="edge">
<title>CommonModule&#45;&gt;WorkbenchModule</title>
<path fill="none" stroke="#000000" d="M1288,-122.2396C1288,-137.5706 1288,-157 1288,-157 1288,-157 1145.4757,-157 1145.4757,-157"/>
<polygon fill="#000000" stroke="#000000" points="1145.4757,-153.5001 1135.4757,-157 1145.4757,-160.5001 1145.4757,-153.5001"/>
</g>
<!-- FormsModule -->
<g id="node7" class="node">
<title>FormsModule</title>
<polygon fill="#8dd3c7" stroke="#000000" points="1214.8288,-122 1211.8288,-126 1190.8288,-126 1187.8288,-122 1119.1712,-122 1119.1712,-86 1214.8288,-86 1214.8288,-122"/>
<text text-anchor="middle" x="1167" y="-99.8" font-family="Times,serif" font-size="14.00" fill="#000000">FormsModule</text>
</g>
<!-- FormsModule&#45;&gt;WorkbenchModule -->
<g id="edge6" class="edge">
<title>FormsModule&#45;&gt;WorkbenchModule</title>
<path fill="none" stroke="#000000" d="M1127.3815,-122.1061C1127.3815,-122.1061 1127.3815,-140.991 1127.3815,-140.991"/>
<polygon fill="#000000" stroke="#000000" points="1123.8816,-140.9909 1127.3815,-150.991 1130.8816,-140.991 1123.8816,-140.9909"/>
</g>
<!-- routing -->
<g id="node8" class="node">
<title>routing</title>
<polygon fill="#8dd3c7" stroke="#000000" points="1101.4435,-122 1098.4435,-126 1077.4435,-126 1074.4435,-122 1044.5565,-122 1044.5565,-86 1101.4435,-86 1101.4435,-122"/>
<text text-anchor="middle" x="1073" y="-99.8" font-family="Times,serif" font-size="14.00" fill="#000000">routing</text>
</g>
<!-- routing&#45;&gt;WorkbenchModule -->
<g id="edge7" class="edge">
<title>routing&#45;&gt;WorkbenchModule</title>
<path fill="none" stroke="#000000" d="M1073,-122.1061C1073,-122.1061 1073,-140.991 1073,-140.991"/>
<polygon fill="#000000" stroke="#000000" points="1069.5001,-140.9909 1073,-150.991 1076.5001,-140.991 1069.5001,-140.9909"/>
</g>
<!-- AppCommonModule -->
<g id="node9" class="node">
<title>AppCommonModule</title>
<polygon fill="#8dd3c7" stroke="#000000" points="1026.7744,-122 1023.7744,-126 1002.7744,-126 999.7744,-122 891.2256,-122 891.2256,-86 1026.7744,-86 1026.7744,-122"/>
<text text-anchor="middle" x="959" y="-99.8" font-family="Times,serif" font-size="14.00" fill="#000000">AppCommonModule</text>
</g>
<!-- AppCommonModule&#45;&gt;WorkbenchModule -->
<g id="edge8" class="edge">
<title>AppCommonModule&#45;&gt;WorkbenchModule</title>
<path fill="none" stroke="#000000" d="M1018.73,-122.1061C1018.73,-122.1061 1018.73,-140.991 1018.73,-140.991"/>
<polygon fill="#000000" stroke="#000000" points="1015.2301,-140.9909 1018.73,-150.991 1022.2301,-140.991 1015.2301,-140.9909"/>
</g>
<!-- SPARQLClientModule -->
<g id="node10" class="node">
<title>SPARQLClientModule</title>
<polygon fill="#8dd3c7" stroke="#000000" points="872.9411,-122 869.9411,-126 848.9411,-126 845.9411,-122 725.0589,-122 725.0589,-86 872.9411,-86 872.9411,-122"/>
<text text-anchor="middle" x="799" y="-99.8" font-family="Times,serif" font-size="14.00" fill="#000000">SPARQLClientModule</text>
</g>
<!-- SPARQLClientModule&#45;&gt;WorkbenchModule -->
<g id="edge9" class="edge">
<title>SPARQLClientModule&#45;&gt;WorkbenchModule</title>
<path fill="none" stroke="#000000" d="M799,-122.2396C799,-137.5706 799,-157 799,-157 799,-157 1000.4823,-157 1000.4823,-157"/>
<polygon fill="#000000" stroke="#000000" points="1000.4823,-160.5001 1010.4823,-157 1000.4823,-153.5001 1000.4823,-160.5001"/>
</g>
<!-- DocumentExplorerModule -->
<g id="node11" class="node">
<title>DocumentExplorerModule</title>
<polygon fill="#8dd3c7" stroke="#000000" points="707.3459,-122 704.3459,-126 683.3459,-126 680.3459,-122 540.6541,-122 540.6541,-86 707.3459,-86 707.3459,-122"/>
<text text-anchor="middle" x="624" y="-99.8" font-family="Times,serif" font-size="14.00" fill="#000000">DocumentExplorerModule</text>
</g>
<!-- DocumentExplorerModule&#45;&gt;WorkbenchModule -->
<g id="edge10" class="edge">
<title>DocumentExplorerModule&#45;&gt;WorkbenchModule</title>
<path fill="none" stroke="#000000" d="M624,-122.0225C624,-139.3734 624,-163 624,-163 624,-163 1000.5685,-163 1000.5685,-163"/>
<polygon fill="#000000" stroke="#000000" points="1000.5685,-166.5001 1010.5685,-163 1000.5684,-159.5001 1000.5685,-166.5001"/>
</g>
<!-- DashboardModule -->
<g id="node12" class="node">
<title>DashboardModule</title>
<polygon fill="#8dd3c7" stroke="#000000" points="522.191,-122 519.191,-126 498.191,-126 495.191,-122 401.809,-122 401.809,-86 522.191,-86 522.191,-122"/>
<text text-anchor="middle" x="462" y="-99.8" font-family="Times,serif" font-size="14.00" fill="#000000">DashboardModule</text>
</g>
<!-- DashboardModule&#45;&gt;WorkbenchModule -->
<g id="edge11" class="edge">
<title>DashboardModule&#45;&gt;WorkbenchModule</title>
<path fill="none" stroke="#000000" d="M462,-122.1061C462,-141.3391 462,-169 462,-169 462,-169 1000.4837,-169 1000.4837,-169"/>
<polygon fill="#000000" stroke="#000000" points="1000.4837,-172.5001 1010.4837,-169 1000.4836,-165.5001 1000.4837,-172.5001"/>
</g>
<!-- LayoutModule -->
<g id="node13" class="node">
<title>LayoutModule</title>
<polygon fill="#8dd3c7" stroke="#000000" points="383.7078,-122 380.7078,-126 359.7078,-126 356.7078,-122 284.2922,-122 284.2922,-86 383.7078,-86 383.7078,-122"/>
<text text-anchor="middle" x="334" y="-99.8" font-family="Times,serif" font-size="14.00" fill="#000000">LayoutModule</text>
</g>
<!-- LayoutModule&#45;&gt;WorkbenchModule -->
<g id="edge12" class="edge">
<title>LayoutModule&#45;&gt;WorkbenchModule</title>
<path fill="none" stroke="#000000" d="M334,-122.2843C334,-143.3211 334,-175 334,-175 334,-175 1000.6302,-175 1000.6302,-175"/>
<polygon fill="#000000" stroke="#000000" points="1000.6302,-178.5001 1010.6302,-175 1000.6301,-171.5001 1000.6302,-178.5001"/>
</g>
<!-- DocumentsResolverService -->
<g id="node14" class="node">
<title>DocumentsResolverService</title>
<ellipse fill="#fdb462" stroke="#000000" cx="142" cy="-104" rx="118.0966" ry="18"/>
<text text-anchor="middle" x="142" y="-99.8" font-family="Times,serif" font-size="14.00" fill="#000000">DocumentsResolverService</text>
</g>
<!-- DocumentsResolverService&#45;&gt;WorkbenchModule -->
<g id="edge13" class="edge">
<title>DocumentsResolverService&#45;&gt;WorkbenchModule</title>
<path fill="none" stroke="#000000" d="M142,-122.0908C142,-145.1328 142,-182 142,-182 142,-182 1000.4688,-182 1000.4688,-182"/>
<polygon fill="#000000" stroke="#000000" points="1000.4689,-185.5001 1010.4688,-182 1000.4688,-178.5001 1000.4689,-185.5001"/>
</g>
</g>
</svg>
