<?xml version="1.0" encoding="UTF-8" standalone="no"?>
<!DOCTYPE svg PUBLIC "-//W3C//DTD SVG 1.1//EN"
 "http://www.w3.org/Graphics/SVG/1.1/DTD/svg11.dtd">
<!-- Generated by graphviz version 2.40.1 (20161225.0304)
 -->
<!-- Title: dependencies Pages: 1 -->
<svg width="2006pt" height="211pt"
 viewBox="0.00 0.00 2006.00 211.00" xmlns="http://www.w3.org/2000/svg" xmlns:xlink="http://www.w3.org/1999/xlink">
<g id="graph0" class="graph" transform="scale(1 1) rotate(0) translate(4 207)">
<title>dependencies</title>
<polygon fill="#ffffff" stroke="transparent" points="-4,4 -4,-207 2002,-207 2002,4 -4,4"/>
<text text-anchor="start" x="978.0091" y="-42.4" font-family="sans-serif" font-weight="bold" font-size="14.00" fill="#000000">Legend</text>
<polygon fill="#ffffb3" stroke="transparent" points="765,-10 765,-30 785,-30 785,-10 765,-10"/>
<text text-anchor="start" x="788.629" y="-15.4" font-family="sans-serif" font-size="14.00" fill="#000000"> &#160;Declarations</text>
<polygon fill="#8dd3c7" stroke="transparent" points="878,-10 878,-30 898,-30 898,-10 878,-10"/>
<text text-anchor="start" x="901.7251" y="-15.4" font-family="sans-serif" font-size="14.00" fill="#000000"> &#160;Module</text>
<polygon fill="#80b1d3" stroke="transparent" points="964,-10 964,-30 984,-30 984,-10 964,-10"/>
<text text-anchor="start" x="987.7812" y="-15.4" font-family="sans-serif" font-size="14.00" fill="#000000"> &#160;Bootstrap</text>
<polygon fill="#fdb462" stroke="transparent" points="1061,-10 1061,-30 1081,-30 1081,-10 1061,-10"/>
<text text-anchor="start" x="1084.6732" y="-15.4" font-family="sans-serif" font-size="14.00" fill="#000000"> &#160;Providers</text>
<polygon fill="#fb8072" stroke="transparent" points="1157,-10 1157,-30 1177,-30 1177,-10 1157,-10"/>
<text text-anchor="start" x="1180.7258" y="-15.4" font-family="sans-serif" font-size="14.00" fill="#000000"> &#160;Exports</text>
<g id="clust1" class="cluster">
<title>cluster_WorkbenchModule</title>
<polygon fill="none" stroke="#000000" stroke-dasharray="1,5" points="8,-70 8,-195 1990,-195 1990,-70 8,-70"/>
</g>
<g id="clust2" class="cluster">
<title>cluster_WorkbenchModule_declarations</title>
<polygon fill="none" stroke="#000000" points="1160,-78 1160,-130 1982,-130 1982,-78 1160,-78"/>
</g>
<g id="clust9" class="cluster">
<title>cluster_WorkbenchModule_imports</title>
<polygon fill="none" stroke="#000000" points="276,-78 276,-130 1152,-130 1152,-78 276,-78"/>
</g>
<g id="clust12" class="cluster">
<title>cluster_WorkbenchModule_providers</title>
<polygon fill="none" stroke="#000000" points="16,-78 16,-130 268,-130 268,-78 16,-78"/>
</g>
<!-- DashboardView -->
<g id="node1" class="node">
<title>DashboardView</title>
<polygon fill="#ffffb3" stroke="#000000" points="1974.4594,-122 1867.5406,-122 1867.5406,-86 1974.4594,-86 1974.4594,-122"/>
<text text-anchor="middle" x="1921" y="-99.8" font-family="Times,serif" font-size="14.00" fill="#000000">DashboardView</text>
</g>
<!-- WorkbenchModule -->
<g id="node7" class="node">
<title>WorkbenchModule</title>
<polygon fill="#8dd3c7" stroke="#000000" points="1137.3543,-187 1134.3543,-191 1113.3543,-191 1110.3543,-187 1012.6457,-187 1012.6457,-151 1137.3543,-151 1137.3543,-187"/>
<text text-anchor="middle" x="1075" y="-164.8" font-family="Times,serif" font-size="14.00" fill="#000000">WorkbenchModule</text>
</g>
<!-- DashboardView&#45;&gt;WorkbenchModule -->
<g id="edge1" class="edge">
<title>DashboardView&#45;&gt;WorkbenchModule</title>
<path fill="none" stroke="#000000" d="M1921,-122.0908C1921,-145.1328 1921,-182 1921,-182 1921,-182 1147.552,-182 1147.552,-182"/>
<polygon fill="#000000" stroke="#000000" points="1147.552,-178.5001 1137.552,-182 1147.5519,-185.5001 1147.552,-178.5001"/>
</g>
<!-- EditInstanceComponent -->
<g id="node2" class="node">
<title>EditInstanceComponent</title>
<polygon fill="#ffffb3" stroke="#000000" points="1849.8061,-122 1698.1939,-122 1698.1939,-86 1849.8061,-86 1849.8061,-122"/>
<text text-anchor="middle" x="1774" y="-99.8" font-family="Times,serif" font-size="14.00" fill="#000000">EditInstanceComponent</text>
</g>
<!-- EditInstanceComponent&#45;&gt;WorkbenchModule -->
<g id="edge2" class="edge">
<title>EditInstanceComponent&#45;&gt;WorkbenchModule</title>
<path fill="none" stroke="#000000" d="M1774,-122.0449C1774,-143.6623 1774,-177 1774,-177 1774,-177 1147.6467,-177 1147.6467,-177"/>
<polygon fill="#000000" stroke="#000000" points="1147.6468,-173.5001 1137.6467,-177 1147.6467,-180.5001 1147.6468,-173.5001"/>
</g>
<!-- EditInstanceView -->
<g id="node3" class="node">
<title>EditInstanceView</title>
<polygon fill="#ffffb3" stroke="#000000" points="1680.2922,-122 1563.7078,-122 1563.7078,-86 1680.2922,-86 1680.2922,-122"/>
<text text-anchor="middle" x="1622" y="-99.8" font-family="Times,serif" font-size="14.00" fill="#000000">EditInstanceView</text>
</g>
<!-- EditInstanceView&#45;&gt;WorkbenchModule -->
<g id="edge3" class="edge">
<title>EditInstanceView&#45;&gt;WorkbenchModule</title>
<path fill="none" stroke="#000000" d="M1622,-122.2228C1622,-142.3652 1622,-172 1622,-172 1622,-172 1147.4814,-172 1147.4814,-172"/>
<polygon fill="#000000" stroke="#000000" points="1147.4814,-168.5001 1137.4814,-172 1147.4813,-175.5001 1147.4814,-168.5001"/>
</g>
<!-- ExplorerView -->
<g id="node4" class="node">
<title>ExplorerView</title>
<polygon fill="#ffffb3" stroke="#000000" points="1545.7979,-122 1450.2021,-122 1450.2021,-86 1545.7979,-86 1545.7979,-122"/>
<text text-anchor="middle" x="1498" y="-99.8" font-family="Times,serif" font-size="14.00" fill="#000000">ExplorerView</text>
</g>
<!-- ExplorerView&#45;&gt;WorkbenchModule -->
<g id="edge4" class="edge">
<title>ExplorerView&#45;&gt;WorkbenchModule</title>
<path fill="none" stroke="#000000" d="M1498,-122.2222C1498,-140.8285 1498,-167 1498,-167 1498,-167 1147.4151,-167 1147.4151,-167"/>
<polygon fill="#000000" stroke="#000000" points="1147.4151,-163.5001 1137.4151,-167 1147.4151,-170.5001 1147.4151,-163.5001"/>
</g>
<!-- SPARQLClientView -->
<g id="node5" class="node">
<title>SPARQLClientView</title>
<polygon fill="#ffffb3" stroke="#000000" points="1432.2092,-122 1297.7908,-122 1297.7908,-86 1432.2092,-86 1432.2092,-122"/>
<text text-anchor="middle" x="1365" y="-99.8" font-family="Times,serif" font-size="14.00" fill="#000000">SPARQLClientView</text>
</g>
<!-- SPARQLClientView&#45;&gt;WorkbenchModule -->
<g id="edge5" class="edge">
<title>SPARQLClientView&#45;&gt;WorkbenchModule</title>
<path fill="none" stroke="#000000" d="M1365,-122.0336C1365,-139.0597 1365,-162 1365,-162 1365,-162 1147.5686,-162 1147.5686,-162"/>
<polygon fill="#000000" stroke="#000000" points="1147.5687,-158.5001 1137.5686,-162 1147.5686,-165.5001 1147.5687,-158.5001"/>
</g>
<!-- WorkbenchView -->
<g id="node6" class="node">
<title>WorkbenchView</title>
<polygon fill="#ffffb3" stroke="#000000" points="1279.6234,-122 1168.3766,-122 1168.3766,-86 1279.6234,-86 1279.6234,-122"/>
<text text-anchor="middle" x="1224" y="-99.8" font-family="Times,serif" font-size="14.00" fill="#000000">WorkbenchView</text>
</g>
<!-- WorkbenchView&#45;&gt;WorkbenchModule -->
<g id="edge6" class="edge">
<title>WorkbenchView&#45;&gt;WorkbenchModule</title>
<path fill="none" stroke="#000000" d="M1224,-122.2396C1224,-137.5706 1224,-157 1224,-157 1224,-157 1147.7576,-157 1147.7576,-157"/>
<polygon fill="#000000" stroke="#000000" points="1147.7576,-153.5001 1137.7576,-157 1147.7575,-160.5001 1147.7576,-153.5001"/>
</g>
<!-- ConfigurationModule -->
<g id="node8" class="node">
<title>ConfigurationModule</title>
<polygon fill="#8dd3c7" stroke="#000000" points="1144.094,-122 1141.094,-126 1120.094,-126 1117.094,-122 1005.906,-122 1005.906,-86 1144.094,-86 1144.094,-122"/>
<text text-anchor="middle" x="1075" y="-99.8" font-family="Times,serif" font-size="14.00" fill="#000000">ConfigurationModule</text>
</g>
<!-- ConfigurationModule&#45;&gt;WorkbenchModule -->
<g id="edge7" class="edge">
<title>ConfigurationModule&#45;&gt;WorkbenchModule</title>
<path fill="none" stroke="#000000" d="M1075,-122.1061C1075,-122.1061 1075,-140.991 1075,-140.991"/>
<polygon fill="#000000" stroke="#000000" points="1071.5001,-140.9909 1075,-150.991 1078.5001,-140.991 1071.5001,-140.9909"/>
</g>
<!-- DashboardModule -->
<g id="node9" class="node">
<title>DashboardModule</title>
<polygon fill="#8dd3c7" stroke="#000000" points="988.191,-122 985.191,-126 964.191,-126 961.191,-122 867.809,-122 867.809,-86 988.191,-86 988.191,-122"/>
<text text-anchor="middle" x="928" y="-99.8" font-family="Times,serif" font-size="14.00" fill="#000000">DashboardModule</text>
</g>
<!-- DashboardModule&#45;&gt;WorkbenchModule -->
<g id="edge8" class="edge">
<title>DashboardModule&#45;&gt;WorkbenchModule</title>
<path fill="none" stroke="#000000" d="M928,-122.2396C928,-137.5706 928,-157 928,-157 928,-157 1002.2324,-157 1002.2324,-157"/>
<polygon fill="#000000" stroke="#000000" points="1002.2324,-160.5001 1012.2324,-157 1002.2323,-153.5001 1002.2324,-160.5001"/>
</g>
<!-- DocumentExplorerModule -->
<g id="node10" class="node">
<title>DocumentExplorerModule</title>
<polygon fill="#8dd3c7" stroke="#000000" points="849.3459,-122 846.3459,-126 825.3459,-126 822.3459,-122 682.6541,-122 682.6541,-86 849.3459,-86 849.3459,-122"/>
<text text-anchor="middle" x="766" y="-99.8" font-family="Times,serif" font-size="14.00" fill="#000000">DocumentExplorerModule</text>
</g>
<!-- DocumentExplorerModule&#45;&gt;WorkbenchModule -->
<g id="edge9" class="edge">
<title>DocumentExplorerModule&#45;&gt;WorkbenchModule</title>
<path fill="none" stroke="#000000" d="M766,-122.0336C766,-139.0597 766,-162 766,-162 766,-162 1002.4692,-162 1002.4692,-162"/>
<polygon fill="#000000" stroke="#000000" points="1002.4693,-165.5001 1012.4692,-162 1002.4692,-158.5001 1002.4693,-165.5001"/>
</g>
<!-- LayoutModule -->
<g id="node11" class="node">
<title>LayoutModule</title>
<polygon fill="#8dd3c7" stroke="#000000" points="664.7078,-122 661.7078,-126 640.7078,-126 637.7078,-122 565.2922,-122 565.2922,-86 664.7078,-86 664.7078,-122"/>
<text text-anchor="middle" x="615" y="-99.8" font-family="Times,serif" font-size="14.00" fill="#000000">LayoutModule</text>
</g>
<!-- LayoutModule&#45;&gt;WorkbenchModule -->
<g id="edge10" class="edge">
<title>LayoutModule&#45;&gt;WorkbenchModule</title>
<path fill="none" stroke="#000000" d="M615,-122.2222C615,-140.8285 615,-167 615,-167 615,-167 1002.4836,-167 1002.4836,-167"/>
<polygon fill="#000000" stroke="#000000" points="1002.4837,-170.5001 1012.4836,-167 1002.4836,-163.5001 1002.4837,-170.5001"/>
</g>
<!-- SPARQLClientModule -->
<g id="node12" class="node">
<title>SPARQLClientModule</title>
<polygon fill="#8dd3c7" stroke="#000000" points="547.9411,-122 544.9411,-126 523.9411,-126 520.9411,-122 400.0589,-122 400.0589,-86 547.9411,-86 547.9411,-122"/>
<text text-anchor="middle" x="474" y="-99.8" font-family="Times,serif" font-size="14.00" fill="#000000">SPARQLClientModule</text>
</g>
<!-- SPARQLClientModule&#45;&gt;WorkbenchModule -->
<g id="edge11" class="edge">
<title>SPARQLClientModule&#45;&gt;WorkbenchModule</title>
<path fill="none" stroke="#000000" d="M474,-122.2228C474,-142.3652 474,-172 474,-172 474,-172 1002.3833,-172 1002.3833,-172"/>
<polygon fill="#000000" stroke="#000000" points="1002.3833,-175.5001 1012.3833,-172 1002.3832,-168.5001 1002.3833,-175.5001"/>
</g>
<!-- SharedModule -->
<g id="node13" class="node">
<title>SharedModule</title>
<polygon fill="#8dd3c7" stroke="#000000" points="382.4231,-122 379.4231,-126 358.4231,-126 355.4231,-122 283.5769,-122 283.5769,-86 382.4231,-86 382.4231,-122"/>
<text text-anchor="middle" x="333" y="-99.8" font-family="Times,serif" font-size="14.00" fill="#000000">SharedModule</text>
</g>
<!-- SharedModule&#45;&gt;WorkbenchModule -->
<g id="edge12" class="edge">
<title>SharedModule&#45;&gt;WorkbenchModule</title>
<path fill="none" stroke="#000000" d="M333,-122.0449C333,-143.6623 333,-177 333,-177 333,-177 1002.377,-177 1002.377,-177"/>
<polygon fill="#000000" stroke="#000000" points="1002.377,-180.5001 1012.377,-177 1002.3769,-173.5001 1002.377,-180.5001"/>
</g>
<!-- DocumentsResolverService -->
<g id="node14" class="node">
<title>DocumentsResolverService</title>
<ellipse fill="#fdb462" stroke="#000000" cx="142" cy="-104" rx="118.0966" ry="18"/>
<text text-anchor="middle" x="142" y="-99.8" font-family="Times,serif" font-size="14.00" fill="#000000">DocumentsResolverService</text>
</g>
<!-- DocumentsResolverService&#45;&gt;WorkbenchModule -->
<g id="edge13" class="edge">
<title>DocumentsResolverService&#45;&gt;WorkbenchModule</title>
<path fill="none" stroke="#000000" d="M142,-122.0908C142,-145.1328 142,-182 142,-182 142,-182 1002.3345,-182 1002.3345,-182"/>
<polygon fill="#000000" stroke="#000000" points="1002.3345,-185.5001 1012.3345,-182 1002.3345,-178.5001 1002.3345,-185.5001"/>
</g>
</g>
</svg>
